<svg width="20" height="26" viewBox="0 0 20 26" fill="none" xmlns="http://www.w3.org/2000/svg">
<path d="M12 18L13.2092 19.7908L15 21L13.2092 22.2092L12 24L10.7908 22.2092L9 21L10.7908 19.7908L12 18Z" fill="#252627"/>
<path d="M18 25C18 25.5523 18.4477 26 19 26C19.5523 26 20 25.5523 20 25H18ZM0 25C0 25.5523 0.447715 26 1 26C1.55228 26 2 25.5523 2 25H0ZM18 22V25H20V22H18ZM2 25V22H0V25H2ZM10 14C14.4183 14 18 17.5817 18 22H20C20 16.4772 15.5228 12 10 12V14ZM10 12C4.47715 12 0 16.4772 0 22H2C2 17.5817 5.58172 14 10 14V12Z" fill="#252627"/>
<circle cx="9.5" cy="8.5" r="8.5" fill="white"/>
<circle cx="9.5" cy="8.5" r="5.5" stroke="#252627" stroke-width="2"/>
</svg>
