<svg width="25" height="30" viewBox="0 0 25 30" fill="none" xmlns="http://www.w3.org/2000/svg">
<path d="M0.5 26.2574V26.477C0.5 27.5751 1.3785 28.5634 2.58645 28.5634H3.90421C5.00234 28.5634 5.99065 27.6849 5.99065 26.477V25.7083L7.41822 26.1475C10.9322 27.3555 14.6659 27.9046 18.3995 27.9046C19.278 27.9046 20.486 27.2457 20.486 26.3672V25.9279C20.486 25.0494 19.278 24.3905 18.3995 24.3905H16.8621H20.7056C21.5841 24.3905 22.243 23.7317 22.243 22.8532C22.243 21.9747 21.5841 21.3158 20.7056 21.3158H16.8621H22.4626C23.3411 21.3158 24 20.6569 24 19.7784V19.3391C24 18.4606 23.3411 17.8018 22.4626 17.8018H16.8621H21.5841C22.4626 17.8018 23.1215 17.1429 23.1215 16.2644V15.8251C23.1215 14.9466 22.4626 14.2877 21.5841 14.2877H16.7523C16.4229 14.2877 16.2033 13.9583 16.3131 13.6289C16.7523 12.8602 17.3014 11.5424 17.3014 9.7854C17.3014 8.9069 16.972 8.1382 16.6425 7.58914C15.9836 6.71063 14.6659 7.14989 14.4463 8.1382C14.1168 9.01671 13.7874 10.3345 13.1285 11.3228C11.8107 13.519 6.42991 14.5074 6.42991 14.5074H0.5V26.6966" stroke="#014C84" stroke-miterlimit="10" stroke-linecap="round" stroke-linejoin="round"/>
<path d="M5.88086 26.6971V14.5078" stroke="#014C84" stroke-miterlimit="10" stroke-linecap="round" stroke-linejoin="round"/>
<path d="M15.3242 4.62383V1" stroke="#1D94DB" stroke-miterlimit="10" stroke-linecap="round" stroke-linejoin="round"/>
<path d="M9.94336 2.75684L12.6887 5.50216" stroke="#1D94DB" stroke-miterlimit="10" stroke-linecap="round" stroke-linejoin="round"/>
<path d="M20.7058 2.75684L18.0703 5.50216" stroke="#1D94DB" stroke-miterlimit="10" stroke-linecap="round" stroke-linejoin="round"/>
<path d="M11.7015 8.24805H8.1875" stroke="#1D94DB" stroke-miterlimit="10" stroke-linecap="round" stroke-linejoin="round"/>
<path d="M22.5731 8.24805H18.9492" stroke="#1D94DB" stroke-miterlimit="10" stroke-linecap="round" stroke-linejoin="round"/>
<path d="M3.24374 25.7082C3.72892 25.7082 4.12224 25.3149 4.12224 24.8297C4.12224 24.3445 3.72892 23.9512 3.24374 23.9512C2.75855 23.9512 2.36523 24.3445 2.36523 24.8297C2.36523 25.3149 2.75855 25.7082 3.24374 25.7082Z" fill="#014C84"/>
</svg>
