<svg width="29" height="26" viewBox="0 0 29 26" fill="none" xmlns="http://www.w3.org/2000/svg">
<path d="M7.06122 20.8643H2.98367C1.88163 20.8643 1 20.0929 1 19.101V8.19082C1 7.41939 1.44082 6.64796 2.10204 6.09694L8.38367 1.57857C9.37551 0.807143 10.9184 0.807143 11.9102 1.57857L18.1918 6.09694C18.8531 6.64796 19.2939 7.41939 19.2939 8.19082V11.4969" stroke="#014C84" stroke-miterlimit="10" stroke-linecap="round" stroke-linejoin="round"/>
<path d="M11.4697 24.7216C12.687 24.7216 13.6738 23.7348 13.6738 22.5176C13.6738 21.3003 12.687 20.3135 11.4697 20.3135C10.2524 20.3135 9.26562 21.3003 9.26562 22.5176C9.26562 23.7348 10.2524 24.7216 11.4697 24.7216Z" stroke="#014C84" stroke-miterlimit="10" stroke-linecap="round" stroke-linejoin="round"/>
<path d="M22.4912 24.7216C23.7085 24.7216 24.6953 23.7348 24.6953 22.5176C24.6953 21.3003 23.7085 20.3135 22.4912 20.3135C21.2739 20.3135 20.2871 21.3003 20.2871 22.5176C20.2871 23.7348 21.2739 24.7216 22.4912 24.7216Z" stroke="#014C84" stroke-miterlimit="10" stroke-linecap="round" stroke-linejoin="round"/>
<path d="M9.26658 22.5175H7.0625V11.4971H21.389V13.7012H25.7972L28.0013 18.1093V22.5175H24.6952" stroke="#014C84" stroke-miterlimit="10" stroke-linecap="round" stroke-linejoin="round"/>
<path d="M13.6738 22.5176H20.2861" stroke="#014C84" stroke-miterlimit="10" stroke-linecap="round" stroke-linejoin="round"/>
<path d="M3.97461 20.8639V8.19043H16.9787V11.4966" stroke="#1D94DB" stroke-miterlimit="10" stroke-linecap="round" stroke-linejoin="round"/>
</svg>
