<svg width="38" height="38" viewBox="0 0 38 38" fill="none" xmlns="http://www.w3.org/2000/svg">
<path fill-rule="evenodd" clip-rule="evenodd" d="M19.2951 1C9.55738 1 1.64918 8.86949 1.64918 18.5595C1.64918 21.907 2.59344 24.9609 4.18688 27.6036L1 37L10.7967 33.8874C13.3344 35.2969 16.2262 36.0604 19.3541 36.0604C29.0918 36.0604 37 28.1909 37 18.5008C36.941 8.86949 29.0328 1 19.2951 1Z" stroke="white" stroke-opacity="0.46" stroke-width="1.5" stroke-linejoin="round"/>
<path fill-rule="evenodd" clip-rule="evenodd" d="M26.2174 21.0599C25.8731 20.871 24.053 19.9264 23.7087 19.7847C23.3643 19.643 23.1184 19.5958 22.8724 19.9264C22.6265 20.257 21.8394 21.0599 21.6427 21.2961C21.3967 21.5322 21.2 21.5322 20.8064 21.3433C20.4621 21.1544 19.2324 20.7293 17.855 19.4541C16.7728 18.4623 16.0842 17.2343 15.8874 16.9037C15.6907 16.5259 15.8874 16.3369 16.0842 16.1953C16.2809 16.0536 16.4777 15.7702 16.6745 15.5813C16.8712 15.3924 16.9204 15.2507 17.068 15.0145C17.2156 14.7784 17.1664 14.5895 17.068 14.4005C16.9696 14.2116 16.2809 12.4169 16.035 11.6612C15.7398 10.9055 15.4447 11.0472 15.1988 11.0472C15.002 11.0472 14.7069 11 14.4609 11C14.2149 11 13.8214 11.0472 13.4279 11.4251C13.0836 11.7557 12.0506 12.6058 12.0014 14.4005C11.9522 16.1953 13.2311 17.9428 13.3787 18.1789C13.5755 18.4151 15.8382 22.2879 19.5767 23.8465C23.3152 25.405 23.3643 24.9327 24.053 24.9327C24.7417 24.8855 26.3158 24.1298 26.6601 23.3269C27.0044 22.4768 27.0536 21.7684 26.9552 21.6267C26.8077 21.3905 26.5617 21.2488 26.2174 21.0599Z" fill="white"/>
</svg>
