<svg width="19" height="19" viewBox="0 0 19 19" fill="none" xmlns="http://www.w3.org/2000/svg">
<path d="M6 1L6 18" stroke="#4F6688" stroke-miterlimit="10" stroke-linecap="round" stroke-linejoin="round"/>
<path d="M13 1L13 18" stroke="#4F6688" stroke-miterlimit="10" stroke-linecap="round" stroke-linejoin="round"/>
<path d="M9.5 1L9.5 16" stroke="#4F6688" stroke-miterlimit="10" stroke-linecap="round" stroke-linejoin="round"/>
<path d="M1 9.5L18 9.5" stroke="#4F6688" stroke-miterlimit="10" stroke-linecap="round" stroke-linejoin="round"/>
<path d="M1 13L18 13" stroke="#4F6688" stroke-miterlimit="10" stroke-linecap="round" stroke-linejoin="round"/>
<path d="M1 6L18 6" stroke="#4F6688" stroke-miterlimit="10" stroke-linecap="round" stroke-linejoin="round"/>
<path d="M16.9 18H2.1C1.5 18 1 17.5 1 16.9V2.1C1 1.5 1.5 1 2.1 1H16.9C17.5 1 18 1.5 18 2.1V16.9C18 17.5 17.5 18 16.9 18Z" stroke="#4F6688" stroke-miterlimit="10" stroke-linecap="round" stroke-linejoin="round"/>
<path d="M16 3H3V16H16V3Z" stroke="#4F6688" stroke-miterlimit="10" stroke-linecap="round" stroke-linejoin="round"/>
</svg>
