<svg width="24" height="22" viewBox="0 0 24 22" fill="none" xmlns="http://www.w3.org/2000/svg">
<path d="M3.3 20.1L3.05279 19.9146L2.77639 20.0528L0.5 21.191V0.5H23V21.1169L21.2572 20.0713L20.9225 19.8704L20.6464 20.1464L19.4225 21.3704L17.2572 20.0713L17 19.9169L16.7428 20.0713L14.5 21.4169L12.2572 20.0713L12 19.9169L11.7428 20.0713L9.53104 21.3983L7.8 20.1L7.53104 19.8983L7.24275 20.0713L5.03104 21.3983L3.3 20.1Z" stroke="#014C84"/>
<path d="M3 4H10" stroke="#014C84"/>
<path d="M3 13H20" stroke="#014C84"/>
<path d="M12 4H20" stroke="#014C84"/>
<path d="M3 7H9" stroke="#014C84"/>
<path d="M3 15H17" stroke="#014C84"/>
<path d="M12 7H17" stroke="#014C84"/>
</svg>
