<svg width="21" height="20" viewBox="0 0 21 20" fill="none" xmlns="http://www.w3.org/2000/svg">
<path d="M2.5 10H20.5" stroke="#4F6688" stroke-width="2"/>
<path d="M9.16527 18.9787C9.54915 19.3757 10.1716 19.3757 10.5554 18.9787C10.9393 18.5816 10.9393 17.9379 10.5554 17.5408L9.16527 18.9787ZM2.00015 10.1299L1.30507 9.41096L0.609984 10.1299L1.30507 10.8488L2.00015 10.1299ZM10.5554 2.71894C10.9393 2.32188 10.9393 1.67813 10.5554 1.28108C10.1716 0.884023 9.54915 0.884023 9.16527 1.28108L10.5554 2.71894ZM10.5554 17.5408L2.69523 9.41096L1.30507 10.8488L9.16527 18.9787L10.5554 17.5408ZM2.69523 10.8488L10.5554 2.71894L9.16527 1.28108L1.30507 9.41096L2.69523 10.8488Z" fill="#4F6688"/>
</svg>
