<svg width="9" height="11" viewBox="0 0 9 11" fill="none" xmlns="http://www.w3.org/2000/svg">
<path d="M0.317456 6.83888L2.79328 9.76698L5.26911 6.83888L0.317456 6.83888Z" fill="#252627"/>
<path d="M2.73633 9.12328L2.73633 0" stroke="#252627"/>
<path d="M8.59259 4.20215L8.1713 2.93512H6.81481L6.39815 4.20215H6L7.33796 0.202148H7.66898L9 4.20215H8.59259ZM8.04861 2.51822L7.65509 1.28389C7.60417 1.12767 7.5517 0.936027 7.49769 0.70896C7.46373 0.883347 7.41512 1.07499 7.35185 1.28389L6.9537 2.51822H8.04861Z" fill="#252627"/>
<path d="M7.66698 8.5332L6.57374 10.2021H6L7.17031 8.45386C6.86394 8.36084 6.64129 8.22039 6.50238 8.03252C6.36346 7.84282 6.29401 7.60388 6.29401 7.31569C6.29401 6.95819 6.42245 6.68368 6.67935 6.49216C6.93815 6.29882 7.32921 6.20215 7.85252 6.20215H9V10.2021H8.51475V8.5332H7.66698ZM8.51475 6.60434H7.86679C7.51855 6.60434 7.25404 6.66179 7.07326 6.7767C6.89248 6.89161 6.80209 7.07857 6.80209 7.33758C6.80209 7.86836 7.1627 8.13375 7.88392 8.13375H8.51475V6.60434Z" fill="#252627"/>
</svg>
