<svg width="13" height="15" viewBox="0 0 13 15" fill="none" xmlns="http://www.w3.org/2000/svg">
<path d="M8.66642 13.3048C8.30372 13.3079 7.8665 13.241 7.43917 13.1117C6.86737 12.9391 6.34195 12.6722 5.84315 12.3468C5.53064 12.143 5.23181 11.9202 4.94971 11.6769C4.74441 11.5005 4.54291 11.3195 4.34901 11.1309C4.13383 10.9218 3.92473 10.7066 3.72095 10.4869C3.41071 10.1523 3.11721 9.80256 2.83815 9.44138C2.57278 9.09845 2.32338 8.74564 2.09527 8.37686C1.76603 7.84536 1.48545 7.28952 1.28547 6.69567C1.17902 6.38164 1.09842 6.06152 1.05051 5.73228C1.01478 5.48364 0.995007 5.23499 1.00109 4.98407C1.01326 4.48831 1.10678 4.00851 1.30144 3.55001C1.43754 3.22989 1.61547 2.93562 1.8375 2.66721C2.01239 2.45583 2.21084 2.26954 2.42907 2.10302C2.54237 2.01633 2.64578 1.91672 2.75223 1.82168C2.88301 1.70534 3.01988 1.59813 3.18792 1.54034C3.39931 1.46734 3.60005 1.49624 3.79242 1.60421C3.99772 1.71979 4.15588 1.88859 4.30035 2.07032C4.51706 2.34253 4.69042 2.64364 4.87823 2.93562C4.99989 3.1242 5.11167 3.31885 5.20291 3.52415C5.28732 3.71425 5.35271 3.90966 5.37248 4.11648C5.40365 4.43964 5.32001 4.73011 5.0957 4.96734C4.96416 5.10649 4.81284 5.22663 4.67293 5.35894C4.53607 5.48896 4.37335 5.58553 4.22507 5.70034C4.06464 5.82504 3.94298 5.97788 3.89051 6.17862C3.85021 6.33221 3.85325 6.48581 3.88139 6.64016C3.93157 6.91466 4.04639 7.16482 4.18097 7.40586C4.38779 7.7754 4.641 8.11149 4.90941 8.43693C5.18086 8.76617 5.466 9.08325 5.77548 9.37751C6.05301 9.64212 6.34576 9.88848 6.68716 10.0694C6.88486 10.1736 7.09168 10.2497 7.31979 10.2512C7.52433 10.2519 7.70454 10.1858 7.8589 10.055C7.94634 9.98125 8.02238 9.89304 8.10526 9.81396C8.19651 9.72652 8.28775 9.63908 8.38356 9.5562C8.50598 9.44898 8.62916 9.34101 8.75842 9.24292C8.91734 9.12278 9.09907 9.05283 9.29829 9.03534C9.4937 9.01785 9.68228 9.05511 9.86476 9.12659C10.1073 9.22239 10.3271 9.3585 10.5286 9.52122C10.7635 9.71131 10.9909 9.90977 11.2213 10.1052C11.3817 10.2413 11.5345 10.385 11.6699 10.547C11.7954 10.6968 11.9048 10.8557 11.9642 11.045C12.0402 11.2853 11.9923 11.502 11.8486 11.7035C11.7703 11.8137 11.6684 11.9012 11.568 11.9902C11.4281 12.1149 11.2882 12.2388 11.1506 12.3658C10.9513 12.5498 10.7316 12.7064 10.4959 12.8395C10.1712 13.0227 9.82522 13.1497 9.46025 13.2258C9.22757 13.2752 8.99034 13.2988 8.66642 13.3048Z" stroke="#014C84" stroke-width="1.5"/>
</svg>
