<svg width="25" height="28" viewBox="0 0 25 28" fill="none" xmlns="http://www.w3.org/2000/svg">
<path d="M23.1689 23.2236C18.0663 28.3262 9.75966 28.3262 4.65704 23.2236C-0.445577 18.1209 -0.445577 9.81435 4.65704 4.71173C9.75966 -0.39089 18.0663 -0.39089 23.1689 4.71173" stroke="#014C84" stroke-miterlimit="10" stroke-linecap="round" stroke-linejoin="round"/>
<path d="M19.7285 21.0873H8.09929C7.26863 21.0873 6.55664 20.494 6.55664 19.6634V10.8821C6.55664 10.1701 6.91264 9.57678 7.50597 9.22078L12.6086 5.66082C13.4392 5.06749 14.6259 5.06749 15.4566 5.66082L20.5592 9.22078C21.1525 9.57678 21.5085 10.2888 21.5085 10.8821V19.6634C21.2712 20.494 20.5592 21.0873 19.7285 21.0873Z" stroke="#014C84" stroke-miterlimit="10" stroke-linecap="round" stroke-linejoin="round"/>
<path d="M13.9141 11.001V16.9343" stroke="#1D94DB" stroke-miterlimit="10" stroke-linecap="round" stroke-linejoin="round"/>
<path d="M16.8805 13.9678H10.9473" stroke="#1D94DB" stroke-miterlimit="10" stroke-linecap="round" stroke-linejoin="round"/>
<path d="M23.999 1.50781V5.66111H19.8457" stroke="#014C84" stroke-miterlimit="10" stroke-linecap="round" stroke-linejoin="round"/>
</svg>
