<svg width="36" height="36" viewBox="0 0 36 36" fill="none" xmlns="http://www.w3.org/2000/svg">
<path fill-rule="evenodd" clip-rule="evenodd" d="M18.2951 0C8.55738 0 0.649184 7.86949 0.649184 17.5595C0.649184 20.907 1.59344 23.9609 3.18688 26.6036L0 36L9.79673 32.8874C12.3344 34.2969 15.2262 35.0604 18.3541 35.0604C28.0918 35.0604 36 27.1909 36 17.5008C35.941 7.86949 28.0328 0 18.2951 0Z" fill="white" fill-opacity="0.46"/>
<path fill-rule="evenodd" clip-rule="evenodd" d="M25.2174 20.0599C24.8731 19.871 23.053 18.9264 22.7087 18.7847C22.3643 18.643 22.1184 18.5958 21.8724 18.9264C21.6265 19.257 20.8394 20.0599 20.6427 20.2961C20.3967 20.5322 20.2 20.5322 19.8064 20.3433C19.4621 20.1544 18.2324 19.7293 16.855 18.4541C15.7728 17.4623 15.0842 16.2343 14.8874 15.9037C14.6907 15.5259 14.8874 15.3369 15.0842 15.1953C15.2809 15.0536 15.4777 14.7702 15.6745 14.5813C15.8712 14.3924 15.9204 14.2507 16.068 14.0145C16.2156 13.7784 16.1664 13.5895 16.068 13.4005C15.9696 13.2116 15.2809 11.4169 15.035 10.6612C14.7398 9.90554 14.4447 10.0472 14.1988 10.0472C14.002 10.0472 13.7069 10 13.4609 10C13.2149 10 12.8214 10.0472 12.4279 10.4251C12.0836 10.7557 11.0506 11.6058 11.0014 13.4005C10.9522 15.1953 12.2311 16.9428 12.3787 17.1789C12.5755 17.4151 14.8382 21.2879 18.5767 22.8465C22.3152 24.405 22.3643 23.9327 23.053 23.9327C23.7417 23.8855 25.3158 23.1298 25.6601 22.3269C26.0044 21.4768 26.0536 20.7684 25.9552 20.6267C25.8077 20.3905 25.5617 20.2488 25.2174 20.0599Z" fill="white"/>
</svg>
