<svg width="25" height="22" viewBox="0 0 25 22" fill="none" xmlns="http://www.w3.org/2000/svg">
<path d="M2.27637 8.96618V1.2002H4.29765V6.83852" stroke="#4F6688" stroke-miterlimit="10" stroke-linecap="round" stroke-linejoin="round"/>
<path d="M4.29765 17.4766V20.1361H2.27637V17.4766" stroke="#4F6688" stroke-miterlimit="10" stroke-linecap="round" stroke-linejoin="round"/>
<path d="M1 17.2638H10.5745V16.8383V14.7106V14.1787H7.06385V14.7106H1V17.2638Z" stroke="#4F6688" stroke-miterlimit="10" stroke-linecap="round" stroke-linejoin="round"/>
<path d="M1 11.6255V9.07227H3.12767" stroke="#4F6688" stroke-miterlimit="10" stroke-linecap="round" stroke-linejoin="round"/>
<path d="M5.25573 9.07227H10.5749V9.4978V11.6255V12.051H7.06425V11.6255L4.19189 11.0935" stroke="#4F6688" stroke-miterlimit="10" stroke-linecap="round" stroke-linejoin="round"/>
<path d="M13.1283 4.81711C14.1859 4.81711 15.0432 3.95978 15.0432 2.90221C15.0432 1.84464 14.1859 0.987305 13.1283 0.987305C12.0707 0.987305 11.2134 1.84464 11.2134 2.90221C11.2134 3.95978 12.0707 4.81711 13.1283 4.81711Z" stroke="#4F6688" stroke-miterlimit="10" stroke-linecap="round" stroke-linejoin="round"/>
<path d="M21.8509 4.81711C22.9085 4.81711 23.7658 3.95978 23.7658 2.90221C23.7658 1.84464 22.9085 0.987305 21.8509 0.987305C20.7934 0.987305 19.936 1.84464 19.936 2.90221C19.936 3.95978 20.7934 4.81711 21.8509 4.81711Z" stroke="#4F6688" stroke-miterlimit="10" stroke-linecap="round" stroke-linejoin="round"/>
<path d="M14.8296 3.64648L16.9573 15.3487" stroke="#4F6688" stroke-miterlimit="10" stroke-linecap="round" stroke-linejoin="round"/>
<path d="M20.1493 3.64648L17.4897 14.9231L16.6387 15.7742" stroke="#4F6688" stroke-miterlimit="10" stroke-linecap="round" stroke-linejoin="round"/>
<path d="M16.6387 15.7744V19.1787L17.4897 20.9872L18.3408 19.1787V15.7744" stroke="#4F6688" stroke-miterlimit="10" stroke-linecap="round" stroke-linejoin="round"/>
<path d="M2.38256 12.0509C1.95703 11.8381 1.85065 11.3062 2.06341 10.8807L4.93577 5.98706C5.14853 5.56152 5.68045 5.45514 6.10598 5.66791C6.53152 5.88067 6.6379 6.41259 6.42513 6.83812L3.55278 11.7318C3.34002 12.0509 2.8081 12.2637 2.38256 12.0509Z" stroke="#4F6688" stroke-miterlimit="10" stroke-linecap="round" stroke-linejoin="round"/>
<path d="M14.8296 3.64648H16.4253" stroke="#4F6688" stroke-miterlimit="10" stroke-linecap="round" stroke-linejoin="round"/>
<path d="M19.085 3.64648H20.1488" stroke="#4F6688" stroke-miterlimit="10" stroke-linecap="round" stroke-linejoin="round"/>
<path d="M2.06396 12.1572V14.2849" stroke="#4F6688" stroke-miterlimit="10" stroke-linecap="round" stroke-linejoin="round"/>
<path d="M4.19189 12.1572V14.2849" stroke="#4F6688" stroke-miterlimit="10" stroke-linecap="round" stroke-linejoin="round"/>
</svg>
