<svg width="25" height="31" viewBox="0 0 25 31" fill="none" xmlns="http://www.w3.org/2000/svg">
<path d="M20 15L16 15" stroke="#014C84"/>
<path d="M20 13H13" stroke="#014C84"/>
<path d="M8.82979 19H1V1H24V19H18.1277" stroke="#014C84"/>
<path d="M19 23.5L19.3904 23.8123L19.5299 23.638L19.4932 23.4178L19 23.5ZM18.5 30V30.5L18.6374 29.5192L18.5 30ZM12.5 30L12.0333 29.8205L11.772 30.5H12.5V30ZM15 23.5L15.4667 23.6795L15.5311 23.5121L15.4743 23.3419L15 23.5ZM13.5 19L13.9743 18.8419C13.9076 18.6417 13.7223 18.5049 13.5114 18.5001C13.3004 18.4953 13.1091 18.6235 13.0333 18.8205L13.5 19ZM11 25.5L10.7836 25.9507L11.2721 26.1853L11.4667 25.6795L11 25.5ZM5 25L5.32297 25.3817L5 25ZM3.5 28H3L3.98705 28.1131L3.5 28ZM3.5 21.5L3.54975 21.0025L3 20.9475V21.5H3.5ZM8.5 22L8.45025 22.4975L9 22.5525V22H8.5ZM18 18.5C18 19.5324 18.1283 20.8077 18.2539 21.812C18.317 22.3169 18.3801 22.7586 18.4274 23.0742C18.4511 23.232 18.4708 23.3585 18.4847 23.4457C18.4917 23.4894 18.4971 23.5232 18.5009 23.5463C18.5028 23.5578 18.5042 23.5667 18.5052 23.5727C18.5057 23.5757 18.5061 23.578 18.5064 23.5796C18.5065 23.5804 18.5066 23.581 18.5067 23.5814C18.5067 23.5817 18.5067 23.5818 18.5068 23.582C18.5068 23.582 18.5068 23.5821 18.5068 23.5821C18.5068 23.5822 18.5068 23.5822 19 23.5C19.4932 23.4178 19.4932 23.4178 19.4932 23.4178C19.4932 23.4178 19.4932 23.4178 19.4932 23.4178C19.4932 23.4177 19.4932 23.4176 19.4931 23.4175C19.4931 23.4172 19.493 23.4167 19.4929 23.416C19.4927 23.4147 19.4924 23.4127 19.4919 23.41C19.491 23.4045 19.4897 23.3963 19.4879 23.3854C19.4843 23.3635 19.479 23.3309 19.4723 23.2886C19.4588 23.204 19.4395 23.0805 19.4163 22.9258C19.3699 22.6164 19.308 22.1831 19.2461 21.688C19.1217 20.6923 19 19.4676 19 18.5H18ZM19 23.5C18.6096 23.1877 18.6096 23.1877 18.6095 23.1877C18.6095 23.1877 18.6095 23.1878 18.6094 23.1878C18.6094 23.1879 18.6093 23.188 18.6091 23.1882C18.6089 23.1885 18.6085 23.189 18.608 23.1896C18.607 23.1909 18.6055 23.1927 18.6036 23.1952C18.5997 23.2001 18.5939 23.2073 18.5864 23.2167C18.5713 23.2356 18.5491 23.2634 18.5206 23.2993C18.4636 23.3711 18.3812 23.4751 18.2791 23.6046C18.0751 23.8636 17.7926 24.2245 17.4787 24.6326C16.8532 25.4458 16.0942 26.4574 15.584 27.2226L16.416 27.7774C16.9058 27.0426 17.6468 26.0542 18.2713 25.2424C18.5824 24.838 18.8624 24.4802 19.0646 24.2235C19.1657 24.0952 19.2473 23.9922 19.3036 23.9214C19.3317 23.886 19.3535 23.8586 19.3682 23.8402C19.3756 23.8309 19.3812 23.8239 19.3849 23.8193C19.3868 23.8169 19.3882 23.8152 19.3891 23.814C19.3896 23.8134 19.3899 23.813 19.3901 23.8127C19.3902 23.8126 19.3903 23.8125 19.3904 23.8124C19.3904 23.8124 19.3904 23.8124 19.3904 23.8124C19.3904 23.8123 19.3904 23.8123 19 23.5ZM15.584 27.2226C15.4129 27.4793 15.3203 27.754 15.3203 28.0381C15.3203 28.3201 15.4114 28.5718 15.5429 28.7855C15.7959 29.1966 16.2264 29.513 16.6231 29.7444C17.0317 29.9828 17.4667 30.166 17.7932 30.2885C17.9578 30.3502 18.0981 30.3977 18.1979 30.4299C18.2479 30.446 18.2879 30.4584 18.316 30.4669C18.33 30.4712 18.3411 30.4745 18.349 30.4768C18.3529 30.4779 18.356 30.4789 18.3583 30.4795C18.3594 30.4798 18.3604 30.4801 18.3611 30.4803C18.3615 30.4804 18.3618 30.4805 18.362 30.4806C18.3622 30.4806 18.3623 30.4807 18.3624 30.4807C18.3625 30.4807 18.3626 30.4808 18.5 30C18.6374 29.5192 18.6375 29.5193 18.6375 29.5193C18.6376 29.5193 18.6376 29.5193 18.6376 29.5193C18.6377 29.5193 18.6377 29.5193 18.6376 29.5193C18.6375 29.5193 18.6372 29.5192 18.6366 29.519C18.6356 29.5187 18.6337 29.5182 18.631 29.5174C18.6257 29.5158 18.6172 29.5133 18.6059 29.5099C18.5832 29.503 18.549 29.4924 18.5052 29.4783C18.4176 29.45 18.2922 29.4076 18.1443 29.3521C17.8458 29.2402 17.4683 29.0797 17.1269 28.8806C16.7736 28.6745 16.5166 28.4597 16.3946 28.2614C16.3386 28.1704 16.3203 28.0979 16.3203 28.0381C16.3203 27.9804 16.3371 27.8957 16.416 27.7774L15.584 27.2226ZM18.5 29.5H12.5V30.5H18.5V29.5ZM12.9667 30.1795L15.4667 23.6795L14.5333 23.3205L12.0333 29.8205L12.9667 30.1795ZM15.4743 23.3419L13.9743 18.8419L13.0257 19.1581L14.5257 23.6581L15.4743 23.3419ZM13.0333 18.8205L10.5333 25.3205L11.4667 25.6795L13.9667 19.1795L13.0333 18.8205ZM11 25.5C11.2164 25.0493 11.2163 25.0492 11.2161 25.0491C11.2161 25.0491 11.2159 25.049 11.2158 25.049C11.2155 25.0488 11.2152 25.0487 11.2148 25.0485C11.214 25.0481 11.213 25.0476 11.2117 25.047C11.2091 25.0458 11.2055 25.0441 11.2009 25.0419C11.1918 25.0376 11.1787 25.0315 11.1618 25.0237C11.1282 25.0082 11.0795 24.986 11.0175 24.9587C10.8935 24.9041 10.7158 24.8284 10.4974 24.7428C10.0618 24.572 9.45832 24.3593 8.79291 24.195C8.13081 24.0316 7.3868 23.911 6.67594 23.9377C5.96794 23.9644 5.24293 24.1395 4.67703 24.6183L5.32297 25.3817C5.65453 25.1011 6.12825 24.959 6.71352 24.937C7.29595 24.9151 7.93975 25.0145 8.55328 25.1659C9.16351 25.3165 9.72351 25.5135 10.1324 25.6738C10.3363 25.7537 10.5011 25.8239 10.6141 25.8737C10.6706 25.8986 10.714 25.9184 10.7428 25.9317C10.7572 25.9383 10.768 25.9434 10.7748 25.9466C10.7783 25.9482 10.7807 25.9494 10.7822 25.9501C10.7829 25.9504 10.7834 25.9507 10.7837 25.9508C10.7838 25.9508 10.7838 25.9509 10.7838 25.9509C10.7838 25.9508 10.7838 25.9508 10.7838 25.9508C10.7837 25.9508 10.7836 25.9507 11 25.5ZM4.67703 24.6183C4.07428 25.1283 3.66259 25.9827 3.4089 26.6364C3.27734 26.9754 3.17906 27.2854 3.11361 27.5107C3.08081 27.6237 3.05605 27.716 3.0393 27.7808C3.03093 27.8133 3.02455 27.8389 3.02016 27.8569C3.01797 27.8659 3.01627 27.8729 3.01507 27.878C3.01447 27.8805 3.01399 27.8825 3.01364 27.884C3.01346 27.8847 3.01332 27.8854 3.0132 27.8859C3.01315 27.8861 3.0131 27.8863 3.01306 27.8865C3.01303 27.8866 3.01301 27.8867 3.013 27.8867C3.01298 27.8868 3.01295 27.8869 3.5 28C3.98705 28.1131 3.98703 28.1132 3.98701 28.1132C3.98701 28.1132 3.987 28.1133 3.98699 28.1133C3.98698 28.1134 3.98698 28.1134 3.98698 28.1134C3.98699 28.1133 3.98703 28.1132 3.98709 28.1129C3.98723 28.1123 3.98749 28.1112 3.98786 28.1096C3.98862 28.1065 3.98985 28.1013 3.99156 28.0943C3.99498 28.0803 4.00032 28.0588 4.00758 28.0307C4.02209 27.9745 4.04421 27.892 4.07391 27.7897C4.13347 27.5847 4.2227 27.3034 4.34116 26.9982C4.58749 26.3634 4.92579 25.7178 5.32297 25.3817L4.67703 24.6183ZM4 28V21.5H3V28H4ZM3.45025 21.9975L8.45025 22.4975L8.54975 21.5025L3.54975 21.0025L3.45025 21.9975ZM9 22V18H8V22H9Z" fill="#014C84"/>
<path d="M10 1V9L12.5 8.15789L15 9V1" stroke="#014C84"/>
</svg>
