<svg width="15" height="17" viewBox="0 0 15 17" fill="none" xmlns="http://www.w3.org/2000/svg">
<path d="M12.25 9.25V2C12.25 1.44772 11.8023 1 11.25 1H3.5C2.94772 1 2.5 1.44772 2.5 2V6.25" stroke="#009670"/>
<path d="M4.75 4H10" stroke="#009670"/>
<path d="M9.19155 6.25H2C1.44772 6.25 1 6.69772 1 7.25V15C1 15.5523 1.44772 16 2 16H12.75C13.3023 16 13.75 15.5523 13.75 15V11.0485C13.75 10.7945 13.6534 10.5501 13.4798 10.3648L9.92134 6.56633C9.73228 6.36451 9.46809 6.25 9.19155 6.25Z" stroke="#009670" stroke-width="1.5"/>
</svg>
