<svg width="17" height="22" viewBox="0 0 17 22" fill="none" xmlns="http://www.w3.org/2000/svg">
<path d="M1 1V0C0.447715 0 0 0.447715 0 1L1 1ZM14 2C14.5523 2 15 1.55228 15 1C15 0.447715 14.5523 0 14 0V2ZM1 21H0C0 21.3245 0.157437 21.6288 0.422291 21.8162C0.687145 22.0037 1.02649 22.051 1.3325 21.9431L1 21ZM14 21L13.6675 21.9431C13.9735 22.051 14.3129 22.0037 14.5777 21.8162C14.8426 21.6288 15 21.3245 15 21H14ZM7.5 18.7083L7.8325 17.7652C7.61733 17.6894 7.38267 17.6894 7.1675 17.7652L7.5 18.7083ZM15 15.5139C15 14.9616 14.5523 14.5139 14 14.5139C13.4477 14.5139 13 14.9616 13 15.5139H15ZM1 2H14V0H1V2ZM2 21V1H0V21H2ZM14.3325 20.0569L7.8325 17.7652L7.1675 19.6514L13.6675 21.9431L14.3325 20.0569ZM7.1675 17.7652L0.667496 20.0569L1.3325 21.9431L7.8325 19.6514L7.1675 17.7652ZM13 15.5139V21H15V15.5139H13Z" fill="#252627"/>
<path d="M12.5 4L14.0077 6.42487L16.7798 7.10942L14.9395 9.29263L15.145 12.1406L12.5 11.065L9.85497 12.1406L10.0605 9.29263L8.22025 7.10942L10.9923 6.42487L12.5 4Z" fill="#252627"/>
</svg>
