<svg width="21" height="20" viewBox="0 0 21 20" fill="none" xmlns="http://www.w3.org/2000/svg">
<path d="M11.5554 1.28107C11.1716 0.884016 10.5492 0.884016 10.1653 1.28107C9.78139 1.67812 9.78139 2.32188 10.1653 2.71893L11.5554 1.28107ZM18.7206 10.1299L19.4156 10.8488L20.1107 10.1299L19.4156 9.41095L18.7206 10.1299ZM10.1653 17.5408C9.78139 17.9379 9.78139 18.5816 10.1653 18.9787C10.5492 19.3757 11.1716 19.3757 11.5554 18.9787L10.1653 17.5408ZM10.1653 2.71893L18.0255 10.8488L19.4156 9.41095L11.5554 1.28107L10.1653 2.71893ZM18.0255 9.41095L10.1653 17.5408L11.5554 18.9787L19.4156 10.8488L18.0255 9.41095Z" fill="#4F6688"/>
<path d="M0 9.99805H18" stroke="#4F6688" stroke-width="2"/>
</svg>
