<svg width="20" height="20" viewBox="0 0 20 20" fill="none" xmlns="http://www.w3.org/2000/svg">
<path d="M5.5 0.5H16.2929L19.5 3.70711V19.5H5.5V0.5Z" stroke="#4F6688"/>
<rect x="0.000488281" y="7.64209" width="18.0605" height="9.03027" fill="#4F6688"/>
<path d="M3.93538 12.9106H2.44181V11.9686H3.93538C4.16619 11.9686 4.35406 11.931 4.49899 11.8558C4.64392 11.778 4.74993 11.6707 4.81703 11.5338C4.88413 11.3969 4.91768 11.2426 4.91768 11.0708C4.91768 10.8964 4.88413 10.734 4.81703 10.5837C4.74993 10.4334 4.64392 10.3126 4.49899 10.2214C4.35406 10.1301 4.16619 10.0845 3.93538 10.0845H2.86049V15H1.65275V9.13843H3.93538C4.39432 9.13843 4.78751 9.22163 5.11494 9.38803C5.44506 9.55175 5.69734 9.77853 5.87179 10.0684C6.04624 10.3582 6.13347 10.6897 6.13347 11.0628C6.13347 11.4412 6.04624 11.7686 5.87179 12.0451C5.69734 12.3215 5.44506 12.5349 5.11494 12.6852C4.78751 12.8355 4.39432 12.9106 3.93538 12.9106ZM8.76634 15H7.49016L7.49821 14.058H8.76634C9.08304 14.058 9.35008 13.9868 9.56748 13.8446C9.78487 13.6997 9.94859 13.489 10.0586 13.2125C10.1713 12.9361 10.2277 12.602 10.2277 12.2101V11.9243C10.2277 11.6237 10.1955 11.3593 10.1311 11.1312C10.0694 10.9031 9.97677 10.7112 9.85331 10.5555C9.72985 10.3998 9.57821 10.2831 9.39839 10.2053C9.21857 10.1248 9.01192 10.0845 8.77842 10.0845H7.46601V9.13843H8.77842C9.17026 9.13843 9.52856 9.20553 9.85331 9.33972C10.1807 9.47123 10.4639 9.66044 10.7028 9.90736C10.9416 10.1543 11.1255 10.4495 11.2543 10.793C11.3858 11.1339 11.4516 11.5137 11.4516 11.9323V12.2101C11.4516 12.6261 11.3858 13.0059 11.2543 13.3494C11.1255 13.693 10.9416 13.9882 10.7028 14.2351C10.4666 14.4793 10.1834 14.6685 9.85331 14.8027C9.52588 14.9342 9.16356 15 8.76634 15ZM8.17455 9.13843V15H6.96681V9.13843H8.17455ZM13.5369 9.13843V15H12.3292V9.13843H13.5369ZM15.8719 11.6425V12.5845H13.2068V11.6425H15.8719ZM16.1537 9.13843V10.0845H13.2068V9.13843H16.1537Z" fill="white"/>
</svg>
