<svg width="68" height="46" viewBox="0 0 68 46" fill="none" xmlns="http://www.w3.org/2000/svg">
<path d="M35.9379 45.5361C35.9379 43.7405 35.9379 42.0103 35.9379 40.2692C42.8371 39.8557 47.4402 36.4061 49.9104 29.8987C49.3337 29.7681 48.844 29.6701 48.3652 29.5504C42.0754 28.027 37.4941 22.5424 37.0261 15.9915C36.5691 9.61463 40.3995 3.49895 46.352 1.11579C55.5037 -2.55143 65.5805 3.31396 66.8537 13.1077C67.2672 16.2635 66.7666 19.3649 65.9613 22.4118C62.8056 34.295 53.1097 43.1312 40.9872 45.1443C39.4746 45.3946 37.9293 45.4273 36.395 45.5578C36.2535 45.5687 36.112 45.5361 35.9379 45.5361Z" fill="white"/>
<path d="M35.9379 45.5361C35.9379 43.7405 35.9379 42.0103 35.9379 40.2692C42.8371 39.8557 47.4402 36.4061 49.9104 29.8987C49.3337 29.7681 48.844 29.6701 48.3652 29.5504C42.0754 28.027 37.4941 22.5424 37.0261 15.9915C36.5691 9.61463 40.3995 3.49895 46.352 1.11579C55.5037 -2.55143 65.5805 3.31396 66.8537 13.1077C67.2672 16.2635 66.7666 19.3649 65.9613 22.4118C62.8056 34.295 53.1097 43.1312 40.9872 45.1443C39.4746 45.3946 37.9293 45.4273 36.395 45.5578C36.2535 45.5687 36.112 45.5361 35.9379 45.5361Z" fill="#6AC1F0"/>
<path d="M0.000499725 45.5576C0.000499884 43.7403 0.000500035 42.0101 0.000500188 40.269C6.89968 39.8555 11.5028 36.4059 13.973 29.9202C13.7336 29.8549 13.5921 29.8005 13.4398 29.7787C6.33382 28.5055 1.14311 22.4116 1.05606 15.2404C0.969001 8.00388 5.9856 1.7685 13.048 0.310316C21.808 -1.49609 30.2633 4.7937 30.9706 13.6952C31.3189 18.0588 30.383 22.2484 28.7398 26.2639C24.0497 37.7552 13.0045 45.3073 0.577244 45.5576C0.403131 45.5576 0.21814 45.5576 0.000499725 45.5576Z" fill="white"/>
<path d="M0.000499725 45.5576C0.000499884 43.7403 0.000500035 42.0101 0.000500188 40.269C6.89968 39.8555 11.5028 36.4059 13.973 29.9202C13.7336 29.8549 13.5921 29.8005 13.4398 29.7787C6.33382 28.5055 1.14311 22.4116 1.05606 15.2404C0.969001 8.00388 5.9856 1.7685 13.048 0.310316C21.808 -1.49609 30.2633 4.7937 30.9706 13.6952C31.3189 18.0588 30.383 22.2484 28.7398 26.2639C24.0497 37.7552 13.0045 45.3073 0.577244 45.5576C0.403131 45.5576 0.21814 45.5576 0.000499725 45.5576Z" fill="#6AC1F0"/>
</svg>
