<svg width="28" height="29" viewBox="0 0 28 29" fill="none" xmlns="http://www.w3.org/2000/svg">
<path d="M13.1508 2.36587C13.542 1.73656 14.458 1.73656 14.8492 2.36587L18.4758 8.19871C18.6135 8.42013 18.8322 8.57903 19.0853 8.64153L25.7533 10.2882C26.4728 10.4658 26.7558 11.3369 26.2782 11.9035L21.8515 17.155C21.6835 17.3544 21.5999 17.6115 21.6187 17.8715L22.1132 24.7221C22.1665 25.4612 21.4256 25.9995 20.7391 25.7204L14.3767 23.1332C14.1352 23.035 13.8648 23.035 13.6233 23.1332L7.26089 25.7204C6.57444 25.9995 5.83345 25.4612 5.8868 24.7221L6.38129 17.8715C6.40006 17.6115 6.31653 17.3544 6.14849 17.155L1.7218 11.9035C1.2442 11.3369 1.52724 10.4658 2.24666 10.2882L8.91469 8.64153C9.16782 8.57903 9.38652 8.42013 9.52418 8.19871L13.1508 2.36587Z" stroke="#252627" stroke-width="2"/>
<path d="M11.5 14.5L13.5 16.5L17.5 12.5" stroke="#252627" stroke-width="2" stroke-linecap="round" stroke-linejoin="round"/>
</svg>
