<svg width="126" height="100" viewBox="0 0 126 100" fill="none" xmlns="http://www.w3.org/2000/svg">
<path d="M17.0003 6.99995L25.5003 12.5L25.5003 11C25.5003 10.2 26.8336 9.66667 27.5003 9.5C33.8336 14.3333 46.6003 24 47.0003 24C47.4003 24 47.167 21.6667 47.0003 20.5L48.0003 16.5H48.5003C48.667 16.3333 49.1003 16 49.5003 16C49.9003 16 50.3336 16.3333 50.5003 16.5L51.5003 17L51.0003 21.5L52.0003 21L54.5003 18.5C53.167 17.3333 50.3003 14.8 49.5003 14C48.5003 13 46.5003 14.5 45.5003 15L43.5003 16C38.8336 12.6667 29.3003 5.8 28.5003 5C27.5003 4 23.0003 1.49995 21.0003 0.999954C19.0003 0.499954 18.0003 2.99995 17.0003 3.99995C16.2003 4.79995 16.667 6.33329 17.0003 6.99995Z" fill="#02C392"/>
<path d="M46.5 24L39 18L40 20.5C42.1667 22.3333 46.5 26.1 46.5 26.5C46.5 27 50.5 24 50.5 23.5C50.5 23.1 52.5 22 53.5 21.5L54 19.5L46.5 24Z" fill="#02C392"/>
<path d="M5.5 19.5C3.9 18.3 3.16667 16.6667 3 16L10.6509 21.6617C10.7884 21.6022 10.91 21.545 11 21.5C14.3333 23.6667 21.2 28.4 22 30C22.016 30.032 22.0318 30.0637 22.0473 30.095L28 34.5C28.5 34.8333 29.7 35.5 30.5 35.5C31.3 35.5 32.1667 34.8333 32.5 34.5V36C32 36.3333 30.7 37.1 29.5 37.5C28.3 37.9 24.6667 34.3333 23 32.5C23 32.3367 22.8079 31.6291 22.0473 30.095L10.6509 21.6617C10.2793 21.8224 9.79197 22 9.5 22C9 22 7.5 21 5.5 19.5Z" fill="#02C392"/>
<path d="M50.5 92.5C48.1241 92.1606 46 90.3333 45.5 89C45.5 94 51.5 94.5 55 94C60.3127 93.241 71.7322 81.7678 73.5 80C75.5 78 79 78.5 82.5 76.5C85.3 74.9 85.6667 71.1667 85.5 69.5C90.3333 66.1667 100.6 59.1 103 57.5C105.4 55.9 108.667 54.1667 110 53.5C109.333 53.6667 107.9 54 107.5 54C107 54 87.2649 66.5513 86 67.5C84 69 84.5 72.5 82.5 74.5C81.7094 75.2906 78.5 76 75 77.5C71.5 79 61.4174 89.3496 59.5 90.5C57 92 54 93 50.5 92.5Z" fill="#02C392"/>
<path d="M8.5 61.5002C6.1 62.7002 2.83333 61.6668 1.5 61.0002C2 62.5001 5 63.0002 7 62.5002C9 62.0002 12.5 60.5002 13.5 60.0002C14.5 59.5002 15.5 59.0002 16.5 59.5002C17.3 59.9002 21.8333 63.6669 24 65.5002V65.0002C22 63.0002 17.7 58.9002 16.5 58.5002C15 58.0002 11.5 60.0002 8.5 61.5002Z" fill="#02C392"/>
<path d="M43 45C41 45.8 25.8333 53.6667 18.5 57.5C18.7216 57.2784 18.9645 56.7709 21 55.5C23.5567 53.9037 28.2162 51.3919 31 50C35 48 48 42.3333 54 40L55.5 40.5L55 41H54C51.1667 42 45 44.2 43 45Z" fill="#02C392"/>
<path d="M57.5 40.5L68 36.5C67.3333 37 65.9 38.1 65.5 38.5C65.1 38.9 61 40.3333 59 41C58.3333 41.3333 56.6 42.3 55 43.5C53 45 45 52.5 44 54C43.2 55.2 35.3333 64.1667 31.5 68.5L31 69C33 66.1667 37.7 59.7 40.5 56.5C43.3 53.3 52 45.1667 56 41.5L57.5 40.5Z" fill="#02C392"/>
<path d="M25.5 66.9995L28.5 68.4995C28.5 68.0995 26.5 66.6662 25.5 65.9995V66.9995Z" fill="#02C392"/>
<path d="M110 27.4995L81 42.9995C84.1667 41.4995 90.8 38.2995 92 37.4995C93.5 36.4995 105 30.9995 108 28.9995C110.4 27.3995 111.667 27.9995 112 28.4995C112.833 29.4995 115.2 31.5995 118 31.9995C120.8 32.3995 123.167 30.4995 124 29.4995C123.333 29.8328 121.7 30.5995 120.5 30.9995C119 31.4995 114.5 30.9995 113.5 28.9995C112.7 27.3995 110.833 27.3328 110 27.4995Z" fill="#02C392"/>
<path d="M101.5 14.4995C99.9 14.8995 99.1667 16.3328 99 16.9995C98 15.4994 100 14.9995 101 13.9995C101.8 13.1995 104 13.3328 105 13.4995C104.5 13.6661 103.1 14.0995 101.5 14.4995Z" fill="#02C392"/>
<path d="M32 32L32.5 32.5L44.5 24V23.5L32 32Z" fill="#02C392"/>
<path d="M71.5 4.5L53.5 17L54 18L71.5 5.5V4.5Z" fill="#02C392"/>
<path d="M48.0003 16.5H49.0003L51.5003 17L50.5003 20C50.167 20.5 49.4003 21.8 49.0003 23C48.5003 24.5 47.5003 32.5 47.0003 34.5C46.5003 36.5 46.5003 38.5 44.5003 38C42.9003 37.6 43.3336 35.5 43.5003 35C44.667 31.8333 46.6003 25.5 47.0003 23.5C47.4003 21.5 46.8336 20.3333 46.5003 20L48.0003 16.5Z" fill="white"/>
<path d="M106.964 52.1335C106.964 52.1335 108.766 50.8615 109.084 50.6495C109.296 50.5435 109.932 49.6955 109.932 48.7415C109.932 47.7875 110.462 38.3535 110.462 38.3535L112.9 39.2015C112.9 39.2015 113.536 39.6255 113.536 40.8975C113.536 42.1695 112.9 49.3775 112.9 50.1195C112.9 50.8615 112.794 51.8155 112.052 52.3455C111.31 52.8755 110.25 53.5115 110.25 53.5115C110.25 53.5115 108.342 53.1935 106.752 54.1475C105.162 55.1015 86.1883 67.2915 85.0223 68.2455C83.7503 69.3055 84.9163 72.5914 82.5843 74.2874C80.2523 75.9834 77.2843 75.6654 74.3163 77.9974C71.3483 80.4354 60.5363 89.6574 59.3704 90.6114C57.2504 92.4134 52.1624 94.2154 48.0284 91.3534C43.3644 88.0674 47.4984 85.8414 49.4064 84.5694C50.8904 83.6154 69.2283 74.3934 70.1823 73.6514C71.9843 72.3794 71.4543 70.1534 74.3163 68.5635C77.2843 66.9735 82.0543 68.3515 84.0683 67.0795C86.0823 65.8075 104.95 54.5715 105.904 53.9355C106.54 53.5115 106.964 52.7695 106.964 52.1335Z" stroke="#043F98" stroke-width="0.5" stroke-miterlimit="10" stroke-linejoin="round"/>
<path d="M109.72 37.6113L109.614 38.1413L112.688 39.3073L112.9 38.7773L109.72 37.6113Z" fill="white" stroke="#043F98" stroke-width="0.5" stroke-miterlimit="10" stroke-linejoin="round"/>
<path d="M113.006 38.8838C113.006 38.8838 113.96 39.0958 113.854 40.5798C113.748 42.0638 113.112 50.4378 113.112 51.0738C113.112 51.7098 112.9 52.2398 112.37 52.6638C111.84 52.9818 110.038 54.1478 110.038 54.1478L110.144 53.7238" stroke="#043F98" stroke-width="0.5" stroke-miterlimit="10" stroke-linejoin="round"/>
<path d="M74.6343 69.1997C76.2243 68.4577 79.8283 67.9278 81.9483 69.6237C83.9623 71.2137 83.4323 73.4397 81.5243 74.4997C79.6163 75.5597 75.8003 75.7717 73.7863 73.9697C72.1963 72.4857 72.0903 70.3657 74.6343 69.1997Z" stroke="#043F98" stroke-width="0.5" stroke-miterlimit="10" stroke-linejoin="round"/>
<path d="M72.7266 72.3793C72.7266 71.5313 73.2566 70.5773 74.6346 70.0473C76.2246 69.3053 79.6165 68.8813 81.6305 70.4713C82.6905 71.3193 83.0085 72.2733 82.7965 73.1213" stroke="#043F98" stroke-width="0.5" stroke-miterlimit="10" stroke-linejoin="round"/>
<path d="M45.8023 88.1732C45.8023 88.2792 44.6363 90.2932 46.7563 92.0952C48.8763 93.7912 54.0703 96.1232 58.9463 92.4132C63.8223 88.7032 73.5743 79.7992 74.7403 79.0572C76.8603 77.6792 79.5103 78.3152 82.3723 76.4072C85.9763 73.9692 84.2803 70.3652 85.4463 69.4112C86.6123 68.4572 106.646 55.2072 107.706 54.6772C108.978 54.0413 110.038 54.1472 110.038 54.1472" stroke="#043F98" stroke-width="0.5" stroke-miterlimit="10" stroke-linejoin="round"/>
<path d="M70.3938 75.6656C68.8038 76.4076 51.4198 85.6296 50.4658 86.1596C49.5118 86.6896 46.6498 87.8556 48.5578 90.2936C50.4658 92.7315 55.0238 91.9895 57.6738 90.1875C60.3238 88.4915 72.0898 77.7856 72.5138 77.4676C72.9378 77.1496 73.5738 75.8776 72.9378 75.4536C72.3018 74.9236 71.1358 75.3476 70.3938 75.6656Z" stroke="#043F98" stroke-width="0.5" stroke-miterlimit="10" stroke-linejoin="round"/>
<path d="M80.6828 92.9545C80.6828 92.9545 85.5588 89.9865 86.3008 89.2445C87.0428 88.5025 90.0108 85.4285 92.3428 84.1565C94.6748 82.8845 106.335 77.7965 109.197 76.2065C112.059 74.6165 115.345 72.0725 117.253 73.3445C119.055 74.6165 117.783 76.1005 115.133 77.2665C112.483 78.4325 106.971 80.8705 104.003 82.6725C101.035 84.4745 94.2508 88.1845 92.4488 88.8205C90.6468 89.4565 87.0428 90.0925 84.9228 91.1525C82.9088 92.2125 81.2128 93.3785 81.2128 93.3785C81.2128 93.3785 80.2588 93.2725 80.6828 92.9545Z" stroke="#043F98" stroke-width="0.25" stroke-miterlimit="10" stroke-linejoin="round"/>
<path d="M117.359 73.6621C119.161 74.9341 117.677 76.6301 115.027 77.7961C112.377 78.9621 106.865 81.4001 103.897 83.2021C100.929 85.0041 94.1447 88.7141 92.3427 89.3501C90.5407 89.9861 86.9367 90.6221 84.8167 91.6821C82.6967 92.7421 81.1067 93.9081 81.1067 93.9081C81.1067 93.9081 80.6827 93.8021 80.5767 93.5901C80.4707 93.4841 80.4707 93.3781 80.4707 93.0601" stroke="#043F98" stroke-width="0.25" stroke-miterlimit="10" stroke-linejoin="round"/>
<path d="M113.543 78.3262C113.437 78.4322 107.607 81.6122 103.367 85.0042C99.1268 88.5021 94.9928 92.2121 90.9648 93.6961C86.9369 95.1801 84.3929 96.4521 83.2269 97.1941C81.9549 97.9361 80.5769 98.9961 80.5769 98.9961L80.0469 98.5721C80.0469 98.5721 81.7429 97.5121 83.0149 96.5581C84.2869 95.7101 87.3609 92.3181 88.2089 91.3641C89.0569 90.4101 89.4809 90.0921 89.4809 90.0921" stroke="#043F98" stroke-width="0.25" stroke-miterlimit="10" stroke-linejoin="round"/>
<path d="M114.921 77.6904C114.815 77.7964 107.607 81.9304 103.367 85.4284C99.1271 88.9264 94.9931 92.6364 90.9651 94.1204C86.9371 95.6044 84.3931 96.8764 83.2271 97.6184C81.9551 98.3604 80.5771 99.4204 80.5771 99.4204L80.0471 98.9964C79.9411 98.8904 80.0471 98.5724 80.0471 98.5724" stroke="#043F98" stroke-width="0.25" stroke-miterlimit="10" stroke-linejoin="round"/>
<path d="M88.4209 87.124C88.4209 87.124 91.0709 88.714 91.1769 88.926C91.3889 89.138 91.3889 89.562 91.3889 89.562" stroke="#043F98" stroke-width="0.25" stroke-miterlimit="10" stroke-linejoin="round"/>
<path d="M88.8447 86.8057C88.8447 86.8057 91.6007 88.5017 91.7067 88.7137C91.9187 88.9257 91.9187 89.4557 91.9187 89.4557" stroke="#043F98" stroke-width="0.25" stroke-miterlimit="10" stroke-linejoin="round"/>
<path d="M89.2686 86.4883C89.2686 86.4883 92.1306 88.2903 92.2366 88.3963C92.4486 88.6083 92.4485 89.1383 92.4485 89.1383" stroke="#043F98" stroke-width="0.25" stroke-miterlimit="10" stroke-linejoin="round"/>
<path d="M89.6934 86.1699C89.6934 86.1699 92.6614 88.0779 92.7674 88.1839C92.9794 88.3959 92.9794 88.9259 92.9794 88.9259" stroke="#043F98" stroke-width="0.25" stroke-miterlimit="10" stroke-linejoin="round"/>
<path d="M90.1172 85.8516C90.1172 85.8516 93.1912 87.8656 93.2972 87.9716C93.5092 88.1836 93.5092 88.7136 93.5092 88.7136" stroke="#043F98" stroke-width="0.25" stroke-miterlimit="10" stroke-linejoin="round"/>
<path d="M90.541 85.4277C90.541 85.4277 93.721 87.4417 93.827 87.6537C94.039 87.8657 94.039 88.3957 94.039 88.3957" stroke="#043F98" stroke-width="0.25" stroke-miterlimit="10" stroke-linejoin="round"/>
<path d="M90.9648 85.1104C90.9648 85.1104 94.2508 87.2304 94.3568 87.4424C94.5688 87.6544 94.5688 88.2903 94.5688 88.2903" stroke="#043F98" stroke-width="0.25" stroke-miterlimit="10" stroke-linejoin="round"/>
<path d="M91.3887 84.792C91.3887 84.792 94.7807 87.018 94.8867 87.124C95.0987 87.336 95.0987 87.972 95.0987 87.972" stroke="#043F98" stroke-width="0.25" stroke-miterlimit="10" stroke-linejoin="round"/>
<path d="M101.884 79.7041C101.884 79.7041 104.64 81.5061 104.852 81.6121C105.064 81.8241 105.064 82.3541 105.064 82.3541" stroke="#043F98" stroke-width="0.25" stroke-miterlimit="10" stroke-linejoin="round"/>
<path d="M101.46 80.0225C101.46 80.0225 104.216 81.8245 104.428 81.9305C104.64 82.1425 104.64 82.6725 104.64 82.6725" stroke="#043F98" stroke-width="0.25" stroke-miterlimit="10" stroke-linejoin="round"/>
<path d="M100.93 80.2344C100.93 80.2344 103.792 82.0364 103.898 82.1424C104.11 82.3544 104.11 82.8844 104.11 82.8844" stroke="#043F98" stroke-width="0.25" stroke-miterlimit="10" stroke-linejoin="round"/>
<path d="M100.399 80.4463C100.399 80.4463 103.261 82.2483 103.367 82.4603C103.579 82.6723 103.579 83.2023 103.579 83.2023" stroke="#043F98" stroke-width="0.25" stroke-miterlimit="10" stroke-linejoin="round"/>
<path d="M99.8691 80.7637C99.8691 80.7637 102.731 82.5657 102.943 82.7777C103.155 82.9897 103.155 83.5197 103.155 83.5197" stroke="#043F98" stroke-width="0.25" stroke-miterlimit="10" stroke-linejoin="round"/>
<path d="M99.3398 80.9756C99.3398 80.9756 102.308 82.8836 102.414 82.9896C102.626 83.2016 102.626 83.7316 102.626 83.7316" stroke="#043F98" stroke-width="0.25" stroke-miterlimit="10" stroke-linejoin="round"/>
<path d="M98.8096 81.1875C98.8096 81.1875 101.778 83.0955 101.884 83.2015C102.096 83.4135 102.096 83.9435 102.096 83.9435" stroke="#043F98" stroke-width="0.25" stroke-miterlimit="10" stroke-linejoin="round"/>
<path d="M98.3857 81.5059C98.3857 81.5059 101.354 83.4139 101.566 83.6259C101.778 83.8379 101.778 84.3679 101.778 84.3679" stroke="#043F98" stroke-width="0.25" stroke-miterlimit="10" stroke-linejoin="round"/>
<path d="M97.8555 81.7178C97.8555 81.7178 100.929 83.6258 101.035 83.8378C101.247 84.0498 101.247 84.5798 101.247 84.5798" stroke="#043F98" stroke-width="0.25" stroke-miterlimit="10" stroke-linejoin="round"/>
<path d="M97.3252 81.9297C97.3252 81.9297 100.399 83.9437 100.505 84.0497C100.717 84.2617 100.717 84.7917 100.717 84.7917" stroke="#043F98" stroke-width="0.25" stroke-miterlimit="10" stroke-linejoin="round"/>
<path d="M96.7959 82.248C96.7959 82.248 99.8699 84.262 100.082 84.368C100.294 84.58 100.294 85.11 100.294 85.11" stroke="#043F98" stroke-width="0.25" stroke-miterlimit="10" stroke-linejoin="round"/>
<path d="M96.2656 82.46C96.2656 82.46 99.3396 84.474 99.5516 84.58C99.7636 84.792 99.7636 85.322 99.7636 85.322" stroke="#043F98" stroke-width="0.25" stroke-miterlimit="10" stroke-linejoin="round"/>
<path d="M95.7354 82.6719C95.7354 82.6719 98.9154 84.6859 99.0214 84.8979C99.2334 85.1099 99.2333 85.6399 99.2333 85.6399" stroke="#043F98" stroke-width="0.25" stroke-miterlimit="10" stroke-linejoin="round"/>
<path d="M95.2051 82.9902C95.2051 82.9902 98.3851 85.0042 98.4911 85.2162C98.7031 85.4282 98.7031 85.9582 98.7031 85.9582" stroke="#043F98" stroke-width="0.25" stroke-miterlimit="10" stroke-linejoin="round"/>
<path d="M94.7812 83.2021C94.7812 83.2021 97.9612 85.3221 98.1732 85.4281C98.3852 85.6401 98.3852 86.2761 98.3852 86.2761" stroke="#043F98" stroke-width="0.25" stroke-miterlimit="10" stroke-linejoin="round"/>
<path d="M94.252 83.4141C94.252 83.4141 97.5379 85.5341 97.6439 85.6401C97.8559 85.8521 97.8559 86.4881 97.8559 86.4881" stroke="#043F98" stroke-width="0.25" stroke-miterlimit="10" stroke-linejoin="round"/>
<path d="M93.7217 83.626C93.7217 83.626 97.0077 85.746 97.1137 85.958C97.3257 86.17 97.3257 86.806 97.3257 86.806" stroke="#043F98" stroke-width="0.25" stroke-miterlimit="10" stroke-linejoin="round"/>
<path d="M93.1914 83.9443C93.1914 83.9443 96.4774 86.0643 96.6894 86.2763C96.9014 86.4883 96.9014 87.1243 96.9014 87.1243" stroke="#043F98" stroke-width="0.25" stroke-miterlimit="10" stroke-linejoin="round"/>
<path d="M92.6611 84.1562C92.6611 84.1562 95.9471 86.3822 96.1591 86.4882C96.3711 86.7002 96.3711 87.3362 96.3711 87.3362" stroke="#043F98" stroke-width="0.25" stroke-miterlimit="10" stroke-linejoin="round"/>
<path d="M92.1318 84.3682C92.1318 84.3682 95.5238 86.5942 95.6298 86.7002C95.8418 86.9122 95.8418 87.5482 95.8418 87.5482" stroke="#043F98" stroke-width="0.25" stroke-miterlimit="10" stroke-linejoin="round"/>
<path d="M91.6016 84.6855C91.6016 84.6855 94.9936 86.9115 95.0995 87.0175C95.3115 87.2295 95.3116 87.8655 95.3116 87.8655" stroke="#043F98" stroke-width="0.25" stroke-miterlimit="10" stroke-linejoin="round"/>
<path d="M81.1074 93.4844V93.9084" stroke="#043F98" stroke-width="0.25" stroke-miterlimit="10" stroke-linejoin="round"/>
<path d="M80.5771 99.1025V99.5265" stroke="#043F98" stroke-width="0.25" stroke-miterlimit="10" stroke-linejoin="round"/>
<path d="M79.8282 17.8955C79.8282 18.0015 81.1002 20.8635 80.4642 22.0295C79.9342 23.1955 74.9522 32.0995 74.5282 32.9475C74.1043 33.7955 71.7723 34.8555 69.2283 35.9155C66.6843 36.9755 56.1903 40.8975 56.1903 40.8975L53.8583 40.0495C53.8583 40.0495 42.7283 44.1834 35.3083 47.8934C27.8883 51.6034 18.8784 55.9494 18.5604 57.2214C18.2424 58.3874 24.9204 64.1114 24.9204 64.1114L24.1784 64.9594C24.1784 64.9594 17.6064 58.9174 16.7584 58.5994C15.8044 58.2814 14.5324 58.7054 13.0484 59.3414C11.5644 59.9774 8.91438 61.9914 6.58239 62.0974C3.2964 62.3094 0.222402 60.9314 1.1764 57.2214C2.2364 53.2994 6.26439 51.7094 8.59638 51.8154C11.5644 51.9214 11.7764 53.2994 12.9424 54.8894C14.1084 56.4794 15.2744 57.3274 18.3484 55.5254C19.8324 54.6774 34.0363 47.1514 39.2303 44.9254C44.4243 42.6995 58.4163 37.3995 59.4763 36.9755C60.5363 36.5515 61.0663 36.4455 61.0663 36.4455L63.9283 37.0815C63.9283 37.0815 66.6843 35.8095 68.0623 35.2795C69.4403 34.7495 72.5143 33.3715 73.6802 31.7815C74.8462 30.1915 79.2982 22.1355 79.5102 21.6055C79.7222 21.0755 78.8742 17.8955 78.8742 17.8955" stroke="#043F98" stroke-width="0.5" stroke-miterlimit="10" stroke-linejoin="round"/>
<path d="M26.4043 65.1715C26.4043 65.1715 29.5843 67.0795 29.9023 67.0795C30.2203 67.0795 35.6263 60.9315 39.4423 56.3735C43.2583 51.8155 49.0883 46.6215 51.1023 44.6075C53.2223 42.5935 55.4483 40.6855 55.4483 40.6855L56.7203 41.1095C56.7203 41.1095 52.9043 43.9715 48.9823 47.6815C41.9863 54.2535 37.9583 59.4475 35.2023 63.1575C32.8703 66.3375 30.9623 68.5635 30.7503 69.1995C30.5383 69.8355 32.6583 70.8955 33.5063 71.2135C34.4603 71.5315 38.0643 73.3335 37.2163 76.5135C36.3683 79.9055 32.8703 82.9795 28.8423 82.1315C23.8603 81.1775 23.7543 76.7255 25.7683 73.8635C27.7823 71.0015 29.2663 69.9415 29.0543 69.0935C28.7363 67.8215 25.3443 65.9135 25.3443 65.9135L26.4043 65.1715Z" stroke="#043F98" stroke-width="0.5" stroke-miterlimit="10" stroke-linejoin="round"/>
<path d="M56.7204 41.2157L59.1584 40.2617V40.5797C59.1584 40.5797 57.0385 41.8517 54.9185 43.5477C52.7985 45.2437 50.4665 46.3037 43.0465 54.8897C35.6265 63.4757 31.4925 68.7757 31.1745 69.1997C30.7505 69.6237 30.8565 69.8357 30.8565 69.8357" stroke="#043F98" stroke-width="0.5" stroke-miterlimit="10" stroke-linejoin="round"/>
<path d="M57.6738 41.5336C57.7798 41.5336 62.6558 39.7316 64.3518 38.9896C66.0478 38.2476 67.8498 36.7636 69.5458 36.2336C71.2418 35.5976 73.9978 34.2196 74.5278 33.5836C75.0578 32.9476 80.0398 23.7256 80.3578 23.1956C80.5698 22.6656 80.8878 21.8176 80.7818 21.1816" stroke="#043F98" stroke-width="0.5" stroke-miterlimit="10" stroke-linejoin="round"/>
<path d="M34.2483 72.8036C36.0503 73.6516 37.2163 75.2416 35.7323 77.5736C34.2483 79.9056 30.3263 82.1316 27.1463 80.4356C24.0723 78.7396 25.8743 75.1356 27.6763 73.5456C29.7963 71.7436 32.5523 72.0616 34.2483 72.8036Z" stroke="#043F98" stroke-width="0.5" stroke-miterlimit="10" stroke-linejoin="round"/>
<path d="M26.7221 80.3302C23.6481 78.6342 25.5561 74.8182 27.4641 73.2282C29.5841 71.4262 32.2341 71.7442 33.9301 72.4862C35.7321 73.3342 37.4281 74.9242 35.9441 77.2562" stroke="#043F98" stroke-width="0.5" stroke-miterlimit="10" stroke-linejoin="round"/>
<path d="M10.1858 59.6593C7.7478 61.1433 4.14381 61.7793 2.44781 59.7653C0.751815 57.7513 3.71981 54.8893 5.4158 54.0413C7.1118 53.0873 10.0798 52.5573 11.5638 54.4653C13.0478 56.3733 12.5178 58.2813 10.1858 59.6593Z" stroke="#043F98" stroke-width="0.5" stroke-miterlimit="10" stroke-linejoin="round"/>
<path d="M3.4025 60.5081C3.4025 60.5081 0.540511 57.9641 4.7805 54.9961C8.70249 52.3461 11.0345 53.7241 11.7765 54.5721" stroke="#043F98" stroke-width="0.5" stroke-miterlimit="10" stroke-linejoin="round"/>
<path d="M1.17578 60.1897C1.17578 60.2957 2.76578 63.3697 6.26377 62.8397C9.76176 62.3097 14.5318 59.2357 15.1678 59.1297C15.8037 58.9177 16.6517 59.1297 17.3937 59.8717C18.1357 60.6137 24.0717 65.7017 24.0717 65.7017V65.1717" stroke="#043F98" stroke-width="0.5" stroke-miterlimit="10" stroke-linejoin="round"/>
<path d="M24.9197 64.2178L24.8137 64.9598L24.1777 65.7018" stroke="#043F98" stroke-width="0.5" stroke-miterlimit="10" stroke-linejoin="round"/>
<path d="M25.4502 66.2314V66.6554C25.4502 66.6554 27.6762 68.0334 28.3122 68.6694C28.9482 69.4114 29.0542 69.9414 28.6302 70.3654" stroke="#043F98" stroke-width="0.5" stroke-miterlimit="10" stroke-linejoin="round"/>
<path d="M25.1328 80.0115C25.1328 80.0115 28.6308 84.9935 33.7188 81.8135C38.0648 79.0575 37.5348 75.5596 37.0048 74.3936" stroke="#043F98" stroke-width="0.5" stroke-miterlimit="10" stroke-linejoin="round"/>
<path d="M54.8125 41.3219C54.8125 41.3219 53.9645 41.0039 53.7525 41.0039C53.6465 41.0039 45.0605 43.8659 35.2025 48.6359C28.3125 51.9219 18.6665 57.4339 18.5605 57.7519" stroke="#043F98" stroke-width="0.5" stroke-miterlimit="10" stroke-linejoin="round"/>
<path d="M53.8584 40.2617V41.0037" stroke="#043F98" stroke-width="0.5" stroke-miterlimit="10" stroke-linejoin="round"/>
<path d="M58.0977 37.6114C58.0977 37.6114 60.0057 36.0214 60.2177 35.9154C60.4297 35.8094 67.9556 31.4634 68.4856 30.9334C69.0156 30.5094 74.4216 20.0155 74.8456 19.3795C75.1636 18.7435 75.2696 18.0015 75.1636 17.1535C75.0576 16.3055 74.8456 15.5635 74.8456 15.5635" stroke="#043F98" stroke-width="0.5" stroke-miterlimit="10" stroke-linejoin="round"/>
<path d="M75.5882 15.2461C75.5882 15.3521 76.1182 17.3661 76.1182 17.7901C76.1182 18.2141 76.0122 19.0621 75.4822 20.3341C74.9522 21.5001 71.3482 28.8141 70.7122 29.8741C70.0762 30.9341 69.2282 31.7821 67.9562 32.8421C66.6842 33.9021 62.6562 36.658 62.6562 36.658" stroke="#043F98" stroke-width="0.5" stroke-miterlimit="10" stroke-linejoin="round"/>
<path d="M61.9141 36.34C61.9141 36.34 68.0621 32.206 68.486 31.888C68.91 31.57 69.97 30.404 70.5 29.344C71.03 28.178 75.588 19.062 75.8 18.744C76.012 18.426 75.482 15.458 75.482 15.458" stroke="#043F98" stroke-width="0.5" stroke-miterlimit="10" stroke-linejoin="round"/>
<path d="M79.4045 18.3197C79.6386 18.3197 79.8285 18.1298 79.8285 17.8957C79.8285 17.6615 79.6386 17.4717 79.4045 17.4717C79.1703 17.4717 78.9805 17.6615 78.9805 17.8957C78.9805 18.1298 79.1703 18.3197 79.4045 18.3197Z" stroke="#043F98" stroke-width="0.5" stroke-miterlimit="10" stroke-linejoin="round"/>
<path d="M75.1642 15.8822C75.3984 15.8822 75.5882 15.6923 75.5882 15.4582C75.5882 15.224 75.3984 15.0342 75.1642 15.0342C74.9301 15.0342 74.7402 15.224 74.7402 15.4582C74.7402 15.6923 74.9301 15.8822 75.1642 15.8822Z" stroke="#043F98" stroke-width="0.5" stroke-miterlimit="10" stroke-linejoin="round"/>
<path d="M103.042 22.1357C102.83 22.4537 95.092 28.6017 87.142 34.4317C78.9801 40.3677 70.5001 45.9856 70.0761 46.3036C69.1221 46.8336 70.0761 47.7876 70.0761 47.7876C70.0761 47.7876 63.8221 51.2856 63.9281 52.0276C64.0341 52.3456 64.3521 52.4516 65.2001 52.0276C66.2601 51.4976 77.8141 44.6076 77.8141 44.6076L77.3901 42.9116C77.3901 42.9116 102.724 24.1497 103.466 24.0437C104.208 23.8317 106.01 25.2097 106.01 25.2097C106.01 25.2097 107.494 24.2557 107.282 24.2557C107.07 24.2557 105.162 22.7717 105.162 22.7717C105.162 22.7717 104.632 22.1357 105.374 21.4997C106.116 20.8637 108.978 18.7437 109.508 18.1077C110.144 17.3657 110.78 15.5637 108.448 13.8677C106.116 12.1717 102.512 12.0657 99.862 13.8677C97.212 15.6697 96.682 17.7897 98.696 19.5917C99.65 20.4397 100.922 20.7577 101.664 21.0757C102.618 21.4997 103.042 22.1357 103.042 22.1357Z" stroke="#043F98" stroke-width="0.5" stroke-miterlimit="10" stroke-linejoin="round"/>
<path d="M69.4402 46.6221C69.4402 46.6221 66.3662 48.8481 65.0942 50.0141C63.8222 51.1801 63.8222 51.3921 63.7162 51.6041C63.6102 51.8161 63.8222 51.9221 63.8222 51.9221" stroke="#043F98" stroke-width="0.5" stroke-miterlimit="10" stroke-linejoin="round"/>
<path d="M77.3902 42.9116C77.3902 42.9116 108.13 27.2236 108.978 26.4816C109.932 25.8457 110.144 25.4217 110.144 25.4217C110.144 25.4217 110.992 25.7396 112.052 25.2097C113.112 24.6797 116.716 22.4537 119.154 22.2417C121.592 22.0297 125.302 22.8777 125.514 25.9517C125.726 28.4956 123.288 30.2976 120.744 30.8276C118.2 31.3576 115.338 30.7216 113.96 29.3436C112.476 27.9656 111.84 26.6936 109.72 27.5416C107.6 28.3896 76.1182 45.8796 76.1182 45.8796L77.7082 44.5016L77.3902 42.9116Z" stroke="#043F98" stroke-width="0.5" stroke-miterlimit="10" stroke-linejoin="round"/>
<path d="M106.01 24.9979C106.01 24.9979 105.904 25.4219 106.01 25.3159C106.116 25.2099 107.282 24.4679 107.282 24.4679V24.0439L106.01 24.9979Z" stroke="#043F98" stroke-width="0.5" stroke-miterlimit="10" stroke-linejoin="round"/>
<path d="M105.904 25.3154C105.798 25.2094 104.208 24.0434 103.784 24.1494C103.36 24.2554 103.042 24.3614 102.3 24.8914C101.558 25.4214 77.8145 42.8053 77.8145 42.8053" stroke="#043F98" stroke-width="0.5" stroke-miterlimit="10" stroke-linejoin="round"/>
<path d="M100.074 14.6095C101.664 13.5495 105.162 12.9135 107.282 13.9735C109.084 14.9275 110.356 16.5175 107.918 18.2134C105.586 20.0154 102.3 20.4394 99.7561 18.8494C97.2121 17.3655 98.6961 15.5635 100.074 14.6095Z" stroke="#043F98" stroke-width="0.5" stroke-miterlimit="10" stroke-linejoin="round"/>
<path d="M99.9682 19.0617C97.4242 17.4717 99.0142 16.0937 100.392 15.1397C101.982 14.0797 105.374 13.3377 107.494 14.5037C109.296 15.4577 110.144 16.6237 107.812 18.4257" stroke="#043F98" stroke-width="0.5" stroke-miterlimit="10" stroke-linejoin="round"/>
<path d="M115.656 24.3621C117.246 23.1961 120.744 22.5601 122.864 23.7261C124.666 24.7861 125.938 26.3761 123.5 28.178C121.168 29.98 117.882 30.51 115.338 28.92C112.9 27.224 114.278 25.4221 115.656 24.3621Z" stroke="#043F98" stroke-width="0.5" stroke-miterlimit="10" stroke-linejoin="round"/>
<path d="M115.657 29.0253C113.113 27.3293 114.703 25.9513 116.081 24.8913C117.671 23.7253 121.063 22.9833 123.183 24.1493C124.985 25.2093 125.833 26.3753 123.501 28.2833" stroke="#043F98" stroke-width="0.5" stroke-miterlimit="10" stroke-linejoin="round"/>
<path d="M110.145 16.1992C110.145 16.3052 110.781 17.4712 109.615 18.4252C108.449 19.3792 105.693 21.7112 105.375 21.9232C105.057 22.1352 105.163 22.4532 105.375 22.5592" stroke="#043F98" stroke-width="0.5" stroke-miterlimit="10" stroke-linejoin="round"/>
<path d="M108.554 26.8002V26.5882L108.024 26.6942L107.918 26.1642L107.494 26.2702L107.388 25.8462H106.858L106.752 25.4222L108.024 24.5742L108.13 24.8922H108.66L108.766 25.3162H109.19L109.296 25.7402L109.826 25.6342V25.8462" stroke="#043F98" stroke-width="0.5" stroke-miterlimit="10" stroke-linejoin="round"/>
<path d="M106.858 25.8456L108.13 24.8916" stroke="#043F98" stroke-width="0.5" stroke-miterlimit="10" stroke-linejoin="round"/>
<path d="M107.389 25.8456L108.661 24.8916" stroke="#043F98" stroke-width="0.5" stroke-miterlimit="10" stroke-linejoin="round"/>
<path d="M107.494 26.2694L108.766 25.3154" stroke="#043F98" stroke-width="0.5" stroke-miterlimit="10" stroke-linejoin="round"/>
<path d="M107.918 26.2694L109.19 25.3154" stroke="#043F98" stroke-width="0.5" stroke-miterlimit="10" stroke-linejoin="round"/>
<path d="M108.024 26.6933L109.296 25.7393" stroke="#043F98" stroke-width="0.5" stroke-miterlimit="10" stroke-linejoin="round"/>
<path d="M108.555 26.5878L109.827 25.6338" stroke="#043F98" stroke-width="0.5" stroke-miterlimit="10" stroke-linejoin="round"/>
<path d="M64.2461 52.1338C64.2461 52.1338 64.3521 52.6638 65.7301 52.0278C67.1081 51.3918 79.9341 44.0779 81.2061 43.3359C82.5841 42.6999 102.83 31.8879 105.268 30.6159C107.6 29.3439 110.462 27.4359 111.522 27.9659C112.582 28.4959 113.43 29.6619 114.596 30.5099C115.762 31.2519 118.836 32.6299 121.804 31.1459C124.772 29.6619 125.726 28.0719 125.62 26.5879" stroke="#043F98" stroke-width="0.5" stroke-miterlimit="10" stroke-linejoin="round"/>
<path d="M25.1327 12.4898C24.9207 12.4898 17.6067 7.40183 17.0767 6.97783C16.5467 6.55383 16.1227 4.64584 16.7587 3.79784C17.3947 2.94984 19.9387 1.35984 20.7867 1.04184C21.6347 0.829843 23.5427 1.46584 24.1787 1.99584C24.9207 2.52584 37.2167 10.5818 39.3367 12.4898C41.4567 14.3978 43.5767 15.8818 43.8947 15.9878C44.2127 16.0938 45.2727 15.5638 45.4847 15.2458C45.6967 14.9278 47.0747 13.9738 47.6047 13.7618C48.0287 13.5498 48.6647 13.5498 49.0887 13.6558C49.5127 13.7618 50.0427 14.3978 50.0427 14.3978L54.2826 18.0018C54.2826 18.0018 54.7066 18.4258 54.6006 18.8498C54.6006 19.0618 54.4946 19.1678 54.2826 19.3798C53.4347 20.0158 50.3607 22.2418 50.3607 22.2418C50.3607 22.2418 47.6047 24.7858 46.5447 23.9378C46.5447 23.9378 46.5447 23.9378 46.2267 23.7258C45.9087 23.5138 33.7187 12.9138 32.4467 12.0658C31.1747 11.2178 28.5247 9.09783 27.2527 8.88583C25.9807 8.67383 25.0267 10.3698 25.1327 11.7478C25.2387 13.1258 26.2987 13.2318 26.2987 13.0198C26.2987 12.8078 26.2987 12.4898 26.2987 12.4898C26.2987 12.4898 25.7687 12.5958 25.6627 11.7478C25.5567 10.8998 26.7227 9.30982 28.1007 10.1578C29.4787 11.0058 37.6407 17.0478 38.2767 18.0018C39.0187 18.8498 39.5487 20.4398 39.8667 20.7578C40.0787 21.0758 44.9547 25.2098 45.3787 25.6338C45.8027 26.0578 46.6507 26.4818 47.6047 25.7398C48.5587 24.9978 53.0107 22.0298 53.4347 21.6058C53.8586 21.1818 54.2827 20.1218 54.3887 19.3798" stroke="#043F98" stroke-miterlimit="10" stroke-linejoin="round"/>
<path d="M68.168 1.78418C67.956 1.89018 49.8301 14.5042 49.8301 14.5042C49.8301 14.5042 52.9041 17.6841 53.0101 17.5781C53.2221 17.4721 56.8261 14.9282 56.8261 14.9282L71.56 4.64617L68.168 1.78418Z" stroke="#043F98" stroke-width="0.25" stroke-miterlimit="10" stroke-linejoin="round"/>
<path d="M71.5597 4.64551V5.38751L53.5398 18.1075L53.0098 17.4715" stroke="#043F98" stroke-width="0.25" stroke-miterlimit="10" stroke-linejoin="round"/>
<path d="M31.9163 32.3121C31.9163 32.3121 24.4963 25.4221 21.4223 23.0901C18.3483 20.7581 14.2143 18.4261 13.8963 17.8961C13.5783 17.3661 14.3203 16.6241 14.4263 16.7301C14.5323 16.8361 6.47636 11.2181 5.94636 10.9001C5.41637 10.7941 4.99237 10.3701 4.14437 10.7941C3.29637 11.2181 1.60037 12.5961 1.49437 12.9141C1.38837 13.2321 1.38837 13.8681 3.19037 15.2461C4.99237 16.6241 15.2743 23.7261 16.6523 24.7861C18.0303 25.8461 23.5423 30.6161 26.0863 32.7361C28.6303 34.8561 29.6903 36.3401 30.6443 35.8101C31.5983 35.1741 32.8703 34.2201 32.8703 34.2201C32.8703 34.2201 33.2943 33.6901 31.9163 32.3121Z" fill="#02C392" stroke="#043F98" stroke-miterlimit="10" stroke-linejoin="round"/>
<path d="M32.8706 34.644C32.8706 34.856 32.6585 36.128 32.0226 36.552C31.3866 36.976 30.2206 38.142 28.9486 37.612C27.6766 36.976 22.6946 32.418 22.6946 32.418C22.6946 32.418 22.8006 30.51 20.6806 28.602C18.5606 26.8 5.20461 17.1541 4.35661 16.6241C3.50861 16.0941 1.91861 14.9281 1.60061 14.5041C1.28262 14.0801 1.17662 13.1261 1.38862 12.9141" stroke="#043F98" stroke-miterlimit="10" stroke-linejoin="round"/>
<path d="M4.14453 17.1543C4.14453 17.1543 4.46253 18.7443 6.05253 19.9103C7.64252 21.0763 9.55052 21.9243 9.97452 22.1363C10.3985 22.3483 11.4585 21.9243 11.4585 21.9243" stroke="#043F98" stroke-miterlimit="10" stroke-linejoin="round"/>
<path d="M14.3203 16.8359C14.3203 16.8359 14.7443 16.9419 14.8503 17.6839C14.9563 18.4259 14.8503 18.8499 14.8503 18.8499" stroke="#043F98" stroke-width="0.25" stroke-miterlimit="10" stroke-linejoin="round"/>
<path d="M48.7702 16.4117C48.6642 16.4117 48.3462 16.3057 48.1342 16.3057C47.9223 16.3057 47.8162 16.4117 47.7102 16.5177C47.4982 17.3657 46.8623 19.8037 46.7563 20.2277C46.6503 20.7577 47.2863 21.7117 46.8623 23.6196C46.4383 25.5276 43.2583 35.1736 43.2583 35.2796C43.2583 35.3856 42.8343 37.6116 44.6363 37.9296C46.4383 38.2476 46.9683 36.3396 47.0743 35.4916C47.1803 34.6436 48.4522 24.9976 49.1942 23.0896C49.8302 21.1817 50.7842 20.4397 50.8902 20.1217C50.9962 19.9097 51.3142 17.8957 51.4202 17.1537C51.4202 16.9417 51.3142 16.8357 51.1022 16.8357H50.6782" fill="#EFF1FC"/>
<path d="M48.7702 16.4117C48.6642 16.4117 48.3462 16.3057 48.1342 16.3057C47.9223 16.3057 47.8162 16.4117 47.7102 16.5177C47.4982 17.3657 46.8623 19.8037 46.7563 20.2277C46.6503 20.7577 47.2863 21.7117 46.8623 23.6196C46.4383 25.5276 43.2583 35.1736 43.2583 35.2796C43.2583 35.3856 42.8343 37.6116 44.6363 37.9296C46.4383 38.2476 46.9683 36.3396 47.0743 35.4916C47.1803 34.6436 48.4522 24.9976 49.1942 23.0896C49.8302 21.1817 50.7842 20.4397 50.8902 20.1217C50.9962 19.9097 51.3142 17.8957 51.4202 17.1537C51.4202 16.9417 51.3142 16.8357 51.1022 16.8357H50.6782" stroke="#043F98" stroke-width="0.5" stroke-miterlimit="10" stroke-linejoin="round"/>
<path d="M49.6185 17.6843C50.0868 17.6843 50.4665 17.3046 50.4665 16.8363C50.4665 16.3679 50.0868 15.9883 49.6185 15.9883C49.1502 15.9883 48.7705 16.3679 48.7705 16.8363C48.7705 17.3046 49.1502 17.6843 49.6185 17.6843Z" stroke="#043F98" stroke-width="0.25" stroke-miterlimit="10" stroke-linejoin="round"/>
<path d="M48.7706 16.8359C48.7706 16.9419 48.5586 18.3199 48.5586 18.3199C48.5586 18.8499 48.9826 19.1679 49.4066 19.1679C49.9366 19.1679 50.2546 18.7439 50.2546 18.3199L50.4666 16.9419" stroke="#043F98" stroke-width="0.25" stroke-miterlimit="10" stroke-linejoin="round"/>
<path d="M50.9966 20.4395C50.8906 20.5455 50.7846 21.6055 50.4666 21.9234C50.2546 22.2414 49.8306 21.8175 48.9826 25.8454C48.1346 29.8734 47.7106 35.4914 47.3926 36.3394C47.1806 37.1874 46.5446 38.5654 44.8486 38.3534C43.1526 38.1414 43.0466 36.4454 43.3646 35.4914" stroke="#043F98" stroke-width="0.25" stroke-miterlimit="10" stroke-linejoin="round"/>
<path d="M41.2439 20.334C41.0319 20.44 28.418 29.026 28.418 29.026C28.418 29.026 31.492 32.206 31.598 32.1C31.81 31.994 35.414 29.45 35.414 29.45L44.6359 23.196L41.2439 20.334Z" fill="#EFF1FC" stroke="#043F98" stroke-width="0.25" stroke-miterlimit="10" stroke-linejoin="round"/>
<path d="M44.6366 23.1953V23.9373L32.1286 32.6293L31.5986 31.9933" stroke="#043F98" stroke-width="0.25" stroke-miterlimit="10" stroke-linejoin="round"/>
</svg>
