<svg width="115" height="90" viewBox="0 0 115 90" fill="none" xmlns="http://www.w3.org/2000/svg">
<path d="M46 46L16 37.5C22 37.5 63.5 24.8333 83.5 18.5C90.3333 19.5 105 21.7 109 22.5C113 23.3 110.667 25.5 109 26.5C94 32.3333 62.9 44.4 58.5 46C54.1 47.6 48.3333 46.6667 46 46Z" fill="#E2E6F1"/>
<path d="M13.0002 43L7.50016 41.5C7.33349 43.6667 7.10016 48.9 7.50016 52.5C7.90016 56.1 10.0002 59.6667 11.0002 61C20.5002 68 40.7002 82.7 45.5002 85.5C50.3002 88.3 54.8335 88.3333 56.5002 88L60.0001 86.5L61.5001 89L79.5001 82.5L77.0001 79L98.0001 69.5L100 71L110.5 65L111.5 49.5V45.5V42.5L56.5002 65.5C55.3335 66 51.8002 66.6 47.0002 65C42.2002 63.4 22.3335 49.6667 13.0002 43Z" fill="#E2E6F1"/>
<path d="M40 53.5C38 52.7 22.5 46.8333 15 44H13.5C22.3333 50 41 62.6 45 65C49 67.4 58.3333 65.3333 62.5 64L110.5 42.5C111 42.5 112.1 42.1 112.5 40.5C113 38.5 112 37 110.5 36C109.3 35.2 104.333 33.6667 102 33L98.5 34L99 37L80 44L67 50L66.5 49.5L61 51.5C60.8333 51.8333 59.7 52.7 56.5 53.5C52.5 54.5 42.5 54.5 40 53.5Z" fill="#043F98"/>
<path d="M87 63L86.5 61.5L91 59.5V61L87 63Z" fill="white"/>
<path d="M83.5 48L90.5 52L105.5 45L99 41.5L97.5 39L95.5 38L80 44L82 45.5L83.5 48Z" fill="#E2E6F1"/>
<path d="M36.5 34.5C30.1 36.1 11.1667 37.5 2.5 38C2 36.5 1 33.1 1 31.5C1 29.9 2 29.5 2.5 29.5L8.5 27.5L13.5 25.5L24 23L25.5 21.5L49 14L52 14.5L63.5 10.5L67.5 8.5L85 4.5L87.5 5L96.5 2.5L100.5 3.5L108 1C108.5 2.33333 109.7 5.4 110.5 7C111.3 8.6 110.167 9.33333 109.5 9.5L91.5 16L90 15.5L73.5 21.5L72.5 23C66.5 25.1667 54.4 29.5 54 29.5C53.5 29.5 44.5 32.5 36.5 34.5Z" fill="#02C392"/>
<path d="M40.5 24.5C33.7 26.1 11.3333 29.1667 1 30.5L2.5 37.5C8.33333 37 21.2 36 26 36C30.8 36 43 33.3333 48.5 32L73 22.5V21.5L90 15.5L91.5 16.5C96.3333 14.6667 106.4 10.9 108 10.5C109.6 10.1 110.333 8.66667 110.5 8L108.5 1.5C99.5 4.66667 80.6 11.3 77 12.5C72.5 14 49 22.5 40.5 24.5Z" fill="#02C392"/>
<path d="M7.30551 41.1357C7.20542 41.436 8.00614 54.0473 8.10623 54.9481C8.20632 55.949 8.30641 59.0518 12.5102 62.1546C16.6139 65.2574 46.0403 85.2754 47.2414 86.0761C48.4424 86.8768 53.0466 88.8786 56.1494 88.178C59.2521 87.4773 59.2521 87.4773 59.2521 87.4773" stroke="#043F98" stroke-miterlimit="10" stroke-linejoin="round"/>
<path d="M11.0088 42.5368L44.7391 64.5566C44.7391 64.5566 51.4451 67.3591 60.5533 64.6567C69.6614 61.9543 111.799 42.4368 111.799 42.4368C111.799 42.4368 114.902 38.5332 110.798 36.2312C106.695 33.9291 101.99 32.8281 101.99 32.8281" stroke="#043F98" stroke-miterlimit="10" stroke-linejoin="round"/>
<path d="M58.1509 69.1609C58.251 69.261 61.2537 70.9625 61.2537 70.9625L67.8596 68.4602L69.7613 66.1582L80.7712 61.454C80.7712 61.454 80.8713 60.1528 80.6711 60.353C80.4709 60.5531 69.5611 65.0572 69.5611 65.0572C69.5611 65.0572 67.8596 67.3593 67.7595 67.4593C67.6594 67.5594 61.3537 69.9616 61.3537 69.9616L58.0508 68.0599L58.1509 69.1609Z" stroke="#043F98" stroke-width="0.25" stroke-miterlimit="10" stroke-linejoin="round"/>
<path d="M58.0508 68.0607C58.251 67.9606 111.399 44.6396 111.399 44.6396L113.701 46.3412C113.701 46.3412 109.897 48.2429 109.497 48.343C109.097 48.4431 107.095 48.2429 106.995 48.2429C106.895 48.343 96.2851 53.4476 96.2851 53.4476L95.1841 52.6468L79.5701 59.553L80.7712 60.3538" stroke="#043F98" stroke-width="0.25" stroke-miterlimit="10" stroke-linejoin="round"/>
<path d="M61.3545 69.9619V70.8619" stroke="#043F98" stroke-width="0.25" stroke-miterlimit="10" stroke-linejoin="round"/>
<path d="M67.7598 67.46L67.8598 68.36" stroke="#043F98" stroke-width="0.25" stroke-miterlimit="10" stroke-linejoin="round"/>
<path d="M69.5615 65.1582V66.1582" stroke="#043F98" stroke-width="0.25" stroke-miterlimit="10" stroke-linejoin="round"/>
<path d="M80.4707 60.1527L95.3841 53.747L95.284 52.7461" stroke="#043F98" stroke-width="0.25" stroke-miterlimit="10" stroke-linejoin="round"/>
<path d="M95.3848 53.7475L96.3857 54.4481L107.295 49.1433L109.598 49.3435L113.501 47.4418L113.801 47.3417L113.701 46.3408" stroke="#043F98" stroke-width="0.25" stroke-miterlimit="10" stroke-linejoin="round"/>
<path d="M96.3857 54.4473V53.4473" stroke="#043F98" stroke-width="0.25" stroke-miterlimit="10" stroke-linejoin="round"/>
<path d="M107.195 49.1428L107.095 48.3428" stroke="#043F98" stroke-width="0.25" stroke-miterlimit="10" stroke-linejoin="round"/>
<path d="M109.597 49.2428L109.497 48.3428" stroke="#043F98" stroke-width="0.25" stroke-miterlimit="10" stroke-linejoin="round"/>
<path d="M112.9 39.2344C113.1 39.3345 113.301 40.6356 112.9 41.9368C112.4 43.238 111.699 44.5391 111.699 44.5391" stroke="#043F98" stroke-miterlimit="10" stroke-linejoin="round"/>
<path d="M59.9525 70.7627C59.9525 70.7627 58.8515 71.063 59.0517 73.5652C59.2519 76.0675 59.7523 85.576 59.8524 86.4768C59.9525 87.3776 60.2527 89.8799 62.8551 88.879C65.4574 87.778 71.9633 84.6752 72.2635 84.475C72.5638 84.2748 75.4664 84.1747 76.3672 83.7744C77.268 83.374 78.5692 82.6734 78.5692 82.6734" stroke="#043F98" stroke-miterlimit="10" stroke-linejoin="round"/>
<path d="M62.055 71.2637C62.055 71.2637 60.954 71.5639 61.1542 74.0662C61.2543 76.4683 61.6547 82.774 61.7548 83.6748C61.8548 84.5756 62.1551 87.0779 64.7574 86.077C67.3598 84.976 72.064 82.6739 72.3643 82.4737C72.6645 82.2736 75.5671 82.1735 76.468 81.7731C77.3688 81.3727 78.2696 80.8723 78.2696 80.8723" stroke="#043F98" stroke-width="0.5" stroke-miterlimit="10" stroke-linejoin="round"/>
<path d="M79.37 82.8738C79.2699 83.074 98.6873 73.5655 98.6873 73.5655C98.6873 73.5655 99.488 72.6647 99.2879 71.3635C99.0877 70.6629 98.7874 70.2625 98.5872 70.0623C98.3871 69.8621 98.0868 69.8621 97.8866 69.9622L77.7686 79.5709C77.7686 79.5709 80.0706 80.4717 79.37 82.8738Z" stroke="#043F98" stroke-miterlimit="10" stroke-linejoin="round"/>
<path d="M76.8682 71.6633L76.668 67.96L64.2568 73.4649L64.8574 83.7742L77.8691 77.7688" stroke="#043F98" stroke-width="0.25" stroke-miterlimit="10" stroke-linejoin="round"/>
<path d="M77.669 73.4648L65.2578 79.17" stroke="#043F98" stroke-width="0.25" stroke-miterlimit="10" stroke-linejoin="round"/>
<path d="M76.668 67.96C76.668 67.96 76.7681 68.06 76.8682 68.06C77.1684 68.2602 77.2685 68.5605 77.2685 68.8608L77.769 77.7688L77.0683 77.2683V73.8653" stroke="#043F98" stroke-width="0.25" stroke-miterlimit="10" stroke-linejoin="round"/>
<path d="M64.5566 77.3687C64.5566 77.3687 76.7676 71.7637 76.9678 71.7637L77.5683 72.0639C77.3681 72.0639 64.5566 78.1694 64.5566 78.1694" stroke="#043F98" stroke-width="0.25" stroke-miterlimit="10" stroke-linejoin="round"/>
<path d="M85.8764 62.6559L85.376 62.8561L85.1758 60.0535L90.0802 57.8516V58.6523" stroke="#043F98" stroke-width="0.25" stroke-miterlimit="10" stroke-linejoin="round"/>
<path d="M85.3759 62.8555L84.9756 62.4552L84.7754 59.6527L89.4796 57.5508L90.0802 57.851" stroke="#043F98" stroke-width="0.25" stroke-miterlimit="10" stroke-linejoin="round"/>
<path d="M85.2748 60.0523L84.6748 59.6523" stroke="#043F98" stroke-width="0.25" stroke-miterlimit="10" stroke-linejoin="round"/>
<path d="M86.776 61.5537L85.876 61.0537" stroke="#043F98" stroke-width="0.25" stroke-miterlimit="10" stroke-linejoin="round"/>
<path d="M90.1798 59.0527L85.876 61.0545L85.9761 62.5559L86.8769 63.2565L86.7768 61.555L91.0806 59.5532L90.1798 59.0527Z" stroke="#043F98" stroke-width="0.25" stroke-miterlimit="10" stroke-linejoin="round"/>
<path d="M86.9766 63.2561L91.1803 61.1542L91.0802 59.5527" stroke="#043F98" stroke-width="0.25" stroke-miterlimit="10" stroke-linejoin="round"/>
<path d="M79.3703 78.8697L78.6697 66.8589C78.6697 66.8589 78.2693 64.8571 76.0673 65.6578C73.8654 66.5586 62.8555 70.8625 62.8555 70.8625" stroke="#043F98" stroke-width="0.5" stroke-miterlimit="10" stroke-linejoin="round"/>
<path d="M77.2686 77.168C76.9683 77.168 64.8574 82.8731 64.8574 82.8731" stroke="#043F98" stroke-width="0.25" stroke-miterlimit="10" stroke-linejoin="round"/>
<path d="M7.50586 37.333C8.00631 37.4331 40.6356 48.5431 41.6365 48.7432C42.6374 48.9434 51.4453 50.5449 61.3542 46.7414C71.2631 42.938 109.698 27.324 109.698 27.324C109.698 27.324 117.505 23.8209 110.298 22.2194C104.993 21.0184 84.2748 18.416 84.2748 18.416" stroke="#043F98" stroke-miterlimit="10" stroke-linejoin="round"/>
<path d="M113.401 24.2207C113.401 24.2207 113.601 26.9231 113.601 27.8239C113.701 28.8248 113.1 29.6256 112.5 30.126C111.899 30.6265 110.798 31.227 110.798 31.227L110.698 30.3262L105.594 32.5282L105.694 33.9294" stroke="#043F98" stroke-miterlimit="10" stroke-linejoin="round"/>
<path d="M103.892 33.3295C103.892 33.2294 103.892 31.6279 103.792 31.6279C103.692 31.6279 98.3875 33.93 98.3875 33.93L98.5877 36.7325L95.7852 38.0337" stroke="#043F98" stroke-miterlimit="10" stroke-linejoin="round"/>
<path d="M79.5708 44.3393C79.0703 44.4394 67.0595 49.544 67.0595 49.544L66.459 49.1437L61.0542 51.0454L60.7539 52.2464C60.7539 52.2464 57.8513 54.0481 49.1435 54.3483C40.3356 54.7487 35.4312 51.1455 28.7251 48.9435C22.0191 46.7415 4.30321 40.0355 4.30321 40.0355L4.20312 37.9336" stroke="#043F98" stroke-miterlimit="10" stroke-linejoin="round"/>
<path d="M80.0706 43.9382L95.3844 37.7327C95.3844 37.7327 95.1842 34.2295 95.1842 33.8292C95.0841 32.7282 92.9822 32.3278 92.782 32.4279C92.682 32.528 77.9688 38.4333 77.9688 38.4333C78.0688 38.5334 79.4701 38.5334 79.5702 40.2349C79.6703 41.9364 79.7704 44.2385 79.7704 44.2385" stroke="#043F98" stroke-width="0.25" stroke-miterlimit="10" stroke-linejoin="round"/>
<path d="M90.2804 51.5458C90.0802 51.5458 83.4743 48.0427 83.4743 47.9426C83.4743 47.8425 81.6727 45.04 81.6727 45.04L79.8711 44.0391" stroke="#043F98" stroke-width="0.25" stroke-miterlimit="10" stroke-linejoin="round"/>
<path d="M105.593 45.14C105.393 45.14 98.7873 41.6369 98.7873 41.5368C98.7873 41.4367 97.5863 39.2347 97.4862 39.0346L95.2842 37.7334" stroke="#043F98" stroke-width="0.25" stroke-miterlimit="10" stroke-linejoin="round"/>
<path d="M84.4746 42.137L87.0769 43.5383C87.0769 43.5383 88.6784 46.4409 88.8786 46.4409C88.9787 46.4409 94.1833 44.1388 94.1833 44.1388C94.1833 44.0387 92.3817 41.0361 92.3817 41.0361L90.3799 40.0352L84.7749 42.3372" stroke="#043F98" stroke-width="0.25" stroke-miterlimit="10" stroke-linejoin="round"/>
<path d="M80.271 44.3388C80.371 44.4389 82.6731 45.7401 82.6731 45.64C82.7732 45.5399 87.0771 43.7383 87.0771 43.7383V43.5381C87.0771 43.5381 82.6731 45.3397 82.6731 45.4398C82.573 45.5399 79.7705 43.8384 79.7705 43.8384" stroke="#043F98" stroke-width="0.25" stroke-miterlimit="10" stroke-linejoin="round"/>
<path d="M97.4863 38.9346L92.9822 41.0365C92.9822 41.0365 90.48 39.8354 90.3799 39.7353V40.0356" stroke="#043F98" stroke-width="0.25" stroke-miterlimit="10" stroke-linejoin="round"/>
<path d="M83.5742 47.8416C83.6743 47.7416 88.2784 45.8398 88.2784 45.8398" stroke="#043F98" stroke-width="0.25" stroke-miterlimit="10" stroke-linejoin="round"/>
<path d="M93.8828 43.4383C93.9829 43.3382 98.587 41.4365 98.587 41.4365" stroke="#043F98" stroke-width="0.25" stroke-miterlimit="10" stroke-linejoin="round"/>
<path d="M82.6729 45.4404C82.6729 45.5404 82.6729 45.6404 82.6729 45.6404" stroke="#043F98" stroke-width="0.25" stroke-miterlimit="10" stroke-linejoin="round"/>
<path d="M90.4805 40.0356C90.5806 40.1356 92.9827 41.3367 93.0828 41.2366C93.1829 41.1365 97.4868 39.1347 97.4868 39.1347V38.9346" stroke="#043F98" stroke-width="0.25" stroke-miterlimit="10" stroke-linejoin="round"/>
<path d="M92.9824 41.0361C92.9824 41.1361 92.9824 41.2361 92.9824 41.2361" stroke="#043F98" stroke-width="0.25" stroke-miterlimit="10" stroke-linejoin="round"/>
<path d="M2.60085 37.633C2.40067 37.3327 1.0995 31.5275 1.0995 31.5275C1.0995 31.5275 0.498965 29.9261 3.60175 29.1254C6.50435 28.3247 9.40696 27.5239 9.40696 27.5239C9.40696 27.5239 10.9083 26.0226 13.8109 25.2219C16.7135 24.5212 23.8199 22.6195 23.8199 22.6195C23.8199 22.6195 24.1202 21.8188 26.0219 21.2183C27.9236 20.6177 47.6413 14.6123 49.0425 14.212C50.4438 13.8116 52.0452 14.4122 52.0452 14.4122L63.1552 11.2093C63.1552 11.2093 65.4573 9.20749 68.2598 8.60695C71.0623 8.00641 84.6745 4.70345 85.4752 4.50327C86.2759 4.30309 87.477 5.10381 87.477 5.10381C87.477 5.10381 95.8846 2.90183 96.6853 2.80174C97.3859 2.60156 99.9883 3.40228 99.9883 3.40228C99.9883 3.40228 105.093 1.50057 105.894 1.50057C106.694 1.50057 108.196 0.399586 108.796 1.90093C109.397 3.50237 110.798 7.70614 110.798 7.70614C110.798 7.70614 111.198 9.00731 108.996 9.90812C106.794 10.8089 94.4833 15.2129 94.183 15.313C93.8828 15.4131 91.3805 16.3139 91.3805 16.3139L90.0794 15.7133C90.0794 15.7133 73.6646 21.4185 73.4645 21.6186C73.2643 21.8188 73.0641 22.6195 73.0641 22.6195C73.0641 22.6195 53.0461 30.1263 50.644 30.927C48.2418 31.7277 36.9317 34.5302 29.1247 35.6312C21.4177 36.7322 2.60085 37.633 2.60085 37.633Z" stroke="#043F98" stroke-miterlimit="10" stroke-linejoin="round"/>
<path d="M1 31.0007C5.19849 30.3744 29.3253 26.4233 31.9277 26.023C34.6301 25.6226 45.7401 23.5207 51.9456 21.4188C58.1512 19.317 108.096 1.70114 108.396 1.30078" stroke="#043F98" stroke-miterlimit="10" stroke-linejoin="round"/>
<path d="M72.5641 22.5192C72.3639 22.4191 72.0636 21.0179 72.0636 21.0179C72.0636 21.0179 71.7634 20.5174 72.9644 20.017C74.1655 19.5165 89.6794 13.9115 90.0798 13.8114C90.4802 13.7113 90.7804 14.0116 90.9806 14.4119C91.1808 14.8123 91.6812 16.0134 91.6812 16.0134" stroke="#043F98" stroke-width="0.25" stroke-miterlimit="10" stroke-linejoin="round"/>
<path d="M72.0641 23.0204C71.964 22.9203 71.3634 20.7183 71.3634 20.7183C71.3634 20.7183 71.0632 20.2179 72.2642 19.7174C73.4653 19.217 88.9793 13.6119 89.3796 13.5118C89.78 13.4117 90.4806 13.6119 90.6808 14.0123" stroke="#043F98" stroke-width="0.25" stroke-miterlimit="10" stroke-linejoin="round"/>
<path d="M98.5002 3.5C98.2 3.60009 58.2516 17.3145 55.9495 18.1152C53.6474 18.9159 43.9387 21.6183 38.734 22.7193C33.5294 23.8203 9.50781 27.6237 9.50781 27.6237" stroke="#043F98" stroke-width="0.25" stroke-miterlimit="10" stroke-linejoin="round"/>
<path d="M96.5004 3.5C96.2001 3.60009 58.2517 16.2136 55.8495 17.0143C53.5475 17.815 43.8388 20.5174 38.6341 21.6184C33.3293 22.7194 11.3096 26.3226 11.3096 26.3226" stroke="#043F98" stroke-width="0.25" stroke-miterlimit="10" stroke-linejoin="round"/>
<path d="M95.4996 13.9999C95.3995 13.7997 94.2833 10.8086 93.6827 9.20712C93.5826 8.80676 93.7828 8.4064 94.1832 8.20622L96.7855 7.20532C97.1859 7.00514 97.6863 7.30541 97.7864 7.70577L99.6033 12.5986" stroke="#043F98" stroke-width="0.25" stroke-miterlimit="10" stroke-linejoin="round"/>
<path d="M65.8584 35.3313C65.8584 35.3313 66.3588 34.4305 68.5608 33.6297C70.7628 32.829 85.7763 27.3241 86.6771 27.0238C87.5779 26.7235 89.98 27.224 89.98 28.1248C90.0801 29.0256 71.1632 35.6315 69.862 36.0319C68.5608 36.4323 65.9585 37.0328 65.8584 35.3313Z" fill="white" stroke="#043F98" stroke-width="0.5" stroke-miterlimit="10" stroke-linejoin="round"/>
<path d="M14.2119 37.0324C14.5122 36.9323 46.1406 46.3407 47.3416 46.8412C48.6428 47.3416 53.0468 48.3425 59.3524 46.0405C65.7582 43.8385 78.2694 38.4336 78.2694 38.4336C78.2694 38.4336 107.896 27.3237 109.497 26.4228C111.099 25.522 113.201 24.0207 109.798 22.8196C106.395 21.6185 91.181 20.1172 91.181 20.1172" stroke="#043F98" stroke-width="0.5" stroke-miterlimit="10" stroke-linejoin="round"/>
<path d="M102.892 22.0186C103.292 22.1186 106.295 23.0195 107.696 24.5208C109.097 26.0221 109.097 26.6227 109.097 26.6227" stroke="#043F98" stroke-width="0.25" stroke-miterlimit="10" stroke-linejoin="round"/>
<path d="M113.501 47.8418L111.899 49.143L110.798 64.0563C110.798 64.0563 110.899 65.0572 109.998 65.4576L101.89 69.5613L100.89 70.9625L99.2881 71.7633" stroke="#043F98" stroke-miterlimit="10" stroke-linejoin="round"/>
<path d="M68.7607 67.4599L74.9663 64.9576C74.9663 64.9576 77.0682 64.0568 78.0691 65.8584" stroke="#043F98" stroke-width="0.5" stroke-miterlimit="10" stroke-linejoin="round"/>
<path d="M97.3862 69.9621C97.3862 69.9621 96.6855 69.862 96.6855 69.1613C96.6855 68.4607 96.8988 56.8851 96.8988 56.8851C96.8988 56.8851 96.9989 55.684 97.9998 55.2837C99.0007 54.8833 110.898 49.5437 110.898 49.5437C110.898 49.5437 111.699 49.3435 111.699 50.1443C111.699 50.945 110.698 63.1559 110.698 63.1559C110.698 63.1559 110.598 63.7565 109.397 64.2569L101.29 68.3606L100.489 69.3615L98.8875 70.1622" stroke="#043F98" stroke-width="0.5" stroke-miterlimit="10" stroke-linejoin="round"/>
<path d="M98.487 59.052C98.487 59.2522 98.3869 66.1584 98.3869 66.1584C98.3869 66.1584 98.1867 67.0592 99.7882 66.5587C101.089 66.1584 106.995 63.2558 108.996 62.2549C109.397 62.0547 109.697 61.6543 109.697 61.1539L110.198 53.447C110.198 53.447 110.097 52.6462 108.496 53.2468C106.895 53.8473 99.1876 57.5506 99.1876 57.5506C99.1876 57.5506 98.5871 57.7508 98.487 59.052Z" stroke="#043F98" stroke-width="0.25" stroke-miterlimit="10" stroke-linejoin="round"/>
<path d="M98.8877 65.4575L108.296 61.0536C108.296 61.0536 108.897 60.6532 108.897 60.1528C108.897 59.5522 109.297 53.1465 109.297 53.1465" stroke="#043F98" stroke-width="0.25" stroke-miterlimit="10" stroke-linejoin="round"/>
</svg>
