<svg width="99" height="64" viewBox="0 0 99 64" fill="none" xmlns="http://www.w3.org/2000/svg">
<path d="M1.69574 12.7508C2.52501 6.85398 7.40577 2.36504 13.3512 2.031L49.5 0L85.6488 2.031C91.5942 2.36504 96.475 6.85398 97.3043 12.7508C99.0926 25.4676 99.0926 38.3721 97.3043 51.0888C96.475 56.9856 91.5942 61.4746 85.6488 61.8086L49.5 63.8396L13.3512 61.8086C7.40578 61.4746 2.52501 56.9856 1.69574 51.0888C-0.0926198 38.3721 -0.0926198 25.4676 1.69574 12.7508Z" fill="white"/>
<path d="M2.23346 12.8264C3.02664 7.18623 7.69499 2.89266 13.3817 2.57316L49.5 0.543867L85.6183 2.57316C91.305 2.89266 95.9734 7.18623 96.7665 12.8264C98.5478 25.493 98.5478 38.3466 96.7665 51.0132C95.9734 56.6534 91.305 60.947 85.6183 61.2665L49.5 63.2958L13.3817 61.2665C7.69499 60.947 3.02664 56.6534 2.23346 51.0132C0.452155 38.3466 0.452155 25.493 2.23346 12.8264Z" stroke="#E2E6F1" stroke-opacity="0.77" stroke-width="1.08602"/>
</svg>
