<svg width="50" height="45" viewBox="0 0 50 45" fill="none" xmlns="http://www.w3.org/2000/svg">
<path d="M37.8835 13.2094C37.8683 16.7093 36.4125 19.8681 34.0467 22.1519C31.696 24.4357 28.4507 25.8446 24.8716 25.8298C21.9751 25.8149 19.2908 24.8806 17.1373 23.2938C18.2292 23.4718 19.3666 23.368 20.413 22.9972C21.7779 23.5904 23.2793 23.9315 24.8716 23.9315C27.9199 23.9464 30.68 22.7451 32.6818 20.8024C34.6836 18.8597 35.9272 16.1754 35.9423 13.1946C35.9423 12.379 35.8513 11.593 35.6845 10.8366C35.3054 11.5188 34.7594 12.1268 34.0922 12.6014C31.8174 14.1586 29.2999 14.3217 26.7521 14.2179C26.7976 14.0547 26.8431 13.8916 26.9038 13.7137C27.0403 13.2688 27.1616 12.809 27.3133 12.3493C29.3606 12.3938 31.3321 12.1862 32.9851 11.0591C34.259 10.1841 34.8959 8.3007 33.9557 6.99566C33.0154 5.67579 30.9984 5.61647 29.7094 6.49144C27.4346 8.04859 26.6308 10.7476 25.8422 13.4319C24.9626 16.4572 24.0679 19.4677 21.232 21.4104C20.1401 22.1668 18.7752 22.4485 17.5013 22.2854C13.5128 21.7663 11.9356 16.4572 11.9508 13.1205C11.966 9.62057 13.4218 6.46178 15.7876 4.17796C18.1534 1.89414 21.3988 0.485286 24.9778 0.500116C27.8744 0.514946 30.5435 1.44924 32.6969 3.03605C31.605 2.85809 30.4676 2.9619 29.4212 3.33265C28.0564 2.73945 26.555 2.39836 24.9626 2.39836C21.9144 2.38353 19.1543 3.58476 17.1525 5.52749C15.1658 7.45539 13.9071 10.1544 13.9071 13.1205C13.9071 13.9361 13.9981 14.7221 14.1649 15.4933C14.5441 14.8111 15.09 14.1882 15.7573 13.7285C18.0321 12.1713 20.5495 12.0082 23.0973 12.112C23.0518 12.2751 22.9911 12.4383 22.9456 12.6162C22.8092 13.0611 22.6878 13.5209 22.5362 13.9806C20.4889 13.9361 18.5174 14.1437 16.8644 15.2708C15.5905 16.1458 14.9535 18.0292 15.8938 19.3342C16.834 20.6393 18.8662 20.7134 20.1401 19.8384C22.4149 18.2813 23.2035 15.5822 24.0072 12.898C24.8868 9.87268 25.7816 6.86219 28.6175 4.91946C29.7245 4.16313 31.0743 3.86653 32.3481 4.04449C36.3215 4.57837 37.8987 9.88751 37.8835 13.2094Z" fill="white"/>
<path d="M1.72884 31.9696H4.79222C4.9287 31.9696 5.03486 31.9993 5.11069 32.0437C5.18651 32.1031 5.21684 32.1921 5.21684 32.3107C5.21684 32.4293 5.17135 32.5183 5.09552 32.5776C5.01969 32.637 4.91354 32.6666 4.77705 32.6666H1.72884V31.9696ZM0 31.5988C0 32.7704 0 33.9272 0 35.0989C0 35.6328 0.227479 35.8997 0.894749 35.8997H5.24717C5.86895 35.8997 6.30874 35.7959 6.58171 35.5734C6.85469 35.351 6.97601 34.9802 6.97601 34.4611C6.97601 33.8531 6.7182 33.4527 6.20258 33.2302C6.3694 33.156 6.50589 33.0374 6.61204 32.8594C6.7182 32.6815 6.77886 32.4442 6.77886 32.1772C6.77886 31.5692 6.59688 31.1539 6.23291 30.9314C5.99027 30.7831 5.59597 30.709 5.05002 30.709C3.65482 30.709 2.30512 30.709 0.92508 30.709C0.31847 30.7238 0.0303305 30.9611 0 31.5988ZM1.72884 33.8383H4.73155C4.89837 33.8383 5.01969 33.8679 5.11069 33.9272C5.20168 33.9866 5.24717 34.1052 5.24717 34.2683C5.24717 34.5353 5.08036 34.6539 4.74672 34.6539H1.72884V33.8383Z" fill="white"/>
<path d="M13.9367 33.2748C13.9367 32.9782 13.9367 32.6223 13.7698 32.3702C13.4969 31.9846 12.9358 31.9698 11.9955 31.9549C11.0704 31.9698 10.5093 31.9846 10.2363 32.3702C10.0544 32.6223 10.0544 33.0078 10.0695 33.3044C10.0695 33.601 10.0695 33.9569 10.2363 34.209C10.5093 34.5798 11.0704 34.6243 11.9955 34.6539C12.9358 34.6243 13.4969 34.5946 13.7698 34.209C13.9367 33.9569 13.9367 33.5862 13.9367 33.2748ZM8.28003 33.2748C8.29519 32.0291 8.56817 31.5249 8.97763 31.1096C9.6449 30.4275 11.0401 30.472 11.9652 30.472C12.9206 30.472 14.331 30.4126 15.0286 31.1096C15.438 31.5249 15.711 32.0291 15.7262 33.3044C15.711 34.5501 15.438 35.0543 15.0286 35.4696C14.3613 36.1369 12.9206 36.1369 11.9955 36.1369C11.0704 36.1369 9.62974 36.1369 8.96247 35.4696C8.553 35.0692 8.28003 34.5501 8.28003 33.2748Z" fill="white"/>
<path d="M21.414 36.0775C21.8841 36.0479 22.3088 35.9441 22.6121 35.8551C23.2338 35.6475 23.5826 35.3509 23.8101 34.817C23.9011 34.5946 23.9466 34.2683 23.9314 33.8531H22.1874C22.1419 34.6539 21.05 34.6094 20.3979 34.6242C19.7155 34.6242 18.8814 34.6094 18.7904 33.8234C18.7753 33.6751 18.7601 33.4972 18.7601 33.2896C18.7601 33.0819 18.7753 32.904 18.7904 32.7557C18.8814 31.9845 19.7155 31.9549 20.3979 31.9549C21.05 31.9549 22.1419 31.9104 22.1874 32.726H23.9314C23.9466 32.3108 23.9011 31.9845 23.8101 31.7621C23.5826 31.243 23.2338 30.9316 22.6121 30.724C22.3088 30.6202 21.8993 30.5164 21.414 30.5016C19.9581 30.4274 17.5317 30.2791 17.1526 32.0142C17.0767 32.3404 17.0312 32.6815 17.0312 33.2747V33.3044C17.0312 33.8976 17.0767 34.2387 17.1526 34.5649C17.5317 36.3 19.9733 36.1517 21.414 36.0775Z" fill="white"/>
<path d="M33.2422 30.7231H36.1994L37.5188 33.615C37.7917 34.1933 37.6249 34.0895 37.8979 33.6298L39.2628 30.738H42.0683V35.9136H40.4305V31.8354L38.8836 34.9051C38.4893 35.7208 38.4893 35.8987 37.6704 35.8987C37.079 35.8839 36.9577 35.7208 36.5785 35.0238L34.88 31.8205V35.8987H33.2422V30.7231Z" fill="white"/>
<path d="M45.648 33.334L45.6784 34.565H48.0442C48.4536 34.565 48.5901 34.3573 48.5749 33.9421C48.5598 33.5268 48.393 33.3192 47.9835 33.3192H45.648V33.334ZM43.9343 35.8997V30.709H45.6632V31.9844H48.0138C49.409 31.9844 50.0157 32.4738 49.9853 33.9421C49.9702 35.4103 49.3636 35.8997 47.9228 35.8997H43.9343Z" fill="white"/>
<path d="M25.5078 34.9793C25.5078 33.8819 25.5078 32.7697 25.5078 31.6723C25.5078 30.9308 25.8869 30.7231 26.4632 30.7231C28.1617 30.7231 29.6479 30.7231 31.3464 30.7231C31.3464 31.1384 31.3464 31.5536 31.3464 31.9837C29.9057 31.9837 28.6774 31.9837 27.2367 31.9837C27.2367 32.221 27.2367 32.4582 27.2367 32.6955C28.6167 32.6955 29.7844 32.6955 31.1493 32.6955C31.1493 33.1107 31.1493 33.526 31.1493 33.9412C29.7692 33.9412 28.6015 33.9412 27.2367 33.9412C27.2367 34.1785 27.2367 34.4158 27.2367 34.653C28.6774 34.653 29.9057 34.653 31.3464 34.653C31.3464 35.0683 31.3464 35.4835 31.3464 35.9136C29.6328 35.9136 28.1314 35.9136 26.4177 35.9136C25.8111 35.8987 25.5078 35.617 25.5078 34.9793Z" fill="white"/>
<path d="M1.51654 39.1914H5.67187C6.74862 39.2211 7.17325 40.0368 7.18841 40.9267C7.18841 42.0687 7.18841 43.2255 7.18841 44.3675H5.45955V41.3716C5.45955 40.6597 5.24724 40.5114 4.61029 40.5114C3.94301 40.5114 3.26057 40.5114 2.59329 40.5114C1.95634 40.5114 1.74402 40.6449 1.74402 41.3716V44.3675H0C0 43.2107 0 42.0687 0 40.9267C0.0151654 40.022 0.439797 39.2211 1.51654 39.1914Z" fill="white"/>
<path d="M20.3222 42.1725L22.4605 42.1576C21.2776 39.8736 21.5657 39.7402 20.3222 42.1725ZM21.3837 39.1914C22.4605 39.1914 22.6879 39.2656 23.2794 40.1999L25.5238 44.3675H23.6282L23.0974 43.5073H19.6701L19.1393 44.3675H17.2437L19.4881 40.1999C20.0947 39.2507 20.307 39.1914 21.3837 39.1914Z" fill="white"/>
<path d="M26.8726 39.1768H28.6014V40.9859H31.7558V39.1768H33.4846V44.3522H31.7558V42.3354H28.6014V44.3522H26.8726V39.1768Z" fill="white"/>
<path d="M43.2971 40.5263V39.1768H50.0002V40.5263H47.513V44.3672H45.7842V40.5263H43.2971Z" fill="white"/>
<path d="M15.9084 39.2062V44.3671C15.3169 44.3671 14.7255 44.3671 14.1492 44.3671C14.1492 43.0917 14.1492 41.8311 14.1492 40.5558H11.9351C11.7076 40.5558 11.5863 40.7041 11.5559 40.8969L11.3588 43.2845C11.2981 44.0408 10.646 44.4264 9.9181 44.4264C9.5238 44.4264 9.15983 44.3967 8.81104 44.3522C8.81104 43.9667 8.81104 43.5663 8.81104 43.1658H9.25083C9.46314 43.1658 9.64512 43.0472 9.66029 42.8396L9.9181 39.9626C9.94843 39.4732 10.2366 39.1914 10.828 39.1914H15.9084" fill="white"/>
<path d="M35.426 43.4476C35.426 42.3502 35.426 41.2379 35.426 40.1405C35.426 39.399 35.8052 39.1914 36.3814 39.1914C38.0799 39.1914 39.5661 39.1914 41.2646 39.1914C41.2646 39.6066 41.2646 40.0219 41.2646 40.4519C39.8239 40.4519 38.5956 40.4519 37.1549 40.4519C37.1549 40.6892 37.1549 40.9265 37.1549 41.1638C38.5349 41.1638 39.7026 41.1638 41.0675 41.1638C41.0675 41.579 41.0675 41.9942 41.0675 42.4095C39.6875 42.4095 38.5197 42.4095 37.1549 42.4095C37.1549 42.6467 37.1549 42.884 37.1549 43.1213C38.5956 43.1213 39.8239 43.1213 41.2646 43.1213C41.2646 43.5365 41.2646 43.9518 41.2646 44.3818C39.551 44.3818 38.0496 44.3818 36.3359 44.3818C35.7142 44.367 35.426 44.0704 35.426 43.4476Z" fill="white"/>
</svg>
