<svg width="117" height="80" viewBox="0 0 117 80" fill="none" xmlns="http://www.w3.org/2000/svg">
<path d="M40.549 3.29613C39.4912 3.29613 38.5295 3.71284 37.8243 4.38599C37.0871 3.52052 35.9972 2.97559 34.7791 2.97559C32.5674 2.97559 30.7723 4.77065 30.7723 6.98242C30.7723 7.14269 30.7723 7.27091 30.8043 7.43118C30.3556 7.23886 29.8427 7.14269 29.3298 7.14269C27.1181 7.14269 25.323 8.93775 25.323 11.1495C25.323 13.3613 27.1181 15.1564 29.3298 15.1564C31.5416 15.1564 33.3367 13.3613 33.3367 11.1495C33.3367 10.9893 33.3367 10.861 33.3046 10.7008C33.7534 10.8931 34.2662 10.9893 34.7791 10.9893C35.8369 10.9893 36.7986 10.5725 37.5038 9.89939C38.241 10.7649 39.3309 11.3098 40.549 11.3098C42.7607 11.3098 44.5558 9.51474 44.5558 7.30297C44.5558 5.09119 42.7607 3.29613 40.549 3.29613Z" fill="#4BA3D5"/>
<path d="M32.7919 23.4586C34.1062 22.2725 34.9396 20.5736 34.9396 18.6824C34.9396 15.1564 32.0547 12.2715 28.5286 12.2715C26.6374 12.2715 24.9706 13.0729 23.7846 14.3871C22.3742 13.0729 20.515 12.2715 18.4314 12.2715C14.1041 12.2715 10.578 15.7975 10.578 20.1249C10.578 20.5095 10.6101 20.8942 10.6742 21.2788C9.55229 20.2852 8.04572 19.6441 6.41093 19.6441C2.88492 19.6441 0 22.529 0 26.055C0 29.581 2.88492 32.4659 6.41093 32.4659H37.8245L32.7919 23.4586Z" fill="#A9DDFD"/>
<path d="M33.7541 24.9009C35.0683 23.7149 35.9017 22.016 35.9017 20.1248C35.9017 16.5988 33.0168 13.7139 29.4908 13.7139C27.5996 13.7139 25.9327 14.5152 24.7467 15.8295C23.3363 14.5152 21.4771 13.7139 19.3936 13.7139C15.0662 13.7139 11.5402 17.2399 11.5402 21.5673C11.5402 21.9519 11.5723 22.3366 11.6364 22.7212C10.5144 21.7275 9.00788 21.0864 7.37309 21.0864C3.84708 21.0864 0.962158 23.9714 0.962158 27.4974C0.962158 31.0234 3.84708 33.9083 7.37309 33.9083H38.7867L33.7541 24.9009Z" fill="#6ABDEE"/>
<path d="M116.999 15.3166C116.999 11.6945 114.05 8.74543 110.428 8.74543C108.729 8.74543 107.191 9.38652 106.037 10.4443C106.069 10.1558 106.101 9.86734 106.101 9.54679C106.101 5.92461 103.152 2.97559 99.5297 2.97559C98.0231 2.97559 96.6447 3.48846 95.5228 4.35394C94.4009 3.48846 93.0226 2.97559 91.516 2.97559C88.567 2.97559 86.0667 4.93092 85.2333 7.59146C84.496 7.30297 83.6947 7.14269 82.8612 7.14269C79.2391 7.14269 76.29 10.0917 76.29 13.7139C76.29 15.8616 77.3158 17.7848 78.9185 18.9709C77.7004 20.6377 76.9311 21.8878 76.9311 21.8878H110.589C114.147 21.7917 116.999 18.8747 116.999 15.3166Z" fill="#9CD9F7"/>
<path d="M116.039 16.1184C116.039 12.4962 113.09 9.54718 109.468 9.54718C107.769 9.54718 106.23 10.1883 105.076 11.2461C105.108 10.9576 105.14 10.6691 105.14 10.3485C105.14 6.72637 102.191 3.77734 98.569 3.77734C97.0624 3.77734 95.6841 4.29022 94.5621 5.15569C93.4402 4.29022 92.0619 3.77734 90.5553 3.77734C87.6063 3.77734 85.106 5.73268 84.2726 8.39322C83.5353 8.10472 82.734 7.94445 81.9006 7.94445C78.2784 7.94445 75.3293 10.8935 75.3293 14.5157C75.3293 16.6633 76.3551 18.5866 77.9578 19.7726C76.7397 21.4395 75.9704 22.6896 75.9704 22.6896H109.628C113.186 22.5934 116.039 19.6765 116.039 16.1184Z" fill="#4BA3D5"/>
<path d="M102.094 24.1314C101.165 24.1314 100.331 24.5481 99.7542 25.2212C99.9145 24.7725 100.011 24.2916 100.011 23.8108C100.011 21.5029 98.1515 19.6437 95.8435 19.6437C95.3948 19.6437 94.9781 19.7078 94.5614 19.836C93.8562 18.041 92.1252 16.7588 90.0737 16.7588C87.4132 16.7588 85.2655 18.9065 85.2655 21.567C85.2655 21.9196 85.2976 22.2722 85.3937 22.6248C85.3296 22.6248 85.2655 22.6248 85.2655 22.6248C85.2655 22.6248 81.4189 24.4519 81.4189 25.093C81.4189 25.7341 82.7011 30.2217 82.7011 30.2217C83.3422 30.2217 101.934 30.2217 101.934 30.2217C101.998 30.2217 102.03 30.2217 102.094 30.2217C103.761 30.2217 105.139 28.8434 105.139 27.1766C105.139 25.5097 103.761 24.1314 102.094 24.1314Z" fill="#A9DDFD"/>
<path d="M101.614 24.9331C100.684 24.9331 99.8507 25.3498 99.2737 26.023C99.434 25.5742 99.5302 25.0934 99.5302 24.6126C99.5302 22.3046 97.671 20.4455 95.3631 20.4455C94.9143 20.4455 94.4976 20.5096 94.0809 20.6378C93.3757 18.8427 91.6447 17.5605 89.5932 17.5605C86.9327 17.5605 84.785 19.7082 84.785 22.3687C84.785 22.7213 84.8171 23.0739 84.9133 23.4265C84.8491 23.4265 84.785 23.4265 84.785 23.4265C84.785 23.4265 80.9385 25.2537 80.9385 25.8948C80.9385 26.5359 82.2207 31.0235 82.2207 31.0235C82.8618 31.0235 101.453 31.0235 101.453 31.0235C101.518 31.0235 101.55 31.0235 101.614 31.0235C103.281 31.0235 104.659 29.6452 104.659 27.9783C104.659 26.3115 103.281 24.9331 101.614 24.9331Z" fill="#6ABDEE"/>
<path d="M57.8584 71.2519C77.4205 71.2519 93.2788 55.3937 93.2788 35.8315C93.2788 16.2694 77.4205 0.411133 57.8584 0.411133C38.2962 0.411133 22.438 16.2694 22.438 35.8315C22.438 55.3937 38.2962 71.2519 57.8584 71.2519Z" fill="url(#paint0_radial_1553_23114)"/>
<path d="M74.3665 67.1814C74.2703 67.2134 83.0213 67.7263 83.9829 65.1619C84.9445 62.5976 82.0917 61.668 82.0917 61.668C82.0917 61.668 77.604 65.9633 74.3665 67.1814Z" fill="url(#paint1_linear_1553_23114)"/>
<path d="M71.1622 55.2892C71.9315 54.7443 72.4444 53.8468 72.4444 52.821C72.4444 51.1542 71.0661 49.7758 69.3992 49.7758C69.1428 49.7758 68.8863 49.8079 68.6299 49.872C68.117 48.686 66.931 47.8525 65.5527 47.8525C64.559 47.8525 63.6614 48.2692 63.0524 48.9745C62.3792 48.3013 61.4497 47.8525 60.4239 47.8525C58.4045 47.8525 56.7697 49.4873 56.7376 51.5068C56.2247 51.2183 55.6157 51.058 54.9746 51.058C52.9231 51.058 51.2883 52.6928 51.2883 54.7443C51.2883 56.7317 52.859 58.3344 54.8143 58.4306H73.406L71.1622 55.2892Z" fill="#9CD9F7"/>
<path d="M72.444 56.4113C73.2133 55.8664 73.7261 54.9688 73.7261 53.9431C73.7261 52.2762 72.3478 50.8979 70.681 50.8979C70.4245 50.8979 70.1681 50.9299 69.9116 50.9941C69.3988 49.808 68.2127 48.9746 66.8344 48.9746C65.8407 48.9746 64.9432 49.3913 64.3341 50.0965C63.661 49.4234 62.7314 48.9746 61.7056 48.9746C59.6862 48.9746 58.0514 50.6094 58.0194 52.6288C57.5065 52.3403 56.8974 52.1801 56.2564 52.1801C54.2049 52.1801 52.5701 53.8149 52.5701 55.8664C52.5701 57.8538 54.1407 59.4565 56.0961 59.5526H74.6878L72.444 56.4113Z" fill="#4BA3D5"/>
<path d="M58.4747 23.4966C58.4747 24.8108 58.09 25.8366 57.3528 26.5418C56.6155 27.247 55.5256 27.5996 54.1152 27.5996H51.8394V19.5859H54.3396C55.6539 19.5859 56.6476 19.9385 57.3848 20.6117C58.1221 21.2848 58.4747 22.2465 58.4747 23.4966ZM56.7117 23.5287C56.7117 21.7977 55.9423 20.9643 54.4358 20.9643H53.5382V26.1892H54.2755C55.9103 26.1571 56.7117 25.2917 56.7117 23.5287Z" fill="#2E5D9C"/>
<path d="M64.275 21.3486C64.4994 21.3486 64.6917 21.3807 64.852 21.4127L64.7238 22.9834C64.5955 22.9514 64.4353 22.9193 64.2429 22.9193C63.698 22.9193 63.2813 23.0475 62.9928 23.336C62.7043 23.6245 62.544 24.0092 62.544 24.49V27.5993H60.8772V21.4448H62.1273L62.3838 22.4705H62.4799C62.6723 22.1179 62.9287 21.8615 63.2492 21.6371C63.5377 21.4448 63.8903 21.3486 64.275 21.3486Z" fill="#2E5D9C"/>
<path d="M66.5515 26.7977C66.5515 26.4772 66.6477 26.2528 66.808 26.0925C66.9682 25.9323 67.2247 25.8682 67.5132 25.8682C67.8016 25.8682 68.0581 25.9643 68.2184 26.1246C68.3786 26.2849 68.4748 26.5093 68.4748 26.8298C68.4748 27.1183 68.3786 27.3427 68.2184 27.503C68.0581 27.6632 67.8016 27.7594 67.5132 27.7594C67.1926 27.7594 66.9682 27.6632 66.808 27.503C66.6477 27.3106 66.5515 27.0862 66.5515 26.7977Z" fill="#2E5D9C"/>
<path d="M39.8502 34.7154C39.8502 36.0296 39.4655 37.0553 38.7282 37.7606C37.991 38.4658 36.9011 38.8184 35.4907 38.8184H33.2148V30.8047H35.7151C37.0293 30.8047 38.023 31.1573 38.7603 31.8304C39.4976 32.5036 39.8502 33.4652 39.8502 34.7154ZM38.0872 34.7474C38.0872 33.0165 37.3178 32.183 35.8113 32.183H34.9137V37.4079H35.651C37.2858 37.3759 38.0872 36.5104 38.0872 34.7474Z" fill="#2E5D9C"/>
<path d="M42.1589 31.0934C42.1589 30.5484 42.4474 30.292 43.0565 30.292C43.6655 30.292 43.954 30.5484 43.954 31.0934C43.954 31.3498 43.8899 31.5421 43.7296 31.7024C43.5693 31.8627 43.345 31.9268 43.0565 31.9268C42.4795 31.8947 42.1589 31.6383 42.1589 31.0934ZM43.8899 38.7865H42.223V32.664H43.8899V38.7865Z" fill="#2E5D9C"/>
<path d="M50.7798 36.9599C50.7798 37.6009 50.5555 38.0818 50.1387 38.4023C49.69 38.7229 49.0489 38.8831 48.1834 38.8831C47.7346 38.8831 47.35 38.8511 47.0294 38.787C46.7089 38.7229 46.4204 38.6267 46.1319 38.5305V37.1522C46.4525 37.3125 46.8051 37.4086 47.1897 37.5048C47.5744 37.6009 47.927 37.6651 48.2155 37.6651C48.8245 37.6651 49.113 37.5048 49.113 37.1522C49.113 37.024 49.0809 36.9278 48.9848 36.8316C48.8886 36.7355 48.7604 36.6714 48.5681 36.5431C48.3757 36.447 48.1193 36.3188 47.7667 36.1905C47.2859 35.9982 46.9653 35.8059 46.7409 35.6456C46.5166 35.4853 46.3563 35.293 46.2601 35.0686C46.164 34.8442 46.0999 34.5878 46.0999 34.2673C46.0999 33.7223 46.3242 33.3056 46.7409 33.0171C47.1577 32.7286 47.7667 32.5684 48.536 32.5684C49.2733 32.5684 49.9785 32.7286 50.6837 33.0492L50.1708 34.2673C49.8502 34.139 49.5618 34.0429 49.3053 33.9467C49.0489 33.8505 48.7604 33.8185 48.504 33.8185C48.0231 33.8185 47.7667 33.9467 47.7667 34.2031C47.7667 34.3634 47.8308 34.4916 47.9911 34.5878C48.1514 34.684 48.504 34.8442 49.0489 35.0686C49.5297 35.261 49.8823 35.4533 50.1067 35.6136C50.3311 35.7738 50.4913 35.9662 50.5875 36.1905C50.7157 36.4149 50.7798 36.6714 50.7798 36.9599Z" fill="#2E5D9C"/>
<path d="M55.3966 38.9152C53.5053 38.9152 52.5437 37.8574 52.5437 35.7738C52.5437 34.7481 52.8001 33.9467 53.313 33.4018C53.8259 32.8569 54.5631 32.5684 55.5568 32.5684C56.262 32.5684 56.9031 32.6966 57.4481 32.9851L56.9672 34.2673C56.7108 34.1711 56.4544 34.0749 56.23 34.0108C56.0056 33.9467 55.7812 33.9147 55.5568 33.9147C54.6914 33.9147 54.2426 34.5237 54.2426 35.7738C54.2426 36.9598 54.6914 37.5689 55.5568 37.5689C55.8774 37.5689 56.1659 37.5368 56.4544 37.4407C56.7429 37.3445 56.9993 37.2163 57.2878 37.024V38.4664C57.0314 38.6267 56.7429 38.7549 56.4544 38.819C56.1659 38.8831 55.8133 38.9152 55.3966 38.9152Z" fill="#2E5D9C"/>
<path d="M65.0772 35.7094C65.0772 36.7031 64.8207 37.4724 64.2758 38.0494C63.7629 38.6263 63.0257 38.8828 62.064 38.8828C61.487 38.8828 60.9421 38.7546 60.4933 38.4981C60.0446 38.2417 59.692 37.857 59.4676 37.3762C59.2432 36.8954 59.115 36.3184 59.115 35.6773C59.115 34.6836 59.3714 33.9143 59.8843 33.3373C60.3972 32.7924 61.1344 32.5039 62.0961 32.5039C62.6731 32.5039 63.218 32.6321 63.6668 32.8886C64.1155 33.145 64.4681 33.4976 64.6925 33.9784C64.981 34.5233 65.0772 35.0683 65.0772 35.7094ZM60.8459 35.7094C60.8459 36.3184 60.9421 36.7672 61.1344 37.0877C61.3268 37.4083 61.6473 37.5685 62.0961 37.5685C62.5448 37.5685 62.8654 37.4083 63.0577 37.1198C63.25 36.7992 63.3462 36.3505 63.3462 35.7414C63.3462 35.1324 63.25 34.6836 63.0577 34.3631C62.8654 34.0746 62.5448 33.9143 62.0961 33.9143C61.6473 33.9143 61.3268 34.0746 61.1344 34.3631C60.9421 34.6516 60.8459 35.1003 60.8459 35.7094Z" fill="#2E5D9C"/>
<path d="M71.6476 38.7865L71.4232 38.0172H71.327C71.1347 38.3057 70.9103 38.5301 70.5577 38.6903C70.2372 38.8506 69.8525 38.9147 69.4358 38.9147C68.7306 38.9147 68.1857 38.7224 67.801 38.3377C67.4484 37.9531 67.2561 37.4082 67.2561 36.6709V32.6641H68.9229V36.2542C68.9229 36.7029 68.9871 37.0235 69.1473 37.2479C69.3076 37.4723 69.564 37.5684 69.8846 37.5684C70.3654 37.5684 70.686 37.4082 70.9103 37.0876C71.1027 36.7671 71.2309 36.2542 71.2309 35.549V32.6641H72.8977V38.7865H71.6476Z" fill="#2E5D9C"/>
<path d="M81.169 38.7868H79.5021V35.1967C79.5021 34.7479 79.438 34.4274 79.2777 34.203C79.1175 33.9786 78.861 33.8824 78.5405 33.8824C78.0597 33.8824 77.7391 34.0427 77.5147 34.3633C77.3224 34.6838 77.1942 35.1967 77.1942 35.9019V38.7868H75.5273V32.6644H76.8095L77.0339 33.4337H77.1301C77.3224 33.1452 77.5788 32.9208 77.8994 32.7605C78.2199 32.6002 78.6046 32.5361 79.0213 32.5361C79.7265 32.5361 80.2714 32.7285 80.6561 33.1131C81.0407 33.4978 81.201 34.0427 81.201 34.78V38.7868H81.169Z" fill="#2E5D9C"/>
<path d="M86.3297 37.5686C86.6182 37.5686 86.9708 37.5044 87.3875 37.3762V38.6264C86.9708 38.8187 86.458 38.9149 85.8489 38.9149C85.1758 38.9149 84.6949 38.7546 84.3744 38.402C84.0539 38.0494 83.9256 37.5686 83.9256 36.8954V33.9464H83.1243V33.2412L84.0539 32.6962L84.5347 31.4141H85.5925V32.7283H87.2914V33.9784H85.5925V36.9275C85.5925 37.1518 85.6566 37.3442 85.7848 37.4403C85.913 37.5044 86.1054 37.5686 86.3297 37.5686Z" fill="#2E5D9C"/>
<path d="M57.8594 22.5698C57.8594 23.8841 57.4748 24.9098 56.7375 25.615C56.0003 26.3202 54.9104 26.6728 53.5 26.6728H51.2241V18.6592H53.7244C55.0386 18.6592 56.0323 19.0118 56.7696 19.6849C57.5068 20.3581 57.8594 21.3197 57.8594 22.5698ZM56.0964 22.6019C56.0964 20.871 55.3271 20.0375 53.8205 20.0375H52.923V25.2624H53.6603C55.2951 25.2304 56.0964 24.3649 56.0964 22.6019Z" fill="white"/>
<path d="M63.6598 20.4219C63.8841 20.4219 64.0765 20.4539 64.2367 20.486L64.1085 22.0567C63.9803 22.0246 63.82 21.9926 63.6277 21.9926C63.0828 21.9926 62.6661 22.1208 62.3776 22.4093C62.0891 22.6978 61.9288 23.0824 61.9288 23.5632V26.6725H60.262V20.518H61.5121L61.7685 21.5438H61.8647C62.057 21.1912 62.3135 20.9347 62.634 20.7104C62.9225 20.518 63.2751 20.4219 63.6598 20.4219Z" fill="white"/>
<path d="M65.9363 25.871C65.9363 25.5504 66.0324 25.3261 66.1927 25.1658C66.353 25.0055 66.6094 24.9414 66.8979 24.9414C67.1864 24.9414 67.4428 25.0376 67.6031 25.1978C67.7634 25.3581 67.8596 25.5825 67.8596 25.903C67.8596 26.1915 67.7634 26.4159 67.6031 26.5762C67.4428 26.7365 67.1864 26.8326 66.8979 26.8326C66.5774 26.8326 66.353 26.7365 66.1927 26.5762C66.0324 26.3839 65.9363 26.1595 65.9363 25.871Z" fill="white"/>
<path d="M39.2349 33.7886C39.2349 35.1028 38.8503 36.1286 38.113 36.8338C37.3758 37.539 36.2859 37.8916 34.8755 37.8916H32.5996V29.8779H35.0999C36.4141 29.8779 37.4078 30.2305 38.1451 30.9037C38.8823 31.5768 39.2349 32.5385 39.2349 33.7886ZM37.4719 33.8207C37.4719 32.0897 36.7026 31.2563 35.196 31.2563H34.2985V36.4812H35.0358C36.6706 36.4491 37.4719 35.5837 37.4719 33.8207Z" fill="white"/>
<path d="M41.5437 30.1666C41.5437 29.6217 41.8322 29.3652 42.4412 29.3652C43.0503 29.3652 43.3388 29.6217 43.3388 30.1666C43.3388 30.423 43.2747 30.6154 43.1144 30.7756C42.9541 30.9359 42.7297 31 42.4412 31C41.8642 30.968 41.5437 30.7115 41.5437 30.1666ZM43.2747 37.8597H41.6078V31.7373H43.2747V37.8597Z" fill="white"/>
<path d="M50.1646 36.0331C50.1646 36.6742 49.9402 37.155 49.5235 37.4756C49.0747 37.7961 48.4336 37.9564 47.5682 37.9564C47.1194 37.9564 46.7348 37.9243 46.4142 37.8602C46.0937 37.7961 45.8052 37.6999 45.5167 37.6038V36.2254C45.8372 36.3857 46.1898 36.4819 46.5745 36.578C46.9591 36.6742 47.3117 36.7383 47.6002 36.7383C48.2093 36.7383 48.4978 36.578 48.4978 36.2254C48.4978 36.0972 48.4657 36.001 48.3695 35.9049C48.2734 35.8087 48.1452 35.7446 47.9528 35.6164C47.7605 35.5202 47.5041 35.392 47.1515 35.2638C46.6706 35.0715 46.3501 34.8791 46.1257 34.7189C45.9013 34.5586 45.7411 34.3662 45.6449 34.1419C45.5487 33.9175 45.4846 33.661 45.4846 33.3405C45.4846 32.7956 45.709 32.3789 46.1257 32.0904C46.5424 31.8019 47.1515 31.6416 47.9208 31.6416C48.658 31.6416 49.3632 31.8019 50.0684 32.1224L49.5556 33.3405C49.235 33.2123 48.9465 33.1161 48.6901 33.02C48.4336 32.9238 48.1452 32.8917 47.8887 32.8917C47.4079 32.8917 47.1515 33.02 47.1515 33.2764C47.1515 33.4367 47.2156 33.5649 47.3758 33.661C47.5361 33.7572 47.8887 33.9175 48.4336 34.1419C48.9145 34.3342 49.2671 34.5265 49.4915 34.6868C49.7158 34.8471 49.8761 35.0394 49.9723 35.2638C50.1005 35.4882 50.1646 35.7446 50.1646 36.0331Z" fill="white"/>
<path d="M54.7813 37.9884C52.8901 37.9884 51.9285 36.9306 51.9285 34.8471C51.9285 33.8213 52.1849 33.02 52.6978 32.475C53.2107 31.9301 53.9479 31.6416 54.9416 31.6416C55.6468 31.6416 56.2879 31.7698 56.8328 32.0583L56.352 33.3405C56.0956 33.2443 55.8391 33.1482 55.6148 33.0841C55.3904 33.02 55.166 32.9879 54.9416 32.9879C54.0761 32.9879 53.6274 33.5969 53.6274 34.8471C53.6274 36.0331 54.0761 36.6421 54.9416 36.6421C55.2621 36.6421 55.5506 36.6101 55.8391 36.5139C56.1276 36.4177 56.3841 36.2895 56.6726 36.0972V37.5397C56.4161 37.6999 56.1276 37.8282 55.8391 37.8923C55.5506 37.9564 55.198 37.9884 54.7813 37.9884Z" fill="white"/>
<path d="M64.4619 34.7826C64.4619 35.7763 64.2055 36.5456 63.6606 37.1226C63.1477 37.6996 62.4104 37.956 61.4488 37.956C60.8718 37.956 60.3269 37.8278 59.8781 37.5714C59.4293 37.3149 59.0767 36.9303 58.8524 36.4495C58.628 35.9686 58.4998 35.3917 58.4998 34.7506C58.4998 33.7569 58.7562 32.9876 59.2691 32.4106C59.7819 31.8656 60.5192 31.5771 61.4808 31.5771C62.0578 31.5771 62.6028 31.7054 63.0515 31.9618C63.5003 32.2182 63.8529 32.5708 64.0773 33.0517C64.3658 33.5966 64.4619 34.1415 64.4619 34.7826ZM60.2307 34.7826C60.2307 35.3917 60.3269 35.8404 60.5192 36.161C60.7115 36.4815 61.0321 36.6418 61.4808 36.6418C61.9296 36.6418 62.2502 36.4815 62.4425 36.193C62.6348 35.8725 62.731 35.4237 62.731 34.8147C62.731 34.2056 62.6348 33.7569 62.4425 33.4363C62.2502 33.1478 61.9296 32.9876 61.4808 32.9876C61.0321 32.9876 60.7115 33.1478 60.5192 33.4363C60.3269 33.7248 60.2307 34.1736 60.2307 34.7826Z" fill="white"/>
<path d="M71.0324 37.8597L70.808 37.0904H70.7118C70.5195 37.3789 70.2951 37.6033 69.9425 37.7636C69.622 37.9239 69.2373 37.988 68.8206 37.988C68.1154 37.988 67.5705 37.7956 67.1858 37.411C66.8332 37.0263 66.6409 36.4814 66.6409 35.7441V31.7373H68.3077V35.3274C68.3077 35.7762 68.3718 36.0967 68.5321 36.3211C68.6924 36.5455 68.9488 36.6417 69.2694 36.6417C69.7502 36.6417 70.0707 36.4814 70.2951 36.1608C70.4874 35.8403 70.6157 35.3274 70.6157 34.6222V31.7373H72.2825V37.8597H71.0324Z" fill="white"/>
<path d="M80.5537 37.86H78.8869V34.2699C78.8869 33.8211 78.8228 33.5006 78.6625 33.2762C78.5022 33.0518 78.2458 32.9557 77.9252 32.9557C77.4444 32.9557 77.1239 33.1159 76.8995 33.4365C76.7072 33.757 76.579 34.2699 76.579 34.9751V37.86H74.9121V31.7376H76.1943L76.4187 32.5069H76.5148C76.7072 32.2184 76.9636 31.994 77.2842 31.8338C77.6047 31.6735 77.9894 31.6094 78.4061 31.6094C79.1113 31.6094 79.6562 31.8017 80.0409 32.1864C80.4255 32.571 80.5858 33.1159 80.5858 33.8532V37.86H80.5537Z" fill="white"/>
<path d="M85.7145 36.6418C86.003 36.6418 86.3556 36.5777 86.7723 36.4495V37.6996C86.3556 37.8919 85.8427 37.9881 85.2337 37.9881C84.5605 37.9881 84.0797 37.8278 83.7592 37.4752C83.4386 37.1226 83.3104 36.6418 83.3104 35.9687V33.0196H82.509V32.3144L83.4386 31.7695L83.9194 30.4873H84.9772V31.8015H86.6761V33.0517H84.9772V36.0007C84.9772 36.2251 85.0414 36.4174 85.1696 36.5136C85.2978 36.5777 85.4901 36.6418 85.7145 36.6418Z" fill="white"/>
<path d="M38.4659 65.3223C38.1453 65.6428 36.8631 65.9633 35.2604 64.6812C33.6577 63.399 27.7275 56.1867 27.7275 55.8661C27.7275 55.5456 28.2084 52.5004 28.8495 52.5004C29.4905 52.5004 30.4522 50.2566 30.4522 50.2566C30.4522 50.2566 31.0933 50.5771 32.696 50.2566C34.2987 49.936 34.2987 49.2949 34.2987 49.2949C34.2987 49.2949 34.2987 52.5004 35.9015 53.1415C37.5042 53.7826 38.4659 53.7826 38.4659 53.7826C38.4659 53.7826 38.7864 55.7059 39.748 56.988C40.7097 58.2702 41.3508 58.9113 41.3508 58.9113V62.1168C41.3508 62.1168 38.6261 61.3154 37.6645 62.2771C36.7028 63.2387 38.4659 65.3223 38.4659 65.3223Z" fill="#1B4B4A"/>
<path d="M37.343 65.6426C37.0225 65.9631 35.7403 66.2837 34.1376 65.0015C32.5348 63.7193 26.6047 56.507 26.6047 56.1864C26.6047 55.8659 27.0856 52.8207 27.7266 52.8207C28.3677 52.8207 29.3294 50.5769 29.3294 50.5769C29.3294 50.5769 29.9705 50.8974 31.5732 50.5769C33.1759 50.2563 33.1759 49.6152 33.1759 49.6152C33.1759 49.6152 33.1759 52.8207 34.7787 53.4618C36.3814 54.1029 37.343 54.1029 37.343 54.1029C37.343 54.1029 37.6636 56.0262 38.6252 57.3084C39.5869 58.5905 40.228 59.2316 40.228 59.2316V62.4371C40.228 62.4371 37.5033 61.6357 36.5417 62.5974C35.58 63.559 37.343 65.6426 37.343 65.6426Z" fill="#3DA465"/>
<path d="M61.5455 2.33481C61.5455 2.33481 61.5455 4.25809 59.9427 4.57864C58.34 4.89919 58.34 3.29645 57.0578 3.617C55.7756 3.93755 55.1345 3.93755 54.4934 4.25809C53.8523 4.57864 53.2113 5.54028 52.2496 5.54028C51.288 5.54028 49.3647 4.89919 47.762 5.21973C46.1592 5.54028 42.9538 7.46356 42.9538 8.4252C42.9538 9.38684 44.7809 9.70739 43.8833 10.8293C42.9858 11.9512 42.3127 11.6307 41.6716 12.432C41.0305 13.2334 41.0305 13.2334 40.3894 13.5539C39.7483 13.8745 39.7483 13.8745 38.4661 14.5156C37.1839 15.1567 37.1839 17.7211 36.5428 16.4389C35.9017 15.1567 36.5428 15.1567 34.9401 15.4772C33.3374 15.7978 32.6963 15.4772 32.0552 16.7594C31.4141 18.0416 30.4524 18.3621 30.773 19.0032C31.0935 19.6443 32.3757 19.9649 32.0552 20.9265C31.7346 21.8882 30.773 21.5676 30.4524 23.1703C30.1319 24.7731 29.8113 26.6964 29.8113 26.6964C29.8113 26.6964 28.8497 28.9402 27.8881 29.2607C26.9264 29.5813 25.0031 29.5813 24.6826 30.2224C24.3621 30.8635 23.4004 33.1073 23.721 34.3895C24.0415 35.6717 25.9648 36.9538 25.3237 37.5949C24.6826 38.236 23.0799 35.6717 22.4388 34.3895C21.7977 33.1073 20.5155 25.4142 28.5292 14.5156C37.6006 2.17454 51.288 -0.550105 61.5455 2.33481Z" fill="#1B4B4A"/>
<path d="M61.5455 1.05259C61.5455 1.05259 61.5455 2.97587 59.9427 3.29641C58.34 3.61696 58.34 2.01423 57.0578 2.33477C55.7756 2.65532 55.1345 2.65532 54.4934 2.97587C53.8523 3.29641 53.2113 4.25805 52.2496 4.25805C51.288 4.25805 49.3647 3.61696 47.762 3.93751C46.1592 4.25805 42.9538 6.18133 42.9538 7.14297C42.9538 8.10461 44.7809 8.42516 43.8833 9.54707C42.9858 10.669 42.3127 10.3484 41.6716 11.1498C41.0305 11.9512 41.0305 11.9512 40.3894 12.2717C39.7483 12.5923 39.7483 12.5923 38.4661 13.2334C37.1839 13.8745 37.1839 16.4388 36.5428 15.1566C35.9017 13.8745 36.5428 13.8745 34.9401 14.195C33.3374 14.5155 32.6963 14.195 32.0552 15.4772C31.4141 16.7594 30.4524 17.0799 30.773 17.721C31.0935 18.3621 32.3757 18.6826 32.0552 19.6443C31.7346 20.6059 30.773 20.2854 30.4524 21.8881C30.1319 23.4909 29.8113 25.4141 29.8113 25.4141C29.8113 25.4141 28.8497 27.658 27.8881 27.9785C26.9264 28.299 25.0031 28.299 24.6826 28.9401C24.3621 29.5812 23.4004 31.8251 23.721 33.1072C24.0415 34.3894 25.9648 35.6716 25.3237 36.3127C24.6826 36.9538 23.0799 34.3894 22.4388 33.1072C21.7977 31.8251 20.5155 24.1319 28.5292 13.2334C37.6006 0.892314 51.288 -1.83233 61.5455 1.05259Z" fill="#3DA465"/>
<path d="M70.84 2.97584C71.2567 2.81557 81.1295 4.96323 88.8227 16.6311C96.5158 28.299 94.5604 33.1072 93.9193 33.4278C93.2782 33.7483 92.9577 33.4278 92.9577 33.4278C92.9577 33.4278 92.3166 32.1456 91.9961 30.2223C91.6755 28.299 91.0344 28.299 90.7139 26.3757C90.3933 24.4525 89.3996 21.824 88.7906 20.6059C86.9955 17.0478 84.7517 13.9065 83.0208 12.2717C80.8731 10.2202 77.892 8.10459 75.9687 7.14295C74.0454 6.18131 75.6482 8.10459 73.4044 7.78404C71.1605 7.46349 72.1222 5.21967 72.1222 5.21967C72.1222 5.21967 69.2373 3.61693 70.84 2.97584Z" fill="#1B4B4A"/>
<path d="M71.161 2.01393C71.5777 1.85365 81.4506 4.00132 89.1437 15.6692C96.8368 27.3371 94.8815 32.1453 94.2404 32.4659C93.5993 32.7864 93.2787 32.4659 93.2787 32.4659C93.2787 32.4659 92.6377 31.1837 92.3171 29.2604C91.9966 27.3371 91.3555 27.3371 91.0349 25.4138C90.7144 23.4906 89.7207 20.8621 89.1116 19.644C87.3166 16.0859 85.0728 12.9446 83.3418 11.3098C81.1941 9.25828 78.2131 7.14267 76.2898 6.18103C74.3665 5.21939 75.9692 7.14267 73.7254 6.82213C71.4816 6.50158 72.4432 4.25775 72.4432 4.25775C72.4432 4.25775 69.5583 2.65502 71.161 2.01393Z" fill="#3DA465"/>
<path d="M30.1314 41.441C31.3175 40.6396 30.452 43.6848 29.4904 44.3259C28.5287 44.967 26.926 44.6464 27.2465 43.6848C27.5671 42.7232 29.1698 42.0821 30.1314 41.441Z" fill="#1B4B4A"/>
<path d="M37.5039 43.0439C38.7861 43.0439 39.4272 44.6467 39.7477 46.2494C40.0682 47.8521 37.1833 46.57 36.8628 46.2494C36.5422 45.9289 37.5039 43.0439 37.5039 43.0439Z" fill="#1B4B4A"/>
<path d="M62.1864 77.0216C61.8658 78.9448 60.9042 79.5859 59.622 79.9065C58.3398 80.227 56.7371 79.5859 55.7755 78.3038C54.8138 77.0216 53.7881 69.0079 54.1727 65.8024C54.4933 63.2381 56.4166 62.597 58.3398 63.2381C60.776 64.0394 60.5837 66.123 60.9042 69.0079C60.9042 69.0079 62.4749 75.2265 62.1864 77.0216Z" fill="url(#paint2_linear_1553_23114)"/>
<path d="M54.8139 65.4819C54.6215 65.6101 54.7818 68.3347 55.7755 69.3284C56.096 69.649 58.0193 69.649 58.3399 69.3284C59.3977 68.2706 59.3015 65.4819 59.3015 65.4819C59.3015 65.4819 57.3782 63.8791 54.8139 65.4819Z" fill="#F4B08B"/>
<path d="M29.1708 41.441C30.3568 40.6396 29.4913 43.6848 28.5297 44.3259C27.568 44.967 25.9653 44.6464 26.2858 43.6848C26.6064 42.7232 28.2091 42.0821 29.1708 41.441Z" fill="#3DA465"/>
<path d="M50.1655 75.8999L54.8776 75.355L54.2685 71.0917L52.6978 70.8994C52.6978 70.8994 52.794 71.8931 52.0888 73.3676C51.3836 74.8421 50.1655 75.8999 50.1655 75.8999Z" fill="url(#paint3_linear_1553_23114)"/>
<path d="M61.4172 71.2525L62.0904 74.8427H65.0394L64.3983 70.4512L61.4172 71.2525Z" fill="url(#paint4_linear_1553_23114)"/>
<path d="M52.889 71.8931C53.2095 74.1369 52.5043 74.9383 51.2862 75.4191C50.0682 75.8999 48.8821 75.6114 47.7602 74.4574C46.6383 73.3035 44.5227 67.3093 44.5227 64.1038C44.5227 61.5074 46.3498 60.6419 48.3372 61.0265C50.8375 61.5394 50.9336 63.623 51.6068 66.4438C51.6068 66.4438 52.6325 70.098 52.889 71.8931Z" fill="url(#paint5_linear_1553_23114)"/>
<path d="M45.1001 63.6875C44.9078 63.8478 45.4207 66.5083 46.5426 67.3738C46.9272 67.6623 48.8185 67.4058 49.0749 67.0532C49.9724 65.8672 49.5557 63.1105 49.5557 63.1105C49.5557 63.1105 47.4401 61.7963 45.1001 63.6875Z" fill="#F4B08B"/>
<path d="M36.5417 43.0439C37.8239 43.0439 38.465 44.6467 38.7855 46.2494C39.1061 47.8521 36.2212 46.57 35.9006 46.2494C35.5801 45.9289 36.5417 43.0439 36.5417 43.0439Z" fill="#3DA465"/>
<path d="M64.432 74.1368C64.7525 75.7395 67.6374 75.419 68.9196 75.0984C70.2339 74.7779 70.6506 74.7138 71.1635 73.1751C71.6763 71.6365 71.1955 66.668 69.7531 63.8152C68.5991 61.5072 66.5155 61.5713 64.8487 62.8215C62.7651 64.4242 63.6306 66.3154 64.2717 69.1362C64.2717 69.1362 64.0794 72.3417 64.432 74.1368Z" fill="url(#paint6_linear_1553_23114)"/>
<path d="M69.0147 63.7191C69.2711 63.7832 69.9763 66.3796 69.3673 67.6618C69.1429 68.0785 67.2838 68.7196 66.867 68.5273C65.4887 67.8862 64.6553 65.2257 64.6553 65.2257C64.6553 65.2257 66.0016 63.078 69.0147 63.7191Z" fill="#F4B08B"/>
<path d="M37.1832 65.4821C37.1832 65.4821 39.7476 67.7259 40.7092 68.6875C41.6709 69.6492 43.5941 70.9314 44.5558 71.2519C45.5174 71.5725 46.2226 71.5083 46.2226 71.5083L44.5558 65.1615H42.312C42.312 65.1615 42.312 63.5588 40.3887 62.5971C38.6577 61.7317 36.3818 62.1484 36.2857 63.0139C36.1895 63.8793 36.5421 64.841 37.1832 65.4821Z" fill="url(#paint7_linear_1553_23114)"/>
<path d="M106.293 59.3598C106.293 57.4045 104.722 55.8338 102.767 55.8338C101.997 55.8338 101.292 56.0902 100.715 56.5069C100.395 55.3209 99.4651 54.3913 98.2791 54.0387C98.1829 51.282 95.9391 49.1023 93.1503 49.1023C92.2848 49.1023 91.4514 49.3267 90.7462 49.7113C90.1692 47.3393 88.0216 45.5763 85.4572 45.5763C84.0147 45.5763 82.7325 46.1212 81.7388 47.0508C80.5849 46.0571 79.0783 45.416 77.4435 45.416C73.8213 45.416 70.8723 48.365 70.8723 51.9872C70.8723 52.2116 70.8723 52.436 70.9044 52.6604C70.1992 52.3398 69.4299 52.1475 68.6285 52.1475C65.6154 52.1475 63.1792 54.5836 63.1792 57.5968C63.1792 60.6099 64.9743 63.2064 68.7888 63.2064C72.6033 63.2064 101.132 63.2064 102.735 63.2064C104.978 63.2064 106.293 61.0907 106.293 59.3598Z" fill="#9CD9F7"/>
<path d="M107.896 60.5141C107.896 58.5588 106.325 56.9881 104.37 56.9881C103.6 56.9881 102.895 57.2445 102.318 57.6612C101.998 56.4752 101.068 55.5456 99.8821 55.193C99.7859 52.4363 97.5421 50.2566 94.7533 50.2566C93.8879 50.2566 93.0544 50.481 92.3492 50.8656C91.7723 48.4936 89.6246 46.7306 87.0602 46.7306C85.6178 46.7306 84.3356 47.2755 83.3419 48.2051C82.1879 47.2114 80.6813 46.5703 79.0466 46.5703C75.4244 46.5703 72.4753 49.5193 72.4753 53.1415C72.4753 53.3659 72.4753 53.5903 72.5074 53.8147C71.8022 53.4941 71.0329 53.3018 70.2315 53.3018C67.2184 53.3018 64.7822 55.7379 64.7822 58.7511C64.7822 61.7642 66.5773 64.3607 70.3918 64.3607C74.2063 64.3607 102.735 64.3607 104.338 64.3607C106.582 64.3607 107.896 62.245 107.896 60.5141Z" fill="#6ABDEE"/>
<defs>
<radialGradient id="paint0_radial_1553_23114" cx="0" cy="0" r="1" gradientUnits="userSpaceOnUse" gradientTransform="translate(66 19.4336) rotate(34.992) scale(36.6197 41.9348)">
<stop stop-color="#4BA5D4"/>
<stop offset="1" stop-color="#26498D"/>
</radialGradient>
<linearGradient id="paint1_linear_1553_23114" x1="74.3762" y1="64.4525" x2="84.1801" y2="64.4525" gradientUnits="userSpaceOnUse">
<stop stop-color="#824337"/>
<stop offset="0.997" stop-color="#E69589"/>
</linearGradient>
<linearGradient id="paint2_linear_1553_23114" x1="58.3396" y1="79.9467" x2="57.9794" y2="64.6996" gradientUnits="userSpaceOnUse">
<stop stop-color="#CF7956"/>
<stop offset="0.997" stop-color="#E69589"/>
</linearGradient>
<linearGradient id="paint3_linear_1553_23114" x1="50.1655" y1="73.3849" x2="54.8711" y2="73.3849" gradientUnits="userSpaceOnUse">
<stop stop-color="#CF7956"/>
<stop offset="0.997" stop-color="#87423D"/>
</linearGradient>
<linearGradient id="paint4_linear_1553_23114" x1="61.4285" y1="72.6592" x2="65.0253" y2="72.6592" gradientUnits="userSpaceOnUse">
<stop stop-color="#CF7956"/>
<stop offset="0.997" stop-color="#87423D"/>
</linearGradient>
<linearGradient id="paint5_linear_1553_23114" x1="49.1107" y1="76.658" x2="48.5104" y2="63.4518" gradientUnits="userSpaceOnUse">
<stop stop-color="#CF7956"/>
<stop offset="0.9869" stop-color="#E69589"/>
</linearGradient>
<linearGradient id="paint6_linear_1553_23114" x1="66.0563" y1="75.3688" x2="68.5775" y2="63.123" gradientUnits="userSpaceOnUse">
<stop stop-color="#CF7956"/>
<stop offset="0.997" stop-color="#E69589"/>
</linearGradient>
<linearGradient id="paint7_linear_1553_23114" x1="47.7789" y1="70.7763" x2="38.6546" y2="64.0532" gradientUnits="userSpaceOnUse">
<stop stop-color="#CF7956"/>
<stop offset="0.997" stop-color="#E69589"/>
</linearGradient>
</defs>
</svg>
