<svg width="120" height="120" viewBox="0 0 120 120" fill="none" xmlns="http://www.w3.org/2000/svg">
<path d="M43.0401 30.0917C42.0478 30.0917 41.1456 30.4827 40.484 31.1142C39.7923 30.3022 38.7699 29.791 37.6271 29.791C35.5522 29.791 33.8681 31.4751 33.8681 33.55C33.8681 33.7004 33.8681 33.8207 33.8982 33.971C33.4772 33.7906 32.996 33.7004 32.5149 33.7004C30.4399 33.7004 28.7559 35.3844 28.7559 37.4594C28.7559 39.5344 30.4399 41.2184 32.5149 41.2184C34.5899 41.2184 36.2739 39.5344 36.2739 37.4594C36.2739 37.3091 36.2739 37.1888 36.2438 37.0384C36.6648 37.2188 37.146 37.3091 37.6271 37.3091C38.6195 37.3091 39.5217 36.9181 40.1833 36.2866C40.8749 37.0986 41.8974 37.6098 43.0401 37.6098C45.1151 37.6098 46.7992 35.9257 46.7992 33.8508C46.7992 31.7758 45.1151 30.0917 43.0401 30.0917Z" fill="#4BA3D5"/>
<path d="M35.7638 49.0069C36.9968 47.8942 37.7787 46.3004 37.7787 44.5262C37.7787 41.2182 35.0722 38.5117 31.7642 38.5117C29.99 38.5117 28.4262 39.2635 27.3135 40.4965C25.9904 39.2635 24.2462 38.5117 22.2915 38.5117C18.2318 38.5117 14.9238 41.8197 14.9238 45.8794C14.9238 46.2403 14.9539 46.6011 15.014 46.962C13.9615 46.0298 12.5481 45.4283 11.0144 45.4283C7.70649 45.4283 5 48.1348 5 51.4427C5 54.7507 7.70649 57.4572 11.0144 57.4572H40.4852L35.7638 49.0069Z" fill="#A9DDFD"/>
<path d="M36.6681 50.3604C37.9011 49.2477 38.683 47.6539 38.683 45.8797C38.683 42.5717 35.9765 39.8652 32.6685 39.8652C30.8943 39.8652 29.3305 40.617 28.2178 41.85C26.8947 40.617 25.1505 39.8652 23.1958 39.8652C19.136 39.8652 15.8281 43.1732 15.8281 47.2329C15.8281 47.5938 15.8582 47.9546 15.9183 48.3155C14.8658 47.3833 13.4524 46.7818 11.9187 46.7818C8.61079 46.7818 5.9043 49.4883 5.9043 52.7963C5.9043 56.1042 8.61079 58.8107 11.9187 58.8107H41.3895L36.6681 50.3604Z" fill="#6ABDEE"/>
<path d="M114.762 41.3688C114.762 37.9706 111.995 35.204 108.597 35.204C107.003 35.204 105.56 35.8054 104.477 36.7978C104.507 36.5272 104.537 36.2565 104.537 35.9558C104.537 32.5577 101.771 29.791 98.3726 29.791C96.9592 29.791 95.6661 30.2722 94.6136 31.0841C93.5611 30.2722 92.268 29.791 90.8546 29.791C88.088 29.791 85.7423 31.6254 84.9604 34.1214C84.2688 33.8508 83.517 33.7004 82.7351 33.7004C79.337 33.7004 76.5703 36.467 76.5703 39.8652C76.5703 41.88 77.5326 43.6844 79.0362 44.797C77.8935 46.3608 77.1718 47.5336 77.1718 47.5336H108.748C112.086 47.4434 114.762 44.7068 114.762 41.3688Z" fill="#9CD9F7"/>
<path d="M113.864 42.1212C113.864 38.7231 111.097 35.9564 107.699 35.9564C106.105 35.9564 104.661 36.5579 103.579 37.5503C103.609 37.2796 103.639 37.009 103.639 36.7083C103.639 33.3101 100.872 30.5435 97.4742 30.5435C96.0608 30.5435 94.7677 31.0246 93.7152 31.8366C92.6626 31.0246 91.3695 30.5435 89.9562 30.5435C87.1895 30.5435 84.8439 32.3779 84.062 34.8738C83.3703 34.6032 82.6185 34.4528 81.8367 34.4528C78.4385 34.4528 75.6719 37.2195 75.6719 40.6176C75.6719 42.6325 76.6342 44.4368 78.1378 45.5495C76.995 47.1132 76.2733 48.286 76.2733 48.286H107.849C111.187 48.1958 113.864 45.4593 113.864 42.1212Z" fill="#4BA3D5"/>
<path d="M100.779 49.6383C99.9073 49.6383 99.1254 50.0292 98.5841 50.6607C98.7345 50.2397 98.8247 49.7886 98.8247 49.3376C98.8247 47.1724 97.0805 45.4282 94.9153 45.4282C94.4943 45.4282 94.1033 45.4883 93.7124 45.6086C93.0508 43.9246 91.4269 42.7217 89.5023 42.7217C87.0063 42.7217 84.9915 44.7365 84.9915 47.2325C84.9915 47.5633 85.0215 47.8941 85.1118 48.2249C85.0516 48.2249 84.9915 48.2249 84.9915 48.2249C84.9915 48.2249 81.3828 49.939 81.3828 50.5404C81.3828 51.1419 82.5857 55.352 82.5857 55.352C83.1871 55.352 100.629 55.352 100.629 55.352C100.689 55.352 100.719 55.352 100.779 55.352C102.343 55.352 103.636 54.0589 103.636 52.4951C103.636 50.9314 102.343 49.6383 100.779 49.6383Z" fill="#A9DDFD"/>
<path d="M100.33 50.3907C99.458 50.3907 98.6762 50.7817 98.1349 51.4132C98.2852 50.9922 98.3755 50.5411 98.3755 50.09C98.3755 47.9248 96.6313 46.1806 94.4661 46.1806C94.0451 46.1806 93.6541 46.2408 93.2632 46.361C92.6016 44.677 90.9777 43.4741 89.0531 43.4741C86.5571 43.4741 84.5423 45.489 84.5423 47.9849C84.5423 48.3157 84.5723 48.6465 84.6625 48.9773C84.6024 48.9773 84.5423 48.9773 84.5423 48.9773C84.5423 48.9773 80.9336 50.6914 80.9336 51.2929C80.9336 51.8943 82.1365 56.1044 82.1365 56.1044C82.7379 56.1044 100.18 56.1044 100.18 56.1044C100.24 56.1044 100.27 56.1044 100.33 56.1044C101.894 56.1044 103.187 54.8113 103.187 53.2476C103.187 51.6838 101.894 50.3907 100.33 50.3907Z" fill="#6ABDEE"/>
<path d="M59.2786 93.8452C77.6308 93.8452 92.5083 78.9678 92.5083 60.6155C92.5083 42.2632 77.6308 27.3857 59.2786 27.3857C40.9263 27.3857 26.0488 42.2632 26.0488 60.6155C26.0488 78.9678 40.9263 93.8452 59.2786 93.8452Z" fill="url(#paint0_radial_1548_32386)"/>
<path d="M74.7683 90.0264C74.6781 90.0565 82.8878 90.5376 83.79 88.1319C84.6921 85.7261 82.0157 84.854 82.0157 84.854C82.0157 84.854 77.8056 88.8837 74.7683 90.0264Z" fill="url(#paint1_linear_1548_32386)"/>
<path d="M71.7619 78.8698C72.4837 78.3586 72.9648 77.5166 72.9648 76.5543C72.9648 74.9905 71.6717 73.6974 70.108 73.6974C69.8674 73.6974 69.6268 73.7275 69.3862 73.7876C68.9051 72.6749 67.7924 71.8931 66.4993 71.8931C65.5671 71.8931 64.725 72.284 64.1537 72.9456C63.5222 72.3141 62.6501 71.8931 61.6878 71.8931C59.7932 71.8931 58.2595 73.4267 58.2295 75.3213C57.7483 75.0506 57.1769 74.9003 56.5755 74.9003C54.6509 74.9003 53.1172 76.434 53.1172 78.3586C53.1172 80.2231 54.5907 81.7267 56.4251 81.8169H73.867L71.7619 78.8698Z" fill="#9CD9F7"/>
<path d="M72.9631 79.9216C73.6848 79.4103 74.166 78.5683 74.166 77.606C74.166 76.0423 72.8729 74.7492 71.3091 74.7492C71.0686 74.7492 70.828 74.7792 70.5874 74.8394C70.1062 73.7267 68.9936 72.9448 67.7005 72.9448C66.7682 72.9448 65.9262 73.3358 65.3548 73.9973C64.7233 73.3658 63.8512 72.9448 62.8889 72.9448C60.9944 72.9448 59.4607 74.4785 59.4306 76.373C58.9495 76.1024 58.3781 75.952 57.7767 75.952C55.852 75.952 54.3184 77.4857 54.3184 79.4103C54.3184 81.2748 55.7919 82.7784 57.6263 82.8686H75.0682L72.9631 79.9216Z" fill="#4BA3D5"/>
<path d="M59.8577 49.0433C59.8577 50.2763 59.4969 51.2386 58.8052 51.9002C58.1136 52.5618 57.0911 52.8926 55.7679 52.8926H53.6328V45.3745H55.9784C57.2114 45.3745 58.1436 45.7053 58.8353 46.3368C59.527 46.9683 59.8577 47.8705 59.8577 49.0433ZM58.2038 49.0734C58.2038 47.4495 57.482 46.6676 56.0687 46.6676H55.2266V51.5694H55.9183C57.452 51.5393 58.2038 50.7274 58.2038 49.0734Z" fill="#2E5D9C"/>
<path d="M65.297 47.0283C65.5075 47.0283 65.688 47.0584 65.8383 47.0885L65.718 48.562C65.5977 48.5319 65.4474 48.5019 65.267 48.5019C64.7557 48.5019 64.3648 48.6221 64.0941 48.8928C63.8235 49.1634 63.6731 49.5243 63.6731 49.9754V52.8924H62.1094V47.1185H63.2822L63.5228 48.0808H63.613C63.7934 47.7501 64.034 47.5095 64.3347 47.299C64.6054 47.1185 64.9362 47.0283 65.297 47.0283Z" fill="#2E5D9C"/>
<path d="M67.4336 52.1406C67.4336 51.8399 67.5238 51.6294 67.6742 51.4791C67.8245 51.3287 68.0651 51.2686 68.3358 51.2686C68.6064 51.2686 68.847 51.3588 68.9973 51.5091C69.1477 51.6595 69.2379 51.87 69.2379 52.1707C69.2379 52.4414 69.1477 52.6519 68.9973 52.8022C68.847 52.9526 68.6064 53.0428 68.3358 53.0428C68.035 53.0428 67.8245 52.9526 67.6742 52.8022C67.5238 52.6218 67.4336 52.4113 67.4336 52.1406Z" fill="#2E5D9C"/>
<path d="M42.3831 59.5687C42.3831 60.8017 42.0223 61.764 41.3306 62.4256C40.639 63.0872 39.6165 63.4179 38.2933 63.4179H36.1582V55.8999H38.5038C39.7368 55.8999 40.669 56.2307 41.3607 56.8622C42.0523 57.4937 42.3831 58.3959 42.3831 59.5687ZM40.7292 59.5988C40.7292 57.9749 40.0074 57.193 38.594 57.193H37.752V62.0948H38.4437C39.9774 62.0647 40.7292 61.2527 40.7292 59.5988Z" fill="#2E5D9C"/>
<path d="M44.5488 56.1703C44.5488 55.659 44.8195 55.4185 45.3908 55.4185C45.9622 55.4185 46.2329 55.659 46.2329 56.1703C46.2329 56.4108 46.1727 56.5913 46.0224 56.7416C45.872 56.892 45.6615 56.9521 45.3908 56.9521C44.8495 56.9221 44.5488 56.6815 44.5488 56.1703ZM46.1727 63.3876H44.609V57.6438H46.1727V63.3876Z" fill="#2E5D9C"/>
<path d="M52.6366 61.6741C52.6366 62.2755 52.4261 62.7266 52.0352 63.0273C51.6142 63.3281 51.0127 63.4784 50.2008 63.4784C49.7798 63.4784 49.4189 63.4483 49.1182 63.3882C48.8175 63.3281 48.5468 63.2378 48.2762 63.1476V61.8545C48.5769 62.0049 48.9077 62.0951 49.2686 62.1853C49.6294 62.2755 49.9602 62.3357 50.2309 62.3357C50.8022 62.3357 51.0729 62.1853 51.0729 61.8545C51.0729 61.7342 51.0428 61.644 50.9526 61.5538C50.8624 61.4636 50.7421 61.4034 50.5616 61.2831C50.3812 61.1929 50.1406 61.0726 49.8098 60.9524C49.3588 60.7719 49.058 60.5915 48.8475 60.4411C48.637 60.2908 48.4867 60.1103 48.3965 59.8998C48.3062 59.6893 48.2461 59.4487 48.2461 59.148C48.2461 58.6368 48.4566 58.2459 48.8475 57.9752C49.2385 57.7046 49.8098 57.5542 50.5316 57.5542C51.2232 57.5542 51.8848 57.7046 52.5464 58.0053L52.0653 59.148C51.7645 59.0277 51.4939 58.9375 51.2533 58.8473C51.0127 58.7571 50.7421 58.727 50.5015 58.727C50.0504 58.727 49.8098 58.8473 49.8098 59.0879C49.8098 59.2382 49.87 59.3585 50.0204 59.4487C50.1707 59.539 50.5015 59.6893 51.0127 59.8998C51.4638 60.0803 51.7946 60.2607 52.0051 60.4111C52.2156 60.5614 52.366 60.7418 52.4562 60.9524C52.5765 61.1629 52.6366 61.4034 52.6366 61.6741Z" fill="#2E5D9C"/>
<path d="M56.9674 63.5085C55.1932 63.5085 54.291 62.5161 54.291 60.5614C54.291 59.5991 54.5316 58.8473 55.0127 58.3361C55.4939 57.8249 56.1856 57.5542 57.1178 57.5542C57.7794 57.5542 58.3808 57.6745 58.8921 57.9451L58.441 59.148C58.2004 59.0578 57.9598 58.9676 57.7493 58.9074C57.5388 58.8473 57.3283 58.8172 57.1178 58.8172C56.3058 58.8172 55.8848 59.3886 55.8848 60.5614C55.8848 61.6741 56.3058 62.2455 57.1178 62.2455C57.4185 62.2455 57.6892 62.2154 57.9598 62.1252C58.2305 62.035 58.471 61.9147 58.7417 61.7342V63.0875C58.5011 63.2378 58.2305 63.3581 57.9598 63.4183C57.6892 63.4784 57.3584 63.5085 56.9674 63.5085Z" fill="#2E5D9C"/>
<path d="M66.0485 60.5014C66.0485 61.4336 65.8079 62.1553 65.2967 62.6966C64.8155 63.2379 64.1239 63.4785 63.2217 63.4785C62.6804 63.4785 62.1692 63.3582 61.7482 63.1176C61.3272 62.8771 60.9964 62.5162 60.7859 62.0651C60.5754 61.614 60.4551 61.0727 60.4551 60.4713C60.4551 59.539 60.6957 58.8173 61.1768 58.276C61.658 57.7648 62.3496 57.4941 63.2518 57.4941C63.7931 57.4941 64.3043 57.6144 64.7253 57.855C65.1463 58.0956 65.4771 58.4264 65.6876 58.8775C65.9583 59.3887 66.0485 59.8999 66.0485 60.5014ZM62.079 60.5014C62.079 61.0727 62.1692 61.4937 62.3496 61.7945C62.5301 62.0952 62.8308 62.2455 63.2518 62.2455C63.6728 62.2455 63.9735 62.0952 64.154 61.8245C64.3344 61.5238 64.4246 61.1028 64.4246 60.5314C64.4246 59.9601 64.3344 59.539 64.154 59.2383C63.9735 58.9677 63.6728 58.8173 63.2518 58.8173C62.8308 58.8173 62.5301 58.9677 62.3496 59.2383C62.1692 59.509 62.079 59.93 62.079 60.5014Z" fill="#2E5D9C"/>
<path d="M72.2117 63.3878L72.0012 62.6661H71.911C71.7305 62.9367 71.52 63.1473 71.1892 63.2976C70.8885 63.448 70.5276 63.5081 70.1367 63.5081C69.4751 63.5081 68.9639 63.3277 68.603 62.9668C68.2722 62.6059 68.0918 62.0947 68.0918 61.4031V57.644H69.6555V61.0121C69.6555 61.4331 69.7157 61.7339 69.8661 61.9444C70.0164 62.1549 70.257 62.2451 70.5577 62.2451C71.0088 62.2451 71.3095 62.0947 71.52 61.794C71.7005 61.4933 71.8207 61.0121 71.8207 60.3505V57.644H73.3845V63.3878H72.2117Z" fill="#2E5D9C"/>
<path d="M81.1462 63.388H79.5825V60.0199C79.5825 59.5989 79.5223 59.2982 79.372 59.0877C79.2216 58.8772 78.981 58.787 78.6803 58.787C78.2292 58.787 77.9285 58.9373 77.718 59.238C77.5376 59.5388 77.4173 60.0199 77.4173 60.6815V63.388H75.8535V57.6442H77.0564L77.2669 58.3659H77.3571C77.5376 58.0953 77.7781 57.8848 78.0789 57.7344C78.3796 57.5841 78.7404 57.5239 79.1314 57.5239C79.793 57.5239 80.3042 57.7044 80.6651 58.0652C81.0259 58.4261 81.1763 58.9373 81.1763 59.629V63.388H81.1462Z" fill="#2E5D9C"/>
<path d="M85.9877 62.245C86.2583 62.245 86.5891 62.1849 86.9801 62.0646V63.2374C86.5891 63.4179 86.108 63.5081 85.5366 63.5081C84.9051 63.5081 84.454 63.3577 84.1533 63.0269C83.8526 62.6961 83.7323 62.245 83.7323 61.6135V58.8469H82.9805V58.1853L83.8526 57.6741L84.3036 56.4712H85.296V57.7041H86.8899V58.877H85.296V61.6436C85.296 61.8541 85.3562 62.0345 85.4765 62.1248C85.5967 62.1849 85.7772 62.245 85.9877 62.245Z" fill="#2E5D9C"/>
<path d="M59.2816 48.1737C59.2816 49.4066 58.9207 50.369 58.2291 51.0305C57.5374 51.6921 56.5149 52.0229 55.1918 52.0229H53.0566V44.5049H55.4023C56.6352 44.5049 57.5675 44.8357 58.2591 45.4672C58.9508 46.0987 59.2816 47.0009 59.2816 48.1737ZM57.6276 48.2038C57.6276 46.5799 56.9059 45.798 55.4925 45.798H54.6505V50.6997H55.3421C56.8758 50.6697 57.6276 49.8577 57.6276 48.2038Z" fill="white"/>
<path d="M64.7208 46.1587C64.9314 46.1587 65.1118 46.1888 65.2621 46.2188L65.1419 47.6924C65.0216 47.6623 64.8712 47.6322 64.6908 47.6322C64.1796 47.6322 63.7886 47.7525 63.518 48.0232C63.2473 48.2938 63.097 48.6547 63.097 49.1058V52.0228H61.5332V46.2489H62.706L62.9466 47.2112H63.0368C63.2172 46.8804 63.4578 46.6398 63.7585 46.4293C64.0292 46.2489 64.36 46.1587 64.7208 46.1587Z" fill="white"/>
<path d="M66.8574 51.271C66.8574 50.9703 66.9476 50.7598 67.098 50.6094C67.2484 50.4591 67.4889 50.3989 67.7596 50.3989C68.0302 50.3989 68.2708 50.4891 68.4212 50.6395C68.5715 50.7899 68.6618 51.0004 68.6618 51.3011C68.6618 51.5717 68.5715 51.7822 68.4212 51.9326C68.2708 52.083 68.0302 52.1732 67.7596 52.1732C67.4589 52.1732 67.2484 52.083 67.098 51.9326C66.9476 51.7522 66.8574 51.5417 66.8574 51.271Z" fill="white"/>
<path d="M41.807 58.6991C41.807 59.932 41.4461 60.8943 40.7544 61.5559C40.0628 62.2175 39.0403 62.5483 37.7172 62.5483H35.582V55.0303H37.9277C39.1606 55.0303 40.0929 55.3611 40.7845 55.9926C41.4762 56.6241 41.807 57.5263 41.807 58.6991ZM40.153 58.7292C40.153 57.1053 39.4313 56.3234 38.0179 56.3234H37.1759V61.2251H37.8675C39.4012 61.1951 40.153 60.3831 40.153 58.7292Z" fill="white"/>
<path d="M43.9727 55.3006C43.9727 54.7894 44.2433 54.5488 44.8147 54.5488C45.386 54.5488 45.6567 54.7894 45.6567 55.3006C45.6567 55.5412 45.5966 55.7216 45.4462 55.872C45.2958 56.0224 45.0853 56.0825 44.8147 56.0825C44.2734 56.0524 43.9727 55.8119 43.9727 55.3006ZM45.5966 62.518H44.0328V56.7742H45.5966V62.518Z" fill="white"/>
<path d="M52.0605 60.8045C52.0605 61.4059 51.85 61.857 51.459 62.1577C51.038 62.4584 50.4366 62.6088 49.6246 62.6088C49.2036 62.6088 48.8427 62.5787 48.542 62.5186C48.2413 62.4584 47.9706 62.3682 47.7 62.278V60.9849C48.0007 61.1353 48.3315 61.2255 48.6924 61.3157C49.0532 61.4059 49.384 61.466 49.6547 61.466C50.2261 61.466 50.4967 61.3157 50.4967 60.9849C50.4967 60.8646 50.4666 60.7744 50.3764 60.6842C50.2862 60.594 50.1659 60.5338 49.9855 60.4135C49.805 60.3233 49.5645 60.203 49.2337 60.0827C48.7826 59.9023 48.4819 59.7219 48.2714 59.5715C48.0609 59.4211 47.9105 59.2407 47.8203 59.0302C47.7301 58.8197 47.6699 58.5791 47.6699 58.2784C47.6699 57.7672 47.8804 57.3762 48.2714 57.1056C48.6623 56.8349 49.2337 56.6846 49.9554 56.6846C50.6471 56.6846 51.3087 56.8349 51.9702 57.1357L51.4891 58.2784C51.1884 58.1581 50.9177 58.0679 50.6771 57.9777C50.4366 57.8875 50.1659 57.8574 49.9253 57.8574C49.4743 57.8574 49.2337 57.9777 49.2337 58.2183C49.2337 58.3686 49.2938 58.4889 49.4442 58.5791C49.5945 58.6693 49.9253 58.8197 50.4366 59.0302C50.8876 59.2106 51.2184 59.3911 51.4289 59.5414C51.6394 59.6918 51.7898 59.8722 51.88 60.0827C52.0003 60.2932 52.0605 60.5338 52.0605 60.8045Z" fill="white"/>
<path d="M56.3913 62.6389C54.617 62.6389 53.7148 61.6465 53.7148 59.6918C53.7148 58.7295 53.9554 57.9777 54.4366 57.4664C54.9177 56.9552 55.6094 56.6846 56.5416 56.6846C57.2032 56.6846 57.8047 56.8049 58.3159 57.0755L57.8648 58.2784C57.6242 58.1882 57.3836 58.098 57.1731 58.0378C56.9626 57.9777 56.7521 57.9476 56.5416 57.9476C55.7297 57.9476 55.3087 58.519 55.3087 59.6918C55.3087 60.8045 55.7297 61.3758 56.5416 61.3758C56.8423 61.3758 57.113 61.3458 57.3836 61.2555C57.6543 61.1653 57.8949 61.045 58.1655 60.8646V62.2178C57.9249 62.3682 57.6543 62.4885 57.3836 62.5486C57.113 62.6088 56.7822 62.6389 56.3913 62.6389Z" fill="white"/>
<path d="M65.4723 59.6317C65.4723 60.564 65.2317 61.2857 64.7205 61.827C64.2394 62.3683 63.5477 62.6089 62.6455 62.6089C62.1042 62.6089 61.593 62.4886 61.172 62.248C60.751 62.0074 60.4202 61.6466 60.2097 61.1955C59.9992 60.7444 59.8789 60.2031 59.8789 59.6017C59.8789 58.6694 60.1195 57.9477 60.6006 57.4064C61.0818 56.8952 61.7735 56.6245 62.6756 56.6245C63.2169 56.6245 63.7281 56.7448 64.1492 56.9854C64.5702 57.226 64.901 57.5567 65.1115 58.0078C65.3821 58.5191 65.4723 59.0303 65.4723 59.6317ZM61.5028 59.6317C61.5028 60.2031 61.593 60.6241 61.7735 60.9248C61.9539 61.2256 62.2546 61.3759 62.6756 61.3759C63.0966 61.3759 63.3974 61.2256 63.5778 60.9549C63.7582 60.6542 63.8484 60.2332 63.8484 59.6618C63.8484 59.0904 63.7582 58.6694 63.5778 58.3687C63.3974 58.098 63.0966 57.9477 62.6756 57.9477C62.2546 57.9477 61.9539 58.098 61.7735 58.3687C61.593 58.6393 61.5028 59.0604 61.5028 59.6317Z" fill="white"/>
<path d="M71.6355 62.5182L71.425 61.7965H71.3348C71.1544 62.0671 70.9439 62.2776 70.6131 62.428C70.3123 62.5783 69.9515 62.6385 69.5605 62.6385C68.8989 62.6385 68.3877 62.4581 68.0269 62.0972C67.6961 61.7363 67.5156 61.2251 67.5156 60.5334V56.7744H69.0794V60.1425C69.0794 60.5635 69.1395 60.8642 69.2899 61.0747C69.4402 61.2852 69.6808 61.3755 69.9815 61.3755C70.4326 61.3755 70.7333 61.2251 70.9439 60.9244C71.1243 60.6237 71.2446 60.1425 71.2446 59.4809V56.7744H72.8083V62.5182H71.6355Z" fill="white"/>
<path d="M80.57 62.5184H79.0063V59.1503C79.0063 58.7293 78.9461 58.4286 78.7958 58.2181C78.6454 58.0075 78.4048 57.9173 78.1041 57.9173C77.653 57.9173 77.3523 58.0677 77.1418 58.3684C76.9614 58.6691 76.8411 59.1503 76.8411 59.8119V62.5184H75.2773V56.7746H76.4802L76.6907 57.4963H76.781C76.9614 57.2257 77.202 57.0152 77.5027 56.8648C77.8034 56.7144 78.1643 56.6543 78.5552 56.6543C79.2168 56.6543 79.728 56.8347 80.0889 57.1956C80.4498 57.5565 80.6001 58.0677 80.6001 58.7593V62.5184H80.57Z" fill="white"/>
<path d="M85.4115 61.3754C85.6822 61.3754 86.013 61.3153 86.4039 61.195V62.3678C86.013 62.5482 85.5318 62.6384 84.9604 62.6384C84.3289 62.6384 83.8778 62.4881 83.5771 62.1573C83.2764 61.8265 83.1561 61.3754 83.1561 60.7439V57.9773H82.4043V57.3157L83.2764 56.8044L83.7275 55.6016H84.7199V56.8345H86.3137V58.0073H84.7199V60.774C84.7199 60.9845 84.78 61.1649 84.9003 61.2551C85.0206 61.3153 85.201 61.3754 85.4115 61.3754Z" fill="white"/>
<path d="M41.0859 88.2822C40.7852 88.5829 39.5823 88.8836 38.0787 87.6807C36.5751 86.4778 31.0117 79.7116 31.0117 79.4109C31.0117 79.1102 31.4628 76.2533 32.0642 76.2533C32.6657 76.2533 33.5679 74.1483 33.5679 74.1483C33.5679 74.1483 34.1693 74.449 35.6729 74.1483C37.1765 73.8475 37.1765 73.2461 37.1765 73.2461C37.1765 73.2461 37.1765 76.2533 38.6801 76.8548C40.1837 77.4562 41.0859 77.4562 41.0859 77.4562C41.0859 77.4562 41.3866 79.2605 42.2888 80.4634C43.1909 81.6663 43.7924 82.2677 43.7924 82.2677V85.275C43.7924 85.275 41.2363 84.5232 40.3341 85.4253C39.4319 86.3275 41.0859 88.2822 41.0859 88.2822Z" fill="#1B4B4A"/>
<path d="M40.0332 88.583C39.7324 88.8837 38.5296 89.1844 37.0259 87.9815C35.5223 86.7786 29.959 80.0124 29.959 79.7117C29.959 79.4109 30.4101 76.5541 31.0115 76.5541C31.613 76.5541 32.5151 74.449 32.5151 74.449C32.5151 74.449 33.1166 74.7498 34.6202 74.449C36.1238 74.1483 36.1238 73.5469 36.1238 73.5469C36.1238 73.5469 36.1238 76.5541 37.6274 77.1555C39.131 77.757 40.0332 77.757 40.0332 77.757C40.0332 77.757 40.3339 79.5613 41.236 80.7642C42.1382 81.9671 42.7397 82.5685 42.7397 82.5685V85.5757C42.7397 85.5757 40.1835 84.8239 39.2814 85.7261C38.3792 86.6283 40.0332 88.583 40.0332 88.583Z" fill="#3DA465"/>
<path d="M62.7368 29.1901C62.7368 29.1901 62.7368 30.9945 61.2332 31.2952C59.7296 31.5959 59.7296 30.0923 58.5267 30.393C57.3238 30.6937 56.7224 30.6937 56.1209 30.9945C55.5195 31.2952 54.9181 32.1973 54.0159 32.1973C53.1137 32.1973 51.3094 31.5959 49.8058 31.8966C48.3022 32.1973 45.295 34.0017 45.295 34.9038C45.295 35.806 47.0091 36.1067 46.1671 37.1592C45.325 38.2118 44.6935 37.911 44.0921 38.6629C43.4906 39.4147 43.4906 39.4147 42.8892 39.7154C42.2878 40.0161 42.2878 40.0161 41.0849 40.6175C39.882 41.219 39.882 43.6248 39.2805 42.4219C38.6791 41.219 39.2805 41.219 37.7769 41.5197C36.2733 41.8204 35.6719 41.5197 35.0704 42.7226C34.469 43.9255 33.5668 44.2262 33.8675 44.8276C34.1683 45.4291 35.3712 45.7298 35.0704 46.632C34.7697 47.5341 33.8675 47.2334 33.5668 48.737C33.2661 50.2406 32.9654 52.045 32.9654 52.045C32.9654 52.045 32.0632 54.15 31.1611 54.4507C30.2589 54.7515 28.4546 54.7515 28.1538 55.3529C27.8531 55.9543 26.951 58.0594 27.2517 59.2623C27.5524 60.4652 29.3567 61.6681 28.7553 62.2695C28.1538 62.8709 26.6502 60.4652 26.0488 59.2623C25.4473 58.0594 24.2445 50.8421 31.7625 40.6175C40.2729 29.0398 53.1137 26.4836 62.7368 29.1901Z" fill="#1B4B4A"/>
<path d="M62.7368 27.9875C62.7368 27.9875 62.7368 29.7918 61.2332 30.0925C59.7296 30.3933 59.7296 28.8897 58.5267 29.1904C57.3238 29.4911 56.7224 29.4911 56.1209 29.7918C55.5195 30.0925 54.9181 30.9947 54.0159 30.9947C53.1137 30.9947 51.3094 30.3933 49.8058 30.694C48.3022 30.9947 45.295 32.799 45.295 33.7012C45.295 34.6034 47.0091 34.9041 46.1671 35.9566C45.325 37.0091 44.6935 36.7084 44.0921 37.4602C43.4906 38.212 43.4906 38.212 42.8892 38.5127C42.2878 38.8135 42.2878 38.8135 41.0849 39.4149C39.882 40.0164 39.882 42.4221 39.2805 41.2192C38.6791 40.0164 39.2805 40.0164 37.7769 40.3171C36.2733 40.6178 35.6719 40.3171 35.0704 41.52C34.469 42.7228 33.5668 43.0236 33.8675 43.625C34.1683 44.2265 35.3712 44.5272 35.0704 45.4293C34.7697 46.3315 33.8675 46.0308 33.5668 47.5344C33.2661 49.038 32.9654 50.8423 32.9654 50.8423C32.9654 50.8423 32.0632 52.9474 31.1611 53.2481C30.2589 53.5488 28.4546 53.5488 28.1538 54.1503C27.8531 54.7517 26.951 56.8568 27.2517 58.0596C27.5524 59.2625 29.3567 60.4654 28.7553 61.0669C28.1538 61.6683 26.6502 59.2625 26.0488 58.0596C25.4473 56.8568 24.2445 49.6394 31.7625 39.4149C40.2729 27.8371 53.1137 25.281 62.7368 27.9875Z" fill="#3DA465"/>
<path d="M71.4587 29.7917C71.8496 29.6414 81.1119 31.6562 88.3292 42.6025C95.5465 53.5488 93.7121 58.0596 93.1106 58.3603C92.5092 58.661 92.2085 58.3603 92.2085 58.3603C92.2085 58.3603 91.607 57.1574 91.3063 55.3531C91.0056 53.5488 90.4041 53.5488 90.1034 51.7444C89.8027 49.9401 88.8705 47.4742 88.2991 46.3314C86.6151 42.9934 84.51 40.0464 82.8861 38.5127C80.8713 36.5881 78.0746 34.6033 76.2702 33.7011C74.4659 32.799 75.9695 34.6033 73.8645 34.3026C71.7594 34.0019 72.6616 31.8968 72.6616 31.8968C72.6616 31.8968 69.9551 30.3932 71.4587 29.7917Z" fill="#1B4B4A"/>
<path d="M71.7595 28.8894C72.1504 28.739 81.4126 30.7539 88.63 41.7001C95.8473 52.6464 94.0129 57.1572 93.4114 57.458C92.81 57.7587 92.5093 57.458 92.5093 57.458C92.5093 57.458 91.9078 56.2551 91.6071 54.4507C91.3064 52.6464 90.7049 52.6464 90.4042 50.8421C90.1035 49.0378 89.1712 46.5718 88.5999 45.4291C86.9158 42.0911 84.8108 39.144 83.1869 37.6103C81.1721 35.6857 78.3753 33.701 76.571 32.7988C74.7667 31.8966 76.2703 33.701 74.1652 33.4002C72.0602 33.0995 72.9624 30.9945 72.9624 30.9945C72.9624 30.9945 70.2559 29.4908 71.7595 28.8894Z" fill="#3DA465"/>
<path d="M33.2671 65.8776C34.3798 65.1258 33.5678 67.9826 32.6656 68.5841C31.7635 69.1855 30.2599 68.8848 30.5606 67.9826C30.8613 67.0804 32.3649 66.479 33.2671 65.8776Z" fill="#1B4B4A"/>
<path d="M40.1823 67.3823C41.3852 67.3823 41.9867 68.8859 42.2874 70.3895C42.5881 71.8931 39.8816 70.6903 39.5809 70.3895C39.2802 70.0888 40.1823 67.3823 40.1823 67.3823Z" fill="#1B4B4A"/>
<path d="M63.338 99.2588C63.0373 101.063 62.1351 101.665 60.9322 101.965C59.7293 102.266 58.2257 101.665 57.3236 100.462C56.4214 99.2588 55.4591 91.7408 55.8199 88.7335C56.1207 86.3278 57.925 85.7263 59.7293 86.3278C62.0148 87.0796 61.8344 89.0343 62.1351 91.7408C62.1351 91.7408 63.6086 97.5748 63.338 99.2588Z" fill="url(#paint2_linear_1548_32386)"/>
<path d="M56.4201 88.4329C56.2396 88.5532 56.39 91.1093 57.3222 92.0416C57.6229 92.3423 59.4273 92.3423 59.728 92.0416C60.7204 91.0492 60.6302 88.4329 60.6302 88.4329C60.6302 88.4329 58.8258 86.9293 56.4201 88.4329Z" fill="#F4B08B"/>
<path d="M32.3647 65.8776C33.4774 65.1258 32.6655 67.9826 31.7633 68.5841C30.8611 69.1855 29.3575 68.8848 29.6583 67.9826C29.959 67.0804 31.4626 66.479 32.3647 65.8776Z" fill="#3DA465"/>
<path d="M52.0645 98.2059L56.4851 97.6947L55.9137 93.6951L54.4402 93.5146C54.4402 93.5146 54.5304 94.4469 53.8688 95.8302C53.2072 97.2135 52.0645 98.2059 52.0645 98.2059Z" fill="url(#paint3_linear_1548_32386)"/>
<path d="M62.6191 93.8456L63.2507 97.2136H66.0173L65.4158 93.0938L62.6191 93.8456Z" fill="url(#paint4_linear_1548_32386)"/>
<path d="M54.6184 94.4471C54.9191 96.5521 54.2575 97.3039 53.1148 97.755C51.972 98.2061 50.8593 97.9354 49.8068 96.8528C48.7543 95.7702 46.7695 90.1467 46.7695 87.1395C46.7695 84.7037 48.4836 83.8917 50.3481 84.2526C52.6937 84.7338 52.784 86.6884 53.4155 89.3348C53.4155 89.3348 54.3778 92.763 54.6184 94.4471Z" fill="url(#paint5_linear_1548_32386)"/>
<path d="M47.3106 86.7483C47.1301 86.8987 47.6113 89.3947 48.6638 90.2066C49.0247 90.4773 50.799 90.2367 51.0395 89.9059C51.8815 88.7932 51.4906 86.207 51.4906 86.207C51.4906 86.207 49.5058 84.9741 47.3106 86.7483Z" fill="#F4B08B"/>
<path d="M39.282 67.3823C40.4848 67.3823 41.0863 68.8859 41.387 70.3895C41.6877 71.8931 38.9812 70.6903 38.6805 70.3895C38.3798 70.0888 39.282 67.3823 39.282 67.3823Z" fill="#3DA465"/>
<path d="M65.4464 96.5517C65.7471 98.0553 68.4536 97.7546 69.6565 97.4539C70.8894 97.1531 71.2804 97.093 71.7615 95.6495C72.2427 94.2061 71.7916 89.5449 70.4383 86.8685C69.3557 84.7033 67.4011 84.7634 65.8373 85.9362C63.8826 87.4398 64.6946 89.2141 65.296 91.8604C65.296 91.8604 65.1156 94.8677 65.4464 96.5517Z" fill="url(#paint6_linear_1548_32386)"/>
<path d="M69.7461 86.7781C69.9866 86.8383 70.6482 89.2741 70.0769 90.477C69.8664 90.8679 68.1222 91.4694 67.7312 91.2889C66.4381 90.6875 65.6562 88.1915 65.6562 88.1915C65.6562 88.1915 66.9193 86.1767 69.7461 86.7781Z" fill="#F4B08B"/>
<path d="M39.8821 88.4323C39.8821 88.4323 42.2879 90.5374 43.19 91.4396C44.0922 92.3417 45.8965 93.5446 46.7987 93.8453C47.7009 94.1461 48.3625 94.0859 48.3625 94.0859L46.7987 88.1316H44.6936C44.6936 88.1316 44.6936 86.628 42.8893 85.7258C41.2654 84.9139 39.1303 85.3048 39.0401 86.1168C38.9499 86.9287 39.2807 87.8309 39.8821 88.4323Z" fill="url(#paint7_linear_1548_32386)"/>
<path d="M104.719 82.6888C104.719 80.8544 103.245 79.3809 101.411 79.3809C100.689 79.3809 100.027 79.6215 99.486 80.0124C99.1853 78.8997 98.3132 78.0276 97.2005 77.6968C97.1103 75.1106 95.0052 73.0657 92.389 73.0657C91.577 73.0657 90.7951 73.2762 90.1335 73.6371C89.5922 71.4118 87.5774 69.7578 85.1716 69.7578C83.8184 69.7578 82.6155 70.269 81.6833 71.1411C80.6007 70.2089 79.1873 69.6074 77.6536 69.6074C74.2554 69.6074 71.4888 72.3741 71.4888 75.7722C71.4888 75.9827 71.4888 76.1932 71.5189 76.4037C70.8573 76.103 70.1356 75.9226 69.3838 75.9226C66.557 75.9226 64.2715 78.2081 64.2715 81.0348C64.2715 83.8616 65.9555 86.2975 69.5341 86.2975C73.1127 86.2975 99.8769 86.2975 101.381 86.2975C103.486 86.2975 104.719 84.3127 104.719 82.6888Z" fill="#9CD9F7"/>
<path d="M106.222 83.7713C106.222 81.9369 104.749 80.4634 102.915 80.4634C102.193 80.4634 101.531 80.704 100.99 81.0949C100.689 79.9822 99.8171 79.1101 98.7044 78.7794C98.6142 76.1931 96.5091 74.1482 93.8929 74.1482C93.0809 74.1482 92.299 74.3587 91.6375 74.7196C91.0962 72.4943 89.0813 70.8403 86.6755 70.8403C85.3223 70.8403 84.1194 71.3515 83.1872 72.2236C82.1046 71.2914 80.6912 70.6899 79.1575 70.6899C75.7593 70.6899 72.9927 73.4566 72.9927 76.8547C72.9927 77.0652 72.9927 77.2757 73.0228 77.4862C72.3612 77.1855 71.6395 77.0051 70.8877 77.0051C68.0609 77.0051 65.7754 79.2906 65.7754 82.1174C65.7754 84.9441 67.4594 87.38 71.038 87.38C74.6166 87.38 101.381 87.38 102.884 87.38C104.989 87.38 106.222 85.3952 106.222 83.7713Z" fill="#6ABDEE"/>
<defs>
<radialGradient id="paint0_radial_1548_32386" cx="0" cy="0" r="1" gradientUnits="userSpaceOnUse" gradientTransform="translate(66.9166 45.2317) rotate(34.992) scale(34.3548 39.3412)">
<stop stop-color="#4BA5D4"/>
<stop offset="1" stop-color="#26498D"/>
</radialGradient>
<linearGradient id="paint1_linear_1548_32386" x1="74.7774" y1="87.4663" x2="83.975" y2="87.4663" gradientUnits="userSpaceOnUse">
<stop stop-color="#824337"/>
<stop offset="0.997" stop-color="#E69589"/>
</linearGradient>
<linearGradient id="paint2_linear_1548_32386" x1="59.7291" y1="102.003" x2="59.3912" y2="87.6989" gradientUnits="userSpaceOnUse">
<stop stop-color="#CF7956"/>
<stop offset="0.997" stop-color="#E69589"/>
</linearGradient>
<linearGradient id="paint3_linear_1548_32386" x1="52.0645" y1="95.8464" x2="56.479" y2="95.8464" gradientUnits="userSpaceOnUse">
<stop stop-color="#CF7956"/>
<stop offset="0.997" stop-color="#87423D"/>
</linearGradient>
<linearGradient id="paint4_linear_1548_32386" x1="62.6297" y1="95.1652" x2="66.004" y2="95.1652" gradientUnits="userSpaceOnUse">
<stop stop-color="#CF7956"/>
<stop offset="0.997" stop-color="#87423D"/>
</linearGradient>
<linearGradient id="paint5_linear_1548_32386" x1="51.0738" y1="98.9173" x2="50.5106" y2="86.5278" gradientUnits="userSpaceOnUse">
<stop stop-color="#CF7956"/>
<stop offset="0.9869" stop-color="#E69589"/>
</linearGradient>
<linearGradient id="paint6_linear_1548_32386" x1="66.9702" y1="97.7075" x2="69.3355" y2="86.2191" gradientUnits="userSpaceOnUse">
<stop stop-color="#CF7956"/>
<stop offset="0.997" stop-color="#E69589"/>
</linearGradient>
<linearGradient id="paint7_linear_1548_32386" x1="49.8225" y1="93.3992" x2="41.2625" y2="87.0918" gradientUnits="userSpaceOnUse">
<stop stop-color="#CF7956"/>
<stop offset="0.997" stop-color="#E69589"/>
</linearGradient>
</defs>
</svg>
