<?xml version="1.0" standalone="no"?>
<!DOCTYPE svg PUBLIC "-//W3C//DTD SVG 20010904//EN"
 "http://www.w3.org/TR/2001/REC-SVG-20010904/DTD/svg10.dtd">
<svg version="1.0" xmlns="http://www.w3.org/2000/svg"
 width="700.000000pt" height="700.000000pt" viewBox="0 0 700.000000 700.000000"
 preserveAspectRatio="xMidYMid meet">
<metadata>
Created by potrace 1.14, written by Peter Selinger 2001-2017
</metadata>
<g transform="translate(0.000000,700.000000) scale(0.100000,-0.100000)"
fill="#000000" stroke="none">
<path d="M3060 5419 c-172 -20 -352 -69 -510 -139 -47 -21 -96 -41 -110 -45
-14 -3 -36 -14 -50 -25 -24 -18 -25 -18 -65 11 -71 51 -177 54 -252 8 -45 -28
-90 -99 -98 -153 l-7 -42 -67 0 c-55 0 -76 -5 -114 -27 -84 -50 -126 -145
-105 -241 9 -42 8 -50 -6 -58 -10 -5 -32 -22 -49 -38 l-33 -28 -55 37 c-83 56
-152 74 -262 69 -78 -3 -102 -9 -158 -36 -148 -71 -249 -228 -249 -388 l0 -50
-72 35 c-65 33 -79 36 -157 36 -72 0 -95 -4 -143 -27 -73 -34 -137 -98 -173
-174 -25 -51 -29 -71 -29 -144 0 -99 10 -126 88 -244 55 -84 89 -116 166 -157
l45 -24 456 -3 457 -3 6 -22 c3 -12 6 -73 6 -136 0 -264 73 -557 202 -815 l50
-99 -15 -71 c-17 -86 -24 -71 122 -250 241 -295 354 -387 434 -357 23 9 35 0
134 -90 163 -150 273 -219 350 -219 16 0 28 -15 53 -67 40 -87 80 -128 149
-153 50 -19 63 -20 150 -10 53 6 107 12 120 13 22 2 26 -4 37 -56 18 -76 37
-110 80 -143 98 -75 230 -57 285 40 19 33 24 56 24 118 l0 78 68 0 c43 0 79
-6 99 -16 44 -23 186 -15 249 13 70 31 84 69 84 219 l-1 120 81 36 c77 35 85
37 230 42 243 9 352 43 384 117 l16 39 565 0 c528 0 568 2 605 19 51 23 78 54
106 115 42 95 9 189 -88 255 -111 74 -133 83 -196 78 -50 -5 -63 -2 -97 20
-30 20 -40 34 -45 64 -15 90 -98 178 -240 256 -42 23 -62 27 -127 28 -118 1
-120 4 -75 157 60 205 87 385 87 583 0 103 1 106 25 115 19 7 29 23 42 69 l18
59 205 4 c219 3 239 8 286 60 94 103 85 252 -19 301 -48 23 -124 22 -164 -3
l-32 -19 0 59 1 60 283 0 c249 0 290 2 344 19 69 21 137 68 205 141 171 183
115 465 -114 574 -56 26 -76 31 -145 31 -66 -1 -90 -5 -140 -28 -33 -15 -67
-35 -76 -43 -15 -13 -17 -9 -22 52 -12 130 -91 245 -207 302 -48 24 -67 27
-150 27 -87 0 -101 -3 -159 -31 l-63 -32 -61 32 c-82 42 -193 49 -280 16 -72
-27 -199 -126 -229 -180 -17 -29 -28 -38 -40 -34 -10 3 -47 5 -83 5 -63 0 -68
2 -143 56 -148 106 -298 183 -431 219 l-64 18 -18 -22 -17 -22 -75 25 c-119
40 -272 74 -381 85 -56 5 -167 17 -248 25 -158 16 -270 17 -388 4z m302 -1051
c62 -37 88 -90 88 -182 0 -77 -21 -128 -70 -169 -42 -35 -89 -47 -192 -47
l-88 0 0 216 0 216 108 -3 c95 -4 112 -7 154 -31z m302 -99 l6 -31 31 31 c22
23 40 31 65 31 33 0 34 -1 34 -38 0 -38 -1 -39 -37 -40 -22 -1 -45 -10 -60
-23 -21 -21 -23 -30 -23 -126 l0 -103 -45 0 -45 0 0 165 0 165 34 0 c29 0 34
-4 40 -31z m317 -219 c22 -12 26 -59 7 -78 -13 -13 -47 -16 -64 -4 -24 15 -26
50 -5 71 24 24 34 25 62 11z m-1323 -272 c3 -21 -2 -30 -21 -39 -32 -15 -67 3
-67 35 0 31 9 37 50 34 30 -3 35 -7 38 -30z m-331 -16 c83 -43 109 -98 101
-216 -5 -80 -38 -135 -100 -165 -36 -17 -63 -21 -146 -21 l-102 0 0 216 0 217
103 -5 c77 -4 114 -11 144 -26z m2613 -47 c0 -35 0 -35 45 -35 43 0 45 -1 45
-30 0 -29 -2 -30 -45 -30 l-46 0 3 -97 3 -98 48 0 c46 0 47 0 47 -32 0 -29 -4
-33 -36 -39 -44 -8 -103 1 -122 19 -20 21 -31 81 -32 170 0 70 -2 77 -20 77
-29 0 -26 34 4 48 14 6 30 27 37 46 11 30 18 36 41 36 25 0 28 -3 28 -35z
m-1956 -36 c43 -11 43 -11 32 -41 -9 -25 -15 -28 -36 -24 -61 14 -86 16 -99 7
-25 -16 -4 -40 63 -70 70 -32 86 -51 86 -106 0 -71 -79 -108 -187 -89 -45 9
-48 11 -51 43 -3 31 -2 33 20 27 61 -17 114 -18 127 -2 21 25 8 40 -61 73 -76
36 -88 49 -90 97 -3 78 80 114 196 85z m383 0 c29 -10 30 -12 20 -39 -11 -29
-12 -29 -68 -23 -54 5 -58 4 -75 -23 -26 -39 -25 -125 1 -154 16 -18 28 -21
65 -18 25 3 53 8 63 12 14 7 17 3 17 -26 0 -42 -27 -58 -98 -58 -62 0 -113 26
-135 70 -25 49 -20 167 9 207 41 56 127 78 201 52z m369 -5 c48 -23 76 -80 75
-156 0 -98 -46 -154 -136 -164 -65 -7 -132 25 -157 76 -24 47 -24 145 0 189
35 66 140 92 218 55z m926 -13 l33 -29 3 -136 4 -136 -46 0 -45 0 -3 122 c-3
118 -4 123 -27 134 -32 16 -75 1 -90 -32 -6 -14 -11 -70 -11 -124 l0 -100 -45
0 -45 0 0 160 0 160 34 0 c26 0 36 -5 41 -21 7 -21 7 -21 28 -1 28 25 43 30
94 31 34 1 50 -5 75 -28z m-2002 -141 l0 -160 -45 0 -45 0 0 160 0 160 45 0
45 0 0 -160z m1370 42 c0 -130 5 -142 55 -142 57 0 70 27 73 151 l4 109 39 0
39 0 0 -160 0 -160 -29 0 c-21 0 -32 6 -36 19 -6 19 -7 19 -43 -6 -50 -33
-121 -29 -160 11 -26 26 -27 31 -30 161 l-4 135 46 0 46 0 0 -118z"/>
<path d="M3180 4185 l0 -145 40 0 c57 0 106 23 124 59 10 18 16 56 16 97 0 62
-2 68 -34 100 -31 31 -40 34 -90 34 l-56 0 0 -145z"/>
<path d="M2168 3714 c-11 -11 -10 -282 1 -288 21 -13 105 8 133 33 58 51 55
190 -4 234 -27 20 -117 35 -130 21z"/>
<path d="M3604 3599 c-24 -27 -25 -115 -1 -152 13 -21 26 -27 52 -27 18 0 40
7 49 15 33 33 33 130 -1 167 -22 25 -75 23 -99 -3z"/>
</g>
</svg>
